SplineFontDB: 3.0
FontName: PatrickHand
FullName: Patrick Hand
FamilyName: Patrick Hand
Weight: Regular
Copyright: Copyright (c) 2010 by Patrick Wagesreiter. All rights reserved.
Version: 001.001
ItalicAngle: 0
UnderlinePosition: -73
UnderlineWidth: 71
Ascent: 740
Descent: 260
sfntRevision: 0x00010000
LayerCount: 2
Layer: 0 1 "Back"  1
Layer: 1 1 "Fore"  0
NeedsXUIDChange: 1
XUID: [1021 288 713564382 4735367]
FSType: 0
OS2Version: 2
OS2_WeightWidthSlopeOnly: 0
OS2_UseTypoMetrics: 1
CreationTime: 1285847470
ModificationTime: 1308170461
PfmFamily: 17
TTFWeight: 400
TTFWidth: 5
LineGap: 0
VLineGap: 0
Panose: 2 0 0 0 0 0 0 0 0 0
OS2TypoAscent: 740
OS2TypoAOffset: 0
OS2TypoDescent: -260
OS2TypoDOffset: 0
OS2TypoLinegap: 0
OS2WinAscent: 740
OS2WinAOffset: 0
OS2WinDescent: 260
OS2WinDOffset: 0
HheadAscent: 740
HheadAOffset: 0
HheadDescent: -260
HheadDOffset: 0
OS2SubXSize: 700
OS2SubYSize: 650
OS2SubXOff: 0
OS2SubYOff: 140
OS2SupXSize: 700
OS2SupYSize: 650
OS2SupXOff: 0
OS2SupYOff: 477
OS2StrikeYSize: 50
OS2StrikeYPos: 250
OS2Vendor: 'pyrs'
OS2CodePages: 00000001.00000000
OS2UnicodeRanges: 800000af.4000e04a.00000000.00000000
Lookup: 1 0 0 "'smcp' Lowercase to Small Capitals in Latin lookup 0"  {"'smcp' Lowercase to Small Capitals in Latin lookup 0 subtable"  } ['smcp' ('latn' <'dflt' > ) ]
Lookup: 1 0 0 "'c2sc' Capitals to Small Capitals in Latin lookup 1"  {"'c2sc' Capitals to Small Capitals in Latin lookup 1 subtable"  } ['c2sc' ('latn' <'dflt' > ) ]
Lookup: 4 0 1 "'liga' Standard Ligatures in Latin lookup 2"  {"'liga' Standard Ligatures in Latin lookup 2 subtable"  } ['liga' ('latn' <'dflt' > ) ]
Lookup: 1 0 0 "'onum' Oldstyle Figures in Latin lookup 3"  {"'onum' Oldstyle Figures in Latin lookup 3 subtable" ("oldstyle" ) } ['onum' ('latn' <'dflt' > ) ]
Lookup: 1 0 0 "'lnum' Lining Figures in Latin lookup 4"  {"'lnum' Lining Figures in Latin lookup 4 subtable"  } ['lnum' ('latn' <'dflt' > ) ]

StartChar: zero
Encoding: 48 48 1
Width: 374
Flags: HW
HStem: -1 77<149.949 235.167> 494 59<153.522 231.978>
VStem: 26 70<147.938 410.353> 277 69<132.053 418.892>
LayerCount: 2
Fore
SplineSet
270 189 m 1,0,1
 277 228 277 228 277 292 c 128,-1,2
 277 356 277 356 256 425 c 128,-1,3
 235 494 235 494 196 494 c 0,4,5
 162 494 162 494 138.5 455.5 c 0,6,7
 96 385.872340426 96 385.872340426 96 256 c 0,8,9
 96 189 96 189 124.5 132.5 c 128,-1,10
 153 76 153 76 191 76 c 0,11,12
 212.272727273 76 212.272727273 76 221.136363636 83.5 c 128,-1,13
 230 91 230 91 235 95 c 128,-1,14
 240 99 240 99 244.5 109.5 c 128,-1,15
 249 120 249 120 251.5 124 c 128,-1,16
 254 128 254 128 258 141 c 128,-1,17
 262 154 262 154 262.5 157 c 128,-1,18
 263 160 263 160 266.5 174.5 c 2,19,-1
 270 189 l 1,0,1
99 508.5 m 0,20,21
 139 553 139 553 191 553 c 128,-1,22
 243 553 243 553 278 510 c 0,23,24
 346 426.457142857 346 426.457142857 346 264 c 0,25,26
 346 154 346 154 308 76.5 c 128,-1,27
 270 -1 270 -1 199 -1 c 0,28,29
 26 -1 26 -1 26 263 c 0,30,31
 26 427.2875 26 427.2875 99 508.5 c 0,20,21
EndSplineSet
Substitution2: "'onum' Oldstyle Figures in Latin lookup 3 subtable" zero.onum
Substitution2: "'smcp' Lowercase to Small Capitals in Latin lookup 0 subtable" zero.smcp
EndChar

StartChar: one
Encoding: 49 49 2
Width: 303
Flags: HW
HStem: -2 21G<216 230> 528 20G<225 242>
VStem: 193 68<4.31808 440>
LayerCount: 2
Fore
SplineSet
79 314 m 1,0,1
 68 307 68 307 54.5 307 c 128,-1,2
 41 307 41 307 31.5 316.5 c 128,-1,3
 22 326 22 326 22 339 c 128,-1,4
 22 352 22 352 29 363 c 1,5,-1
 186 531 l 1,6,7
 205 548 205 548 234 548 c 128,-1,8
 263 548 263 548 267 526 c 1,9,10
 261 414 261 414 261 296.5 c 128,-1,11
 261 179 261 179 263 39 c 1,12,13
 261 23 261 23 248 10.5 c 128,-1,14
 235 -2 235 -2 219 -2 c 128,-1,15
 203 -2 203 -2 196 19 c 1,16,17
 193 136 193 136 193 242 c 128,-1,18
 193 348 193 348 196 440 c 1,19,20
 165 413 165 413 133.5 375 c 128,-1,21
 102 337 102 337 79 314 c 1,0,1
EndSplineSet
Substitution2: "'sups' Superscript in Latin lookup 5 subtable" onesuperior
Substitution2: "'onum' Oldstyle Figures in Latin lookup 3 subtable" one.onum
Substitution2: "'smcp' Lowercase to Small Capitals in Latin lookup 0 subtable" one.smcp
EndChar

StartChar: two
Encoding: 50 50 3
Width: 390
Flags: HW
HStem: 0 73<113.699 362.083> 492 60<127.968 242.833>
VStem: 271 64<324.226 462.858>
LayerCount: 2
Fore
SplineSet
156 0 m 2,0,1
 37 0 37 0 37 45 c 0,2,3
 37 74 37 74 66 116.5 c 128,-1,4
 95 159 95 159 106.5 170 c 128,-1,5
 118 181 118 181 151.5 210.5 c 128,-1,6
 185 240 185 240 197 253 c 128,-1,7
 209 266 209 266 231 293.5 c 0,8,9
 271 343.5 271 343.5 271 400 c 0,10,11
 271 439 271 439 248.5 465.5 c 128,-1,12
 226 492 226 492 187.5 492 c 128,-1,13
 149 492 149 492 104 453 c 0,14,15
 92 442 92 442 81 442 c 128,-1,16
 70 442 70 442 63 450.5 c 128,-1,17
 56 459 56 459 56 471 c 0,18,19
 56 506 56 506 107 529 c 128,-1,20
 158 552 158 552 195 552 c 0,21,22
 254 552 254 552 294.5 512.5 c 128,-1,23
 335 473 335 473 335 411.5 c 128,-1,24
 335 350 335 350 310 300 c 128,-1,25
 285 250 285 250 253 220.5 c 128,-1,26
 221 191 221 191 177.5 149.5 c 128,-1,27
 134 108 134 108 111 73 c 1,28,29
 162 70 162 70 222 70 c 128,-1,30
 282 70 282 70 353 76 c 1,31,32
 379 71 379 71 379 52 c 0,33,34
 379 13.8095238095 379 13.8095238095 317.5 6 c 0,35,36
 270.25 -3.52495810318e-15 270.25 -3.52495810318e-15 230.125 0 c 2,37,-1
 156 0 l 2,0,1
EndSplineSet
Substitution2: "'sups' Superscript in Latin lookup 5 subtable" twosuperior
Substitution2: "'onum' Oldstyle Figures in Latin lookup 3 subtable" two.onum
Substitution2: "'smcp' Lowercase to Small Capitals in Latin lookup 0 subtable" two.smcp
EndChar

StartChar: three
Encoding: 51 51 4
Width: 374
Flags: HW
HStem: 0 66<138.137 247.582> 270 54<118.219 201.464> 490 66<119.373 225.254>
VStem: 248 65<367.858 468.919> 278 69<99.7857 235.3>
LayerCount: 2
Fore
SplineSet
90 444 m 1,0,1
 77 435 77 435 65 435 c 128,-1,2
 53 435 53 435 45.5 442 c 128,-1,3
 38 449 38 449 38 460 c 0,4,5
 38 492 38 492 95 524 c 128,-1,6
 152 556 152 556 202.5 556 c 128,-1,7
 253 556 253 556 283 520 c 128,-1,8
 313 484 313 484 313 437 c 0,9,10
 313 365 313 365 259 316 c 1,11,12
 299 301 299 301 323 264 c 128,-1,13
 347 227 347 227 347 167 c 128,-1,14
 347 107 347 107 307.5 53.5 c 128,-1,15
 268 0 268 0 204 0 c 0,16,17
 160 0 160 0 93.5 34.5 c 128,-1,18
 27 69 27 69 27 97 c 0,19,20
 27 111 27 111 39 122.5 c 128,-1,21
 51 134 51 134 64.5 134 c 128,-1,22
 78 134 78 134 85.5 129 c 128,-1,23
 93 124 93 124 105.5 113 c 128,-1,24
 118 102 118 102 124 97 c 0,25,26
 161.2 66 161.2 66 209.071428571 66 c 0,27,28
 237 66 237 66 257.5 101.5 c 128,-1,29
 278 137 278 137 278 172.5 c 128,-1,30
 278 208 278 208 266 225.5 c 0,31,32
 240.044358727 263.351976856 240.044358727 263.351976856 137 270 c 1,33,34
 117 276 117 276 117 291 c 128,-1,35
 117 306 117 306 125.5 315 c 128,-1,36
 134 324 134 324 146 324 c 0,37,38
 180 324 180 324 214 355 c 128,-1,39
 248 386 248 386 248 414.5 c 128,-1,40
 248 443 248 443 228.5 466.5 c 128,-1,41
 209 490 209 490 171.5 490 c 128,-1,42
 134 490 134 490 90 444 c 1,0,1
EndSplineSet
Substitution2: "'sups' Superscript in Latin lookup 5 subtable" threesuperior
Substitution2: "'onum' Oldstyle Figures in Latin lookup 3 subtable" three.onum
Substitution2: "'smcp' Lowercase to Small Capitals in Latin lookup 0 subtable" three.smcp
EndChar

StartChar: four
Encoding: 52 52 5
Width: 313
Flags: HW
HStem: -1 21G<221.5 248.5> 179 73<107.018 209.605> 369 20G<239.5 258> 534 20G<97.5 112.5>
VStem: 30 75<254.356 465.727> 61 69<387.927 546.927> 209 69<4.33194 184 256 387.843>
LayerCount: 2
Fore
SplineSet
239 -1 m 0,0,1
 209 -1 209 -1 209 83.5 c 2,2,-1
 209 138 l 2,3,4
 209 145 209 145 209.5 160.5 c 128,-1,5
 210 176 210 176 210 184 c 1,6,7
 180 179 180 179 125 179 c 128,-1,8
 70 179 70 179 50 197 c 128,-1,9
 30 215 30 215 30 280.428571429 c 0,10,11
 30 345.857142857 30 345.857142857 45 429.428571429 c 128,-1,12
 60 513 60 513 61 521 c 1,13,14
 66 535 66 535 79.5 544.5 c 128,-1,15
 93 554 93 554 106 554 c 0,16,17
 130 554 130 554 130 528 c 2,18,-1
 130 521 l 1,19,20
 105 356 105 356 105 311 c 128,-1,21
 105 266 105 266 106 254 c 1,22,23
 117 252 117 252 139 252 c 1,24,-1
 211 256 l 1,25,26
 215 304 215 304 216.5 340 c 128,-1,27
 218 376 218 376 219.375 381.5 c 0,28,29
 220.75 387 220.75 387 227.875 388 c 128,-1,30
 235 389 235 389 248 389 c 128,-1,31
 261 389 261 389 268 387 c 0,32,33
 284 382.428571429 284 382.428571429 284 337 c 1,34,-1
 278 137 l 1,35,36
 278 81 278 81 283 37 c 1,37,38
 280 23 280 23 266.5 11 c 128,-1,39
 253 -1 253 -1 239 -1 c 0,0,1
EndSplineSet
Substitution2: "'onum' Oldstyle Figures in Latin lookup 3 subtable" four.onum
Substitution2: "'smcp' Lowercase to Small Capitals in Latin lookup 0 subtable" four.smcp
EndChar

StartChar: five
Encoding: 53 53 6
Width: 353
Flags: HW
HStem: 3 63<131.856 227.981> 294 74<101.056 225.18> 483 64<80.8585 287.628>
VStem: 34 64<360.147 502> 43 58<359 422.107> 264 73<106.066 256.404>
LayerCount: 2
Fore
SplineSet
149 294 m 1,0,-1
 90 286 l 1,1,2
 71 286 71 286 57.5 296.5 c 128,-1,3
 44 307 44 307 43 327 c 128,-1,4
 42 347 42 347 38 403.5 c 128,-1,5
 34 460 34 460 34 485 c 0,6,7
 34 543 34 543 53 543 c 0,8,9
 161 547 161 547 170 547 c 0,10,11
 257 547 257 547 297 534 c 1,12,13
 313 524 313 524 313 506.5 c 128,-1,14
 313 489 313 489 303.5 477.5 c 128,-1,15
 294 466 294 466 281.5 466 c 128,-1,16
 269 466 269 466 230 474.5 c 128,-1,17
 191 483 191 483 162.5 483 c 128,-1,18
 134 483 134 483 116 470.5 c 128,-1,19
 98 458 98 458 98 423 c 0,20,21
 98 414 98 414 99.5 392.5 c 128,-1,22
 101 371 101 371 101 359 c 1,23,24
 125 368 125 368 161 368 c 0,25,26
 247 368 247 368 292 321 c 128,-1,27
 337 274 337 274 337 194.5 c 128,-1,28
 337 115 337 115 295 59 c 128,-1,29
 253 3 253 3 179 3 c 0,30,31
 78.037037037 3 78.037037037 3 42.5 53.5 c 0,32,33
 28 74.1052631579 28 74.1052631579 28 91.5526315789 c 128,-1,34
 28 109 28 109 40.5 121.5 c 128,-1,35
 53 134 53 134 68.5 134 c 128,-1,36
 84 134 84 134 96.5 123.5 c 128,-1,37
 109 113 109 113 118 100 c 128,-1,38
 127 87 127 87 144 76.5 c 128,-1,39
 161 66 161 66 183 66 c 0,40,41
 221 67 221 67 242.5 105.5 c 128,-1,42
 264 144 264 144 264 195 c 128,-1,43
 264 246 264 246 229.5 270 c 128,-1,44
 195 294 195 294 149 294 c 1,0,-1
EndSplineSet
Substitution2: "'onum' Oldstyle Figures in Latin lookup 3 subtable" five.onum
Substitution2: "'smcp' Lowercase to Small Capitals in Latin lookup 0 subtable" five.smcp
EndChar

StartChar: six
Encoding: 54 54 7
Width: 333
Flags: HW
HStem: -1 64<115.535 203.679> 228 60<116 227.363> 534 20G<209.5 221.5>
VStem: 29 67<81.7732 222.506> 244 63<104.964 213.64>
LayerCount: 2
Fore
SplineSet
169 228 m 1,0,-1
 109 224 l 1,1,2
 96 189 96 189 96 155 c 128,-1,3
 96 121 96 121 110.5 92 c 128,-1,4
 125 63 125 63 148 63 c 0,5,6
 186 63 186 63 215 95 c 128,-1,7
 244 127 244 127 244 163 c 0,8,9
 244 179 244 179 236 197 c 1,10,11
 220 228 220 228 169 228 c 1,0,-1
116 287 m 1,12,-1
 170 288 l 1,13,14
 307 288 307 288 307 162 c 0,15,16
 307 94 307 94 254 46.5 c 128,-1,17
 201 -1 201 -1 130 -1 c 0,18,19
 78.84375 -1 78.84375 -1 57.5091417398 31.5098792536 c 0,20,21
 36.1745334797 64.0197585071 36.1745334797 64.0197585071 32.5872667398 100.609879254 c 0,22,23
 29 137.2 29 137.2 29 176.6 c 128,-1,24
 29 216 29 216 46.5 275.5 c 128,-1,25
 64 335 64 335 83 376 c 128,-1,26
 102 417 102 417 119 445 c 128,-1,27
 136 473 136 473 148 489.5 c 128,-1,28
 160 506 160 506 173.5 523 c 128,-1,29
 187 540 187 540 192 547 c 128,-1,30
 197 554 197 554 211.5 554 c 128,-1,31
 226 554 226 554 235.5 548.5 c 128,-1,32
 245 543 245 543 245 536.5 c 128,-1,33
 245 530 245 530 208.166666667 468.25 c 0,34,35
 171.333333333 406.5 171.333333333 406.5 161.166666667 390.25 c 128,-1,36
 151 374 151 374 135 337 c 128,-1,37
 119 300 119 300 116 287 c 1,12,-1
EndSplineSet
Substitution2: "'onum' Oldstyle Figures in Latin lookup 3 subtable" six.onum
Substitution2: "'smcp' Lowercase to Small Capitals in Latin lookup 0 subtable" six.smcp
EndChar

StartChar: seven
Encoding: 55 55 8
Width: 413
Flags: HW
HStem: -1 21G<226.5 245.5> 293 60<91.8441 221> 300 59<121 221 284.263 390.724>
VStem: 213 61<3.75464 288.648>
LayerCount: 2
Fore
SplineSet
326 299 m 1,0,-1
 286 300 l 2,1,2
 274 300 274 300 274 124 c 0,3,4
 274 66 274 66 276 36 c 1,5,6
 272 21 272 21 260.5 10 c 128,-1,7
 249 -1 249 -1 237 -1 c 0,8,9
 213 -1 213 -1 213 62 c 0,10,11
 213 192 213 192 221 300 c 1,12,-1
 111 293 l 2,13,14
 100 293 100 293 93 299 c 128,-1,15
 86 305 86 305 86 315.5 c 128,-1,16
 86 326 86 326 97 338.5 c 128,-1,17
 108 351 108 351 121 353 c 1,18,-1
 226 356 l 1,19,20
 228 373 228 373 230 407.5 c 128,-1,21
 232 442 232 442 233 459 c 1,22,23
 197 464 197 464 129 476.5 c 128,-1,24
 61 489 61 489 31 494 c 1,25,26
 14 504 14 504 14 520 c 128,-1,27
 14 536 14 536 23.5 545.5 c 128,-1,28
 33 555 33 555 44 555 c 1,29,30
 98.75 545.875 98.75 545.875 194.610211268 530.945950704 c 0,31,32
 290.470422535 516.016901408 290.470422535 516.016901408 301 510 c 0,33,34
 324 496 324 496 324 483 c 0,35,36
 324 446 324 446 296 446 c 1,37,-1
 290 447 l 1,38,39
 290 444 290 444 284 359 c 1,40,-1
 371 360 l 1,41,42
 394 355 394 355 394 337 c 0,43,44
 394 299 394 299 326 299 c 1,0,-1
EndSplineSet
Substitution2: "'onum' Oldstyle Figures in Latin lookup 3 subtable" seven.onum
Substitution2: "'smcp' Lowercase to Small Capitals in Latin lookup 0 subtable" seven.smcp
EndChar

StartChar: eight
Encoding: 56 56 9
Width: 361
Flags: HW
HStem: 1 63<113.18 241.22> 496 58<118.093 255.547>
VStem: 26 62<88.8862 205.039> 46 59<394.357 483.512> 254 68<76.8014 193.46> 270 56<401.706 479.677>
LayerCount: 2
Fore
SplineSet
196 496 m 2,0,-1
 176 496 l 2,1,2
 105 496 105 496 105 438 c 0,3,4
 105 416 105 416 119 402 c 128,-1,5
 133 388 133 388 141 381.5 c 128,-1,6
 149 375 149 375 164 364.5 c 128,-1,7
 179 354 179 354 186 349 c 1,8,9
 270 408 270 408 270 436.5 c 128,-1,10
 270 465 270 465 248 480.5 c 128,-1,11
 226 496 226 496 196 496 c 2,0,-1
254 119 m 1,12,13
 254 186 254 186 177 269 c 1,14,15
 88 213 88 213 88 135 c 0,16,17
 88 103 88 103 116 83.5 c 128,-1,18
 144 64 144 64 179.5 64 c 0,19,20
 252.035714286 64 252.035714286 64 254 119 c 1,12,13
86 527.5 m 128,-1,22
 126 554 126 554 184.5 554 c 128,-1,23
 243 554 243 554 284.5 518.5 c 128,-1,24
 326 483 326 483 326 439 c 0,25,26
 326 413 326 413 300.5 372.5 c 128,-1,27
 275 332 275 332 239 310 c 1,28,29
 322 213 322 213 322 132 c 0,30,31
 322 69 322 69 277.5 35 c 128,-1,32
 233 1 233 1 173.5 1 c 128,-1,33
 114 1 114 1 70 34 c 128,-1,34
 26 67 26 67 26 119.5 c 128,-1,35
 26 172 26 172 54.5 222.5 c 128,-1,36
 83 273 83 273 129 307 c 1,37,38
 94 327 94 327 70 367.5 c 128,-1,39
 46 408 46 408 46 454.5 c 128,-1,21
 46 501 46 501 86 527.5 c 128,-1,22
EndSplineSet
Substitution2: "'onum' Oldstyle Figures in Latin lookup 3 subtable" eight.onum
Substitution2: "'smcp' Lowercase to Small Capitals in Latin lookup 0 subtable" eight.smcp
EndChar

StartChar: nine
Encoding: 57 57 10
Width: 306
Flags: HW
HStem: 254 67<105.409 190.319> 497 58<104.947 205.394>
VStem: 24 61<339.961 477.089> 217 62<4.70047 291 340.749 492.284>
LayerCount: 2
Fore
SplineSet
216 354 m 1,0,-1
 217 414 l 1,1,2
 217 475 217 475 201 493 c 1,3,4
 190 497 190 497 170 497 c 0,5,6
 85 497 85 497 85 418 c 0,7,8
 85 367.666666667 85 367.666666667 107.5 338.5 c 0,9,10
 121 321 121 321 141 321 c 1,11,12
 197 339 197 339 216 354 c 1,0,-1
279 426 m 2,13,-1
 277 236 l 1,14,15
 277 111 277 111 280 37 c 1,16,17
 279 23 279 23 267.5 12 c 128,-1,18
 256 1 256 1 242 1 c 128,-1,19
 228 1 228 1 220 19 c 1,20,21
 214 154 214 154 214 291 c 1,22,23
 166 254 166 254 119.5 254 c 128,-1,24
 73 254 73 254 48.5 303 c 128,-1,25
 24 352 24 352 24 405.5 c 128,-1,26
 24 459 24 459 39 486 c 128,-1,27
 54 513 54 513 99.5 534 c 128,-1,28
 145 555 145 555 181.5 555 c 0,29,30
 248.804878049 555 248.804878049 555 263.902439024 516.3125 c 128,-1,31
 279 477.625 279 477.625 279 426 c 2,13,-1
EndSplineSet
Substitution2: "'onum' Oldstyle Figures in Latin lookup 3 subtable" nine.onum
Substitution2: "'smcp' Lowercase to Small Capitals in Latin lookup 0 subtable" nine.smcp
EndChar

StartChar: A
Encoding: 65 65 11
Width: 407
Flags: HW
HStem: -1 21G<351 368> 203 63<140.88 269> 529 20G<168.5 227.5>
VStem: 20 60<1.75806 130.833>
LayerCount: 2
Fore
SplineSet
207 457 m 1,0,1
 165 378 165 378 139 284 c 1,2,3
 190 266 190 266 269 266 c 1,4,5
 235 390 235 390 207 457 c 1,0,1
80 17 m 0,6,7
 77 1 77 1 48.5 1 c 128,-1,8
 20 1 20 1 20 25 c 0,9,10
 20 72 20 72 48 194.5 c 128,-1,11
 76 317 76 317 124.5 433 c 128,-1,12
 173 549 173 549 216 549 c 0,13,14
 233 549 233 549 275.5 441.5 c 128,-1,15
 318 334 318 334 350 205 c 128,-1,16
 382 76 382 76 390 29 c 1,17,18
 390 -1 390 -1 359.5 -1 c 128,-1,19
 329 -1 329 -1 323 26 c 2,20,-1
 283 203 l 1,21,22
 176 203 176 203 121 219 c 1,23,24
 90 91 90 91 80 17 c 0,6,7
EndSplineSet
Substitution2: "'c2sc' Capitals to Small Capitals in Latin lookup 1 subtable" A.smcp
EndChar

StartChar: B
Encoding: 66 66 12
Width: 423
Flags: HW
HStem: 3 56<115.336 291.682> 496 60<122.774 245.049>
VStem: 48 65<89.4717 254.063 311 483.386> 274 57<356.191 469.103> 329 57<97.5831 234.074>
LayerCount: 2
Fore
SplineSet
112 423 m 1,0,-1
 113 396 l 1,1,-1
 112 338 l 2,2,3
 112 318 112 318 113 311 c 1,4,5
 117 312 117 312 139 314.5 c 128,-1,6
 161 317 161 317 170.5 318.5 c 128,-1,7
 180 320 180 320 199.5 325 c 128,-1,8
 219 330 219 330 229 337 c 128,-1,9
 239 344 239 344 251.5 355 c 0,10,11
 274 374.8 274 374.8 274 414.4 c 128,-1,12
 274 454 274 454 245.5 475 c 128,-1,13
 217 496 217 496 176.5 496 c 128,-1,14
 136 496 136 496 124 476.5 c 128,-1,15
 112 457 112 457 112 423 c 1,0,-1
111 251 m 1,16,17
 111 117.8 111 117.8 117 59 c 1,18,19
 149 56 149 56 224 56 c 0,20,21
 275 56 275 56 302 90 c 128,-1,22
 329 124 329 124 329 167 c 0,23,24
 329 263 329 263 231 263 c 0,25,26
 203 263 203 263 111 251 c 1,16,17
49 319 m 1,27,-1
 48 378 l 1,28,29
 48 442.25 48 442.25 69 493 c 0,30,31
 81 522 81 522 106.5 539 c 128,-1,32
 132 556 132 556 169 556 c 0,33,34
 235 556 235 556 283 519.5 c 128,-1,35
 331 483 331 483 331 423 c 0,36,37
 331 346 331 346 283 307 c 1,38,39
 329 303 329 303 357.5 258.5 c 128,-1,40
 386 214 386 214 386 168.5 c 128,-1,41
 386 123 386 123 373 93 c 128,-1,42
 360 63 360 63 340 46.5 c 0,43,44
 287.272727273 3 287.272727273 3 165 3 c 0,45,46
 161 3 161 3 59 6 c 1,47,48
 49 45 49 45 49 319 c 1,27,-1
EndSplineSet
Substitution2: "'c2sc' Capitals to Small Capitals in Latin lookup 1 subtable" B.smcp
EndChar

StartChar: C
Encoding: 67 67 13
Width: 457
Flags: HW
HStem: 1 67<173.515 307.985> 475 70<193.105 386.428>
VStem: 35 71<151.387 380.409>
LayerCount: 2
Fore
SplineSet
403 523 m 1,0,1
 418 512.5 418 512.5 418 498.25 c 128,-1,2
 418 484 418 484 404.5 473.5 c 128,-1,3
 391 463 391 463 373 463 c 1,4,5
 330 475 330 475 289 475 c 0,6,7
 200 475 200 475 153 422 c 128,-1,8
 106 369 106 369 106 267 c 0,9,10
 106 189 106 189 138.5 128.5 c 128,-1,11
 171 68 171 68 230 68 c 0,12,13
 264 68 264 68 323.5 96 c 128,-1,14
 383 124 383 124 393 124 c 0,15,16
 415 124 415 124 415 101.5 c 128,-1,17
 415 79 415 79 394 64 c 1,18,19
 276 1 276 1 215 1 c 128,-1,20
 154 1 154 1 111.5 45.5 c 0,21,22
 35 125.6 35 125.6 35 265.3 c 128,-1,23
 35 405 35 405 105 475 c 128,-1,24
 175 545 175 545 280 545 c 0,25,26
 337 545 337 545 403 523 c 1,0,1
EndSplineSet
Substitution2: "'c2sc' Capitals to Small Capitals in Latin lookup 1 subtable" C.smcp
EndChar

StartChar: D
Encoding: 68 68 14
Width: 396
Flags: HW
HStem: -2 65<127.459 286.319> 532 20G<69 80.5>
VStem: 30 69<111.461 480> 60 70<-40.8156 3.76635> 323 67<93.8725 282.894>
LayerCount: 2
Fore
SplineSet
103 480 m 1,0,1
 99 392 99 392 99 346 c 0,2,3
 99 196 99 196 116 69 c 1,4,5
 137 63 137 63 183.5 63 c 128,-1,6
 230 63 230 63 274 78.5 c 128,-1,7
 318 94 318 94 321 126 c 0,8,9
 323 150 323 150 323 162 c 0,10,11
 323 271 323 271 264.5 354 c 128,-1,12
 206 437 206 437 103 480 c 1,0,1
127 4 m 1,13,14
 130 -4 130 -4 130 -14.5 c 128,-1,15
 130 -25 130 -25 117 -35.5 c 128,-1,16
 104 -46 104 -46 84.5 -46 c 128,-1,17
 65 -46 65 -46 60 -23 c 2,18,-1
 49 27 l 1,19,20
 37 36 37 36 37 47.25 c 128,-1,21
 37 58.5 37 58.5 46 66 c 1,22,23
 30 189 30 189 30 294 c 128,-1,24
 30 399 30 399 34 521 c 1,25,26
 38 534 38 534 51 543 c 128,-1,27
 64 552 64 552 75 552 c 128,-1,28
 86 552 86 552 90 551 c 0,29,30
 213 516 213 516 299.5 419.5 c 128,-1,31
 386 323 386 323 390 193 c 1,32,33
 390 93 390 93 335 45.5 c 128,-1,34
 280 -2 280 -2 190 -2 c 0,35,36
 158.5 -2 158.5 -2 127 4 c 1,13,14
EndSplineSet
Substitution2: "'c2sc' Capitals to Small Capitals in Latin lookup 1 subtable" D.smcp
EndChar

StartChar: E
Encoding: 69 69 15
Width: 369
Flags: HW
HStem: 0 64<111 321.844> 278 62<110.328 306.204> 483 68<106 352.452>
VStem: 46 65<64 131.875 135.113 278 340 483>
LayerCount: 2
Fore
SplineSet
293 3 m 1,0,-1
 80 0 l 2,1,2
 61 0 61 0 53.5 7 c 128,-1,3
 46 14 46 14 46 31 c 1,4,5
 49 56 49 56 49 106 c 2,6,-1
 49 164 l 1,7,-1
 46 287 l 1,8,9
 34 294 34 294 34 309 c 128,-1,10
 34 324 34 324 43 334 c 1,11,12
 40 428 40 428 40 510 c 1,13,14
 45 530 45 530 55.5 539 c 128,-1,15
 66 548 66 548 86 551 c 1,16,17
 196 546 196 546 324 546 c 1,18,19
 356 539 356 539 356 518 c 0,20,21
 356 472.794117647 356 472.794117647 230 476.5 c 0,22,23
 213 477 213 477 193.5 477 c 128,-1,24
 174 477 174 477 106 483 c 1,25,26
 106 383 106 383 109 340 c 1,27,28
 176 339 176 339 279 339 c 1,29,30
 309 334 309 334 309 312 c 0,31,32
 309 300 309 300 299.5 289.5 c 128,-1,33
 290 279 290 279 276 276 c 1,34,-1
 132 278 l 2,35,36
 117 278 117 278 110 277 c 1,37,-1
 113 133 l 2,38,39
 113 85 113 85 111 64 c 1,40,-1
 304 67 l 1,41,42
 331 63 331 63 331 44 c 0,43,44
 331 31 331 31 319.5 19 c 128,-1,45
 308 7 308 7 293 3 c 1,0,-1
EndSplineSet
Substitution2: "'c2sc' Capitals to Small Capitals in Latin lookup 1 subtable" E.smcp
EndChar

StartChar: F
Encoding: 70 70 16
Width: 313
Flags: HW
HStem: 0 21G<149 181> 261 58<45.2161 134 193 288.902> 477 58<75.5692 254.917> 478 58<212.607 336.014> 523 20G<5 61>
VStem: 133 57<47.6569 259 319 479>
LayerCount: 2
Fore
SplineSet
199 45 m 0,0,1
 199 0 199 0 167.5 0 c 128,-1,2
 136 0 136 0 136 76 c 2,3,-1
 136 259 l 1,4,5
 86 259 86 259 61.5 258 c 128,-1,6
 37 257 37 257 37 276 c 0,7,8
 37 288 37 288 47 300 c 128,-1,9
 57 312 57 312 71 314 c 1,10,-1
 134 316 l 1,11,-1
 133 373 l 1,12,-1
 134 480 l 1,13,14
 101 481 101 481 78 483.5 c 128,-1,15
 55 486 55 486 13 486 c 0,16,17
 -15 486 -15 486 -15 509 c 0,18,19
 -15 520 -15 520 -7 530.5 c 128,-1,20
 1 541 1 541 14 543 c 1,21,22
 54 543 54 543 93 539 c 128,-1,23
 132 535 132 535 212 535 c 1,24,-1
 248 536 l 2,25,26
 264 537 264 537 270.5 536.5 c 128,-1,27
 277 536 277 536 287.5 535.5 c 0,28,29
 338 533.095238095 338 533.095238095 338 509.2 c 0,30,31
 338 496 338 496 328 486 c 128,-1,32
 318 476 318 476 303 476 c 2,33,-1
 263 478 l 1,34,-1
 232 477 l 2,35,36
 211 477 211 477 191 479 c 1,37,-1
 190 374 l 1,38,-1
 191 319 l 1,39,-1
 271 319 l 1,40,41
 293 315 293 315 293 297 c 0,42,43
 293 286 293 286 284 275.5 c 128,-1,44
 275 265 275 265 263 261 c 1,45,-1
 193 261 l 1,46,47
 199 141 199 141 199 45 c 0,0,1
EndSplineSet
Substitution2: "'c2sc' Capitals to Small Capitals in Latin lookup 1 subtable" F.smcp
EndChar

StartChar: G
Encoding: 71 71 17
Width: 400
Flags: HW
HStem: -1 68<166.087 277.208> 234 73<214.453 304.215> 480 73<199.676 340.507>
VStem: 37 69<146.356 367.895> 311 69<42.2782 232.576> 341 5<454.002 456>
LayerCount: 2
Fore
SplineSet
393 503 m 1,0,-1
 396 484 l 1,1,2
 396 470 396 470 385.5 460 c 128,-1,3
 375 450 375 450 363.5 450 c 128,-1,4
 352 450 352 450 346 456 c 1,5,-1
 346 454 l 1,6,7
 341 457 341 457 341 459 c 1,8,9
 307 480 307 480 269 480 c 0,10,11
 196 480 196 480 151 411.5 c 128,-1,12
 106 343 106 343 106 260.5 c 128,-1,13
 106 178 106 178 138.5 122.5 c 128,-1,14
 171 67 171 67 214 67 c 128,-1,15
 257 67 257 67 284 94.5 c 128,-1,16
 311 122 311 122 311 163 c 0,17,18
 311 234 311 234 286 234 c 2,19,-1
 261 234 l 2,20,21
 244 234 244 234 226.5 242.5 c 128,-1,22
 209 251 209 251 209 264.5 c 128,-1,23
 209 278 209 278 217.5 291 c 128,-1,24
 226 304 226 304 240 307 c 1,25,26
 347 307 347 307 363.5 249.5 c 128,-1,27
 380 192 380 192 380 83 c 0,28,29
 380 49 380 49 378.5 34.5 c 0,30,31
 374.931034483 -1.4921397451e-13 374.931034483 -1.4921397451e-13 347 0 c 0,32,33
 329 0 329 0 322.5 7.5 c 128,-1,34
 316 15 316 15 314 41 c 1,35,36
 294 23 294 23 263.5 11 c 128,-1,37
 233 -1 233 -1 209 -1 c 0,38,39
 132 -1 132 -1 84.5 80.5 c 128,-1,40
 37 162 37 162 37 256 c 0,41,42
 37 390 37 390 106 471.5 c 128,-1,43
 175 553 175 553 276 553 c 0,44,45
 343 553 343 553 393 503 c 1,0,-1
EndSplineSet
Substitution2: "'c2sc' Capitals to Small Capitals in Latin lookup 1 subtable" G.smcp
EndChar

StartChar: H
Encoding: 72 72 18
Width: 390
Flags: HW
HStem: 244 64<112.023 299> 535 7G<82.5 95.5 328 341.5>
VStem: 45 65<19.2747 254 315.942 532.25> 299 62<9.92952 246 309 550.633>
LayerCount: 2
Fore
SplineSet
359 533 m 1,0,-1
 361 227 l 2,1,2
 361 173 361 173 357 39 c 1,3,4
 355 23 355 23 342 12 c 128,-1,5
 329 1 329 1 316 1 c 0,6,7
 296 1 296 1 296 27 c 0,8,9
 299 120 299 120 299 188 c 2,10,-1
 299 246 l 1,11,12
 283 244 283 244 230 244 c 128,-1,13
 177 244 177 244 110 254 c 1,14,-1
 110 218 l 2,15,16
 110 122 110 122 120 36 c 1,17,18
 117 21 117 21 105 9 c 128,-1,19
 93 -3 93 -3 79 -3 c 128,-1,20
 65 -3 65 -3 57 16 c 1,21,22
 45 109 45 109 45 173.5 c 128,-1,23
 45 238 45 238 47 306 c 2,24,-1
 51 509 l 1,25,26
 55 522 55 522 67 532 c 128,-1,27
 79 542 79 542 90 542 c 0,28,29
 109 542 109 542 113 519 c 1,30,-1
 110 319 l 1,31,32
 178 308 178 308 231.5 308 c 128,-1,33
 285 308 285 308 299 309 c 1,34,35
 297 383 297 383 297 521 c 1,36,37
 300 534 300 534 312 544.5 c 128,-1,38
 324 555 324 555 336 555 c 0,39,40
 355 555 355 555 359 533 c 1,0,-1
EndSplineSet
Substitution2: "'c2sc' Capitals to Small Capitals in Latin lookup 1 subtable" H.smcp
EndChar

StartChar: I
Encoding: 73 73 19
Width: 196
Flags: HW
HStem: -1 21G<80.5 96> 518 20G<100.5 115>
VStem: 72 65<26.189 535.036>
LayerCount: 2
Fore
SplineSet
72 230 m 1,0,-1
 67 510 l 1,1,2
 70 522 70 522 83 530 c 128,-1,3
 96 538 96 538 112.5 538 c 128,-1,4
 129 538 129 538 133 519 c 1,5,-1
 137 230 l 1,6,7
 137 107 137 107 130 31 c 0,8,9
 129 18 129 18 115 8.5 c 128,-1,10
 101 -1 101 -1 87 -1 c 0,11,12
 63 -1 63 -1 63 23 c 1,13,14
 72 110 72 110 72 230 c 1,0,-1
EndSplineSet
Substitution2: "'c2sc' Capitals to Small Capitals in Latin lookup 1 subtable" I.smcp
EndChar

StartChar: J
Encoding: 74 74 20
Width: 309
Flags: HW
HStem: -3 59<123.073 201.042> 537 20G<231.5 246.5>
VStem: 29 61<88.6543 182.11> 223 61<76.7487 440.708>
LayerCount: 2
Fore
SplineSet
29 153 m 1,0,1
 30 166 30 166 42.5 176.5 c 128,-1,2
 55 187 55 187 69.5 187 c 128,-1,3
 84 187 84 187 90 170 c 1,4,5
 91 162 91 162 92.5 146.5 c 0,6,7
 94.2195121951 128.731707317 94.2195121951 128.731707317 99.2480539699 111.131811105 c 128,-1,8
 104.276595745 93.5319148936 104.276595745 93.5319148936 124 76 c 1,9,10
 149 56 149 56 164.5 56 c 128,-1,11
 180 56 180 56 190.5 63.5 c 128,-1,12
 201 71 201 71 206.5 86 c 0,13,14
 219.695067265 121.986547085 219.695067265 121.986547085 221.347533632 159.993273543 c 128,-1,15
 223 198 223 198 223 229.5 c 128,-1,16
 223 261 223 261 219.5 308 c 128,-1,17
 216 355 216 355 208 432.5 c 128,-1,18
 200 510 200 510 199 526 c 1,19,20
 200 538 200 538 213 547.5 c 128,-1,21
 226 557 226 557 243 557 c 128,-1,22
 260 557 260 557 266 540 c 1,23,24
 284 299 284 299 284 237 c 128,-1,25
 284 175 284 175 282.5 151 c 128,-1,26
 281 127 281 127 274 95 c 128,-1,27
 267 63 267 63 255 44 c 128,-1,28
 243 25 243 25 219 11 c 128,-1,29
 195 -3 195 -3 160.5 -3 c 0,30,31
 89.2941176471 -3 89.2941176471 -3 61.5 49.5 c 0,32,33
 38.3349753695 93.2561576355 38.3349753695 93.2561576355 29 153 c 1,0,1
EndSplineSet
Substitution2: "'c2sc' Capitals to Small Capitals in Latin lookup 1 subtable" J.smcp
EndChar

StartChar: K
Encoding: 75 75 21
Width: 436
Flags: HW
HStem: 532 20G<69.5 86 359.5 374>
VStem: 60 68<8.13232 218.679 287 329.054>
LayerCount: 2
Fore
SplineSet
60 30 m 2,0,-1
 61 95 l 1,1,2
 61 192 61 192 51 319 c 1,3,4
 46 460 46 460 39 506 c 1,5,6
 39 524 39 524 51.5 538 c 128,-1,7
 64 552 64 552 80 552 c 0,8,9
 100 552 100 552 107 527 c 1,10,11
 119 447 119 447 123 287 c 1,12,13
 196 354 196 354 238 403.5 c 128,-1,14
 280 453 280 453 327 531 c 0,15,16
 340 553 340 553 366 553 c 0,17,18
 379 553 379 553 388 546 c 128,-1,19
 397 539 397 539 397 529 c 128,-1,20
 397 519 397 519 391 507 c 1,21,22
 326 399 326 399 250 310 c 1,23,24
 302 259 302 259 337.5 201.5 c 128,-1,25
 373 144 373 144 419 54 c 0,26,27
 420 51 420 51 420 39 c 128,-1,28
 420 27 420 27 410 14.5 c 128,-1,29
 400 2 400 2 386 2 c 128,-1,30
 372 2 372 2 361 13 c 1,31,32
 330 74 330 74 313 105.5 c 128,-1,33
 296 137 296 137 263.5 184 c 128,-1,34
 231 231 231 231 197 263 c 1,35,36
 150 218 150 218 127 201 c 1,37,38
 128 174 128 174 128 145 c 128,-1,39
 128 116 128 116 128.5 100.5 c 128,-1,40
 129 85 129 85 128.5 77 c 128,-1,41
 128 69 128 69 127 55 c 0,42,43
 125.697247706 36.7614678899 125.697247706 36.7614678899 116.230976794 18.880733945 c 128,-1,44
 106.764705882 1 106.764705882 1 83 1 c 0,45,46
 60 1 60 1 60 30 c 2,0,-1
EndSplineSet
Substitution2: "'c2sc' Capitals to Small Capitals in Latin lookup 1 subtable" K.smcp
EndChar

StartChar: L
Encoding: 76 76 22
Width: 310
Flags: HW
HStem: 1 60<89.3676 253.637> 531 20G<58 78>
VStem: 23 61<62.8259 402.638> 31 78<289.75 547.735>
LayerCount: 2
Fore
SplineSet
23 181 m 1,0,-1
 31 529 l 2,1,2
 31 551 31 551 67 551 c 0,3,4
 85 551 85 551 97 543 c 128,-1,5
 109 535 109 535 109 520 c 1,6,7
 107 493 107 493 95.5 379.4375 c 0,8,9
 84 265.875 84 265.875 84 193.4375 c 128,-1,10
 84 121 84 121 90 61 c 1,11,12
 92.8 60.8666666667 92.8 60.8666666667 96.3022222222 60.8666666667 c 2,13,-1
 256 73 l 1,14,15
 287 73 287 73 287 44 c 0,16,17
 287 20.3043478261 287 20.3043478261 261.055555556 10.152173913 c 0,18,19
 235.111111111 8.881784197e-16 235.111111111 8.881784197e-16 182 0 c 2,20,-1
 127 1 l 1,21,-1
 80.5 0 l 2,22,23
 50.5 0 50.5 0 41.75 5 c 128,-1,24
 33 10 33 10 30 17 c 1,25,26
 23 93 23 93 23 181 c 1,0,-1
EndSplineSet
Substitution2: "'c2sc' Capitals to Small Capitals in Latin lookup 1 subtable" L.smcp
EndChar

StartChar: M
Encoding: 77 77 23
Width: 496
Flags: HW
HStem: -1 21G<62 77 409 444.5> 258 71<180.395 293.537> 535 20G<422 436.5>
VStem: 46 68<7.84058 306 415.611 509.962> 390 66<151.951 369 453.051 549.125>
LayerCount: 2
Fore
SplineSet
393 27 m 2,0,-1
 394 106 l 2,1,2
 394 156 394 156 392 248.5 c 128,-1,3
 390 341 390 341 390 369 c 1,4,5
 325 258 325 258 216 258 c 0,6,7
 153 258 153 258 114 306 c 1,8,-1
 114 132 l 2,9,10
 114 70 114 70 113 39 c 1,11,12
 110 22 110 22 96 10.5 c 128,-1,13
 82 -1 82 -1 68 -1 c 0,14,15
 46 -1 46 -1 46 27 c 2,16,-1
 50 339 l 1,17,-1
 49 473 l 2,18,19
 49 487 49 487 58.5 500.5 c 128,-1,20
 68 514 68 514 83.5 514 c 128,-1,21
 99 514 99 514 117 489 c 1,22,23
 128 426 128 426 149 386.5 c 128,-1,24
 170 347 170 347 217 329 c 1,25,26
 291 329 291 329 329 380.5 c 128,-1,27
 367 432 367 432 387 520 c 1,28,29
 392 534 392 534 405 544.5 c 128,-1,30
 418 555 418 555 431 555 c 0,31,32
 451 555 451 555 456 529 c 1,33,-1
 461 146 l 1,34,-1
 462 93 l 2,35,36
 462 53.5 462 53.5 458.5 41.25 c 128,-1,37
 455 29 455 29 450 19 c 0,38,39
 440 -1 440 -1 415 -1 c 0,40,41
 393 -1 393 -1 393 27 c 2,0,-1
EndSplineSet
Substitution2: "'c2sc' Capitals to Small Capitals in Latin lookup 1 subtable" M.smcp
EndChar

StartChar: O
Encoding: 79 79 24
Width: 464
Flags: HW
HStem: 1 75<184.273 299.947> 487 69<168.402 312.361>
VStem: 35 67<190.196 415.021> 364 70<161.951 427.77>
LayerCount: 2
Fore
SplineSet
314 110 m 0,0,1
 364 170.714285714 364 170.714285714 364 308 c 0,2,3
 364 487 364 487 249 487 c 0,4,5
 172 487 172 487 137 439 c 128,-1,6
 102 391 102 391 102 321.586206897 c 0,7,8
 102 252.172413793 102 252.172413793 128.5 174.5 c 0,9,10
 143 132 143 132 173.5 104 c 128,-1,11
 204 76 204 76 245 76 c 128,-1,12
 286 76 286 76 314 110 c 0,0,1
254 556 m 0,13,14
 341 556 341 556 387.5 481 c 128,-1,15
 434 406 434 406 434 295 c 128,-1,16
 434 184 434 184 381.5 94.5 c 128,-1,17
 329 5 329 5 240 1 c 1,18,19
 183 1 183 1 140 34 c 128,-1,20
 97 67 97 67 75.5 117.5 c 0,21,22
 35 212.627906977 35 212.627906977 35 314.313953488 c 128,-1,23
 35 416 35 416 89.5 486 c 128,-1,24
 144 556 144 556 254 556 c 0,13,14
EndSplineSet
Substitution2: "'c2sc' Capitals to Small Capitals in Latin lookup 1 subtable" O.smcp
EndChar

StartChar: P
Encoding: 80 80 25
Width: 401
Flags: HW
HStem: 0 21G<84 106> 252 60<113 278.095> 482 69<111.062 294.279>
VStem: 41 66<314.186 479.593> 44 72<26.4238 253 391.407 481> 326 71<356.495 454.769>
LayerCount: 2
Fore
SplineSet
110 481 m 1,0,1
 107 436 107 436 107 401 c 128,-1,2
 107 366 107 366 109 316 c 1,3,4
 149 312 149 312 175 312 c 0,5,6
 326 312 326 312 326 427 c 0,7,8
 326 456 326 456 273.5 469 c 128,-1,9
 221 482 221 482 172 482 c 128,-1,10
 123 482 123 482 110 481 c 1,0,1
43 301 m 1,11,-1
 41 354 l 1,12,13
 41 407 41 407 47 507 c 1,14,15
 58 551 58 551 169 551 c 0,16,17
 252.76 551 252.76 551 319.5 527.5 c 0,18,19
 397 500.211267606 397 500.211267606 397 420.5 c 0,20,21
 397 378 397 378 374 342.5 c 128,-1,22
 351 307 351 307 312 288 c 0,23,24
 238.105263158 252 238.105263158 252 142 252 c 0,25,26
 122 252 122 252 113 253 c 1,27,28
 116 94 116 94 116 89 c 128,-1,29
 116 84 116 84 116.5 67 c 0,30,31
 117.288659794 40.1855670103 117.288659794 40.1855670103 113.10266323 20.0927835052 c 128,-1,32
 108.916666667 -4.4408920985e-14 108.916666667 -4.4408920985e-14 87 0 c 0,33,34
 78 0 78 0 68.5 2.5 c 128,-1,35
 59 5 59 5 54.5 24.5 c 0,36,37
 44 70 44 70 44 263 c 1,38,39
 33 272 33 272 33 280.5 c 128,-1,40
 33 289 33 289 43 301 c 1,11,-1
EndSplineSet
Substitution2: "'c2sc' Capitals to Small Capitals in Latin lookup 1 subtable" P.smcp
EndChar

StartChar: Q
Encoding: 81 81 26
Width: 546
Flags: HW
HStem: -1 21G<455.5 476.5> 489 65<183.458 336.532>
VStem: 41 69<162.283 385.357> 443 61<159.204 365.121>
LayerCount: 2
Fore
SplineSet
266 60 m 1,0,1
 332 66 332 66 370 94 c 1,2,-1
 304 170 l 2,3,4
 278.962962963 199.851851852 278.962962963 199.851851852 278.962962963 215.409090909 c 128,-1,5
 278.962962963 230.966329966 278.962962963 230.966329966 290 241 c 128,-1,6
 301 251 301 251 312.5 251 c 128,-1,7
 324 251 324 251 335.5 243.5 c 128,-1,8
 347 236 347 236 359 222.5 c 128,-1,9
 371 209 371 209 380.5 197.5 c 128,-1,10
 390 186 390 186 401.5 170 c 128,-1,11
 413 154 413 154 417 150 c 1,12,13
 443 197 443 197 443 254 c 0,14,15
 443 348 443 348 392 418.5 c 128,-1,16
 341 489 341 489 254 489 c 0,17,18
 203 489 203 489 169 455 c 0,19,20
 110 396 110 396 110 280 c 0,21,22
 110 192 110 192 148 128.5 c 128,-1,23
 186 65 186 65 266 60 c 1,0,1
454 106 m 1,24,25
 504 56 504 56 504 39 c 128,-1,26
 504 22 504 22 492.5 10.5 c 128,-1,27
 481 -1 481 -1 470.5 -1 c 128,-1,28
 460 -1 460 -1 453 2.5 c 128,-1,29
 446 6 446 6 438 14 c 128,-1,30
 430 22 430 22 425.5 27 c 128,-1,31
 421 32 421 32 411.5 43.5 c 128,-1,32
 402 55 402 55 401 56 c 1,33,34
 342 5 342 5 256 -3 c 1,35,36
 159 4 159 4 100 82.5 c 128,-1,37
 41 161 41 161 41 267 c 128,-1,38
 41 373 41 373 102 463.5 c 128,-1,39
 163 554 163 554 268.5 554 c 128,-1,40
 374 554 374 554 439 468 c 128,-1,41
 504 382 504 382 504 266 c 0,42,43
 504 180 504 180 454 106 c 1,24,25
EndSplineSet
Substitution2: "'c2sc' Capitals to Small Capitals in Latin lookup 1 subtable" Q.smcp
EndChar

StartChar: R
Encoding: 82 82 27
Width: 379
Flags: HW
HStem: 486 67<97.9441 258.952>
VStem: 33 63<1.375 196 286 479.171> 283 64<-0.443096 47.4744> 291 64<373.708 456.497>
LayerCount: 2
Fore
SplineSet
97 474 m 1,0,1
 96 410 96 410 96 286 c 1,2,3
 135 291 135 291 163 301.5 c 128,-1,4
 191 312 191 312 241 347.5 c 128,-1,5
 291 383 291 383 291 416 c 128,-1,6
 291 449 291 449 254.5 467.5 c 128,-1,7
 218 486 218 486 171 486 c 128,-1,8
 124 486 124 486 97 474 c 1,0,1
99 36 m 1,9,10
 96 20 96 20 84 8.5 c 128,-1,11
 72 -3 72 -3 57.5 -3 c 128,-1,12
 43 -3 43 -3 36 17 c 1,13,14
 33 126.5 33 126.5 33 236 c 2,15,-1
 33 416 l 1,16,17
 31 436 31 436 31 446 c 0,18,19
 31 487 31 487 58.5 512.5 c 128,-1,20
 86 538 86 538 119 545.5 c 128,-1,21
 152 553 152 553 197 553 c 128,-1,22
 242 553 242 553 298.5 516.5 c 128,-1,23
 355 480 355 480 355 427.5 c 128,-1,24
 355 375 355 375 290 319 c 128,-1,25
 225 263 225 263 154 239 c 1,26,27
 218 195 218 195 272 141 c 128,-1,28
 326 87 326 87 346 39 c 0,29,30
 347 36 347 36 347 26 c 128,-1,31
 347 16 347 16 336.5 6.5 c 128,-1,32
 326 -3 326 -3 310.5 -3 c 128,-1,33
 295 -3 295 -3 283 10 c 1,34,35
 247 97 247 97 94 196 c 1,36,-1
 99 36 l 1,9,10
EndSplineSet
Substitution2: "'c2sc' Capitals to Small Capitals in Latin lookup 1 subtable" R.smcp
EndChar

StartChar: S
Encoding: 83 83 28
Width: 383
Flags: HW
HStem: 0 70<127.626 267.409> 493 59<132.856 284.719>
VStem: 28 71<376.233 462.462> 300 67<103.453 237.458>
LayerCount: 2
Fore
SplineSet
72 117 m 1,0,-1
 80 116 l 1,1,2
 160 70 160 70 204 70 c 128,-1,3
 248 70 248 70 274 97 c 128,-1,4
 300 124 300 124 300 182 c 0,5,6
 300 222 300 222 272 242.5 c 128,-1,7
 244 263 244 263 204 271 c 128,-1,8
 164 279 164 279 124 289.5 c 128,-1,9
 84 300 84 300 56 332 c 128,-1,10
 28 364 28 364 28 423.5 c 128,-1,11
 28 483 28 483 87 517.5 c 128,-1,12
 146 552 146 552 228.5 552 c 128,-1,13
 311 552 311 552 341 513 c 1,14,15
 352 497 352 497 352 484.5 c 128,-1,16
 352 472 352 472 343.5 464 c 128,-1,17
 335 456 335 456 324 456 c 128,-1,18
 313 456 313 456 279 474.5 c 128,-1,19
 245 493 245 493 208 493 c 128,-1,20
 171 493 171 493 135 473 c 128,-1,21
 99 453 99 453 99 420.5 c 128,-1,22
 99 388 99 388 126.5 370.5 c 128,-1,23
 154 353 154 353 193.5 345 c 128,-1,24
 233 337 233 337 272.5 325 c 128,-1,25
 312 313 312 313 339.5 278.5 c 128,-1,26
 367 244 367 244 367 177.5 c 128,-1,27
 367 111 367 111 315 55.5 c 128,-1,28
 263 0 263 0 186 0 c 0,29,30
 154.428571429 0 154.428571429 0 132.714285714 9.5 c 128,-1,31
 111 19 111 19 101.5 23.5 c 128,-1,32
 92 28 92 28 70.5 40 c 128,-1,33
 49 52 49 52 40 57 c 1,34,35
 29 67 29 67 29 81 c 128,-1,36
 29 95 29 95 42 106 c 128,-1,37
 55 117 55 117 72 117 c 1,0,-1
EndSplineSet
Substitution2: "'c2sc' Capitals to Small Capitals in Latin lookup 1 subtable" S.smcp
EndChar

StartChar: T
Encoding: 84 84 29
Width: 390
Flags: HW
HStem: 481 60<5.57182 166.199> 494 60<228.465 396.941>
VStem: 161 61<0.00637436 483.587>
LayerCount: 2
Fore
SplineSet
222 323 m 1,0,-1
 226 33 l 1,1,2
 224 18 224 18 212 7.5 c 128,-1,3
 200 -3 200 -3 187 -3 c 0,4,5
 166 -3 166 -3 166 24 c 2,6,-1
 161 294 l 1,7,8
 161 390 161 390 169 487 c 1,9,10
 97 481 97 481 29 481 c 0,11,12
 1 481 1 481 1 503 c 0,13,14
 1 516 1 516 11.5 527.5 c 128,-1,15
 22 539 22 539 37 541 c 1,16,17
 97 541 97 541 207.5 547.5 c 128,-1,18
 318 554 318 554 377 554 c 1,19,20
 401 547 401 547 401 530 c 0,21,22
 401 519 401 519 391 508 c 128,-1,23
 381 497 381 497 367 494 c 1,24,25
 305 494 305 494 227 491 c 1,26,27
 222 411 222 411 222 323 c 1,0,-1
EndSplineSet
Substitution2: "'c2sc' Capitals to Small Capitals in Latin lookup 1 subtable" T.smcp
EndChar

StartChar: U
Encoding: 85 85 30
Width: 459
Flags: HW
HStem: 0 65<198.444 299.403> 524 20G<75 88.5 377.5 391.5>
VStem: 29 65<207.051 511.757> 36 64<191.189 327.547 331.859 341.688 345.766 532.774> 361 64<151.246 508.843>
LayerCount: 2
Fore
SplineSet
425 378 m 1,0,-1
 425.75 311.5 l 2,1,2
 425.75 300.5 425.75 300.5 425.375 292.25 c 128,-1,3
 425 284 425 284 424 256 c 0,4,5
 422.829787234 223.234042553 422.829787234 223.234042553 412.586535408 177.139409336 c 128,-1,6
 402.343283582 131.044776119 402.343283582 131.044776119 381 100 c 1,7,8
 355 52 355 52 314 26 c 128,-1,9
 273 0 273 0 237 0 c 0,10,11
 166 0 166 0 108 74.5 c 128,-1,12
 50 149 50 149 36 237 c 0,13,14
 29 279 29 279 29 323.5 c 128,-1,15
 29 368 29 368 41 510 c 1,16,17
 46 524 46 524 58.5 534 c 128,-1,18
 71 544 71 544 83 544 c 0,19,20
 102 544 102 544 106 519 c 1,21,22
 94 380 94 380 94 336.5 c 128,-1,23
 94 293 94 293 100 261 c 0,24,25
 111 193 111 193 156.5 129 c 128,-1,26
 202 65 202 65 252 65 c 128,-1,27
 302 65 302 65 340 147 c 1,28,29
 353.132231405 171.388429752 353.132231405 171.388429752 355.066115702 191.694214876 c 128,-1,30
 357 212 357 212 357.5 232 c 128,-1,31
 358 252 358 252 359 261 c 2,32,-1
 361 371 l 1,33,34
 361 450 361 450 349 511 c 1,35,36
 349 528 349 528 361 541.5 c 128,-1,37
 373 555 373 555 387 555 c 128,-1,38
 401 555 401 555 411 541 c 1,39,40
 425 471 425 471 425 378 c 1,0,-1
EndSplineSet
Substitution2: "'c2sc' Capitals to Small Capitals in Latin lookup 1 subtable" U.smcp
EndChar

StartChar: V
Encoding: 86 86 31
Width: 469
Flags: HW
HStem: 532 20G<406 450.5>
VStem: 51 68<464.209 521.503>
LayerCount: 2
Fore
SplineSet
102.5 362.5 m 128,-1,1
 65 445 65 445 58 460.5 c 128,-1,2
 51 476 51 476 51 488.5 c 128,-1,3
 51 501 51 501 63.5 514 c 128,-1,4
 76 527 76 527 91.5 527 c 128,-1,5
 107 527 107 527 119 511 c 1,6,7
 261 182 261 182 279 137 c 1,8,9
 284 155 284 155 293.5 194.5 c 128,-1,10
 303 234 303 234 311.5 268.5 c 128,-1,11
 320 303 320 303 332 346.5 c 0,12,13
 353.358024691 423.922839506 353.358024691 423.922839506 382.752782837 487.961419753 c 128,-1,14
 412.147540984 552 412.147540984 552 444 552 c 0,15,16
 468 552 468 552 468 530 c 0,17,18
 468 520 468 520 458 502 c 128,-1,19
 448 484 448 484 431.5 432.5 c 128,-1,20
 415 381 415 381 410 369 c 1,21,22
 400 335 400 335 371.111111111 228.833333333 c 128,-1,23
 342.222222222 122.666666667 342.222222222 122.666666667 310 26 c 0,24,25
 306 13 306 13 294.5 4 c 128,-1,26
 283 -5 283 -5 268 -5 c 128,-1,27
 253 -5 253 -5 246 16 c 0,28,29
 207.193396226 128.33490566 207.193396226 128.33490566 173.596698113 204.16745283 c 128,-1,0
 140 280 140 280 102.5 362.5 c 128,-1,1
EndSplineSet
Substitution2: "'c2sc' Capitals to Small Capitals in Latin lookup 1 subtable" V.smcp
EndChar

StartChar: W
Encoding: 87 87 32
Width: 514
Flags: HW
HStem: 0 21G<93.5 119 382 393.5> 523 20G<54.5 69.5 470.5 484>
VStem: 24 65<293.139 536.888> 439 64<340.875 550.25>
LayerCount: 2
Fore
SplineSet
24 499 m 1,0,1
 24 516 24 516 36.5 529.5 c 128,-1,2
 49 543 49 543 64 543 c 0,3,4
 83 543 83 543 89 519 c 1,5,6
 111 247 111 247 134 119 c 1,7,8
 145 138 145 138 170 199.5 c 128,-1,9
 195 261 195 261 218 300 c 128,-1,10
 241 339 241 339 262 339 c 0,11,12
 275.5 339 275.5 339 286 324 c 1,13,14
 338 175 338 175 376 114 c 1,15,16
 431 397 431 397 439 521 c 1,17,18
 443 535 443 535 454.5 545.5 c 128,-1,19
 466 556 466 556 479 556 c 0,20,21
 497 556 497 556 503 531 c 1,22,23
 496.235059761 426.143426295 496.235059761 426.143426295 485.61752988 364.071713147 c 128,-1,24
 475 302 475 302 471.5 280 c 128,-1,25
 468 258 468 258 459.5 215.5 c 2,26,-1
 447.5 155.5 l 2,27,28
 439 113 439 113 421 29 c 1,29,30
 409 0 409 0 386 0 c 0,31,32
 373 0 373 0 363 10 c 1,33,34
 319.379310345 70.6896551724 319.379310345 70.6896551724 288.689655172 144.344827586 c 128,-1,35
 258 218 258 218 249 236 c 1,36,37
 229 199 229 199 197.5 126.5 c 128,-1,38
 166 54 166 54 147 19 c 1,39,40
 131 0 131 0 113 0 c 0,41,42
 75 0 75 0 54 210 c 1,43,44
 37 358 37 358 24 499 c 1,0,1
EndSplineSet
Substitution2: "'c2sc' Capitals to Small Capitals in Latin lookup 1 subtable" W.smcp
EndChar

StartChar: X
Encoding: 88 88 33
Width: 501
Flags: HW
HStem: -2 21G<381 396> 532 20G<447.5 460.5>
LayerCount: 2
Fore
SplineSet
77 6 m 1,0,1
 63 -4 63 -4 49 -4 c 0,2,3
 24 -4 24 -4 24 22 c 0,4,5
 24 34 24 34 31 47 c 1,6,7
 183 219 183 219 200 240 c 1,8,9
 93 406 93 406 56 471 c 0,10,11
 52 479 52 479 52 492 c 128,-1,12
 52 505 52 505 63.5 517.5 c 128,-1,13
 75 530 75 530 91 530 c 128,-1,14
 107 530 107 530 116 516 c 0,15,16
 189 395 189 395 250 300 c 1,17,18
 337 402 337 402 414 527 c 0,19,20
 429 552 429 552 453.5 552 c 128,-1,21
 478 552 478 552 478 528 c 0,22,23
 478 520 478 520 473 507 c 1,24,25
 414 408 414 408 287 246 c 1,26,27
 359 130 359 130 419 60 c 1,28,29
 426 48 426 48 426 35.5 c 128,-1,30
 426 23 426 23 413.5 10.5 c 128,-1,31
 401 -2 401 -2 386 -2 c 128,-1,32
 371 -2 371 -2 361 7 c 1,33,34
 323 54 323 54 236 187 c 1,35,36
 186 128 186 128 77 6 c 1,0,1
EndSplineSet
Substitution2: "'c2sc' Capitals to Small Capitals in Latin lookup 1 subtable" X.smcp
EndChar

StartChar: Y
Encoding: 89 89 34
Width: 369
Flags: HW
HStem: 535 19G<42 61.5 331 342>
VStem: 146 57<4.76172 278.689>
LayerCount: 2
Fore
SplineSet
146 93 m 1,0,-1
 148 202 l 2,1,2
 148 243 148 243 144 280 c 1,3,4
 105 338 105 338 20 507 c 0,5,6
 17 513 17 513 17 523 c 128,-1,7
 17 533 17 533 27.5 543.5 c 128,-1,8
 38 554 38 554 49 554 c 128,-1,9
 60 554 60 554 75.5 532 c 128,-1,10
 91 510 91 510 113.5 468 c 128,-1,11
 136 426 136 426 139 421 c 128,-1,12
 142 416 142 416 158.5 384.5 c 128,-1,13
 175 353 175 353 181 344 c 1,14,-1
 219 411 l 1,15,16
 262 489 262 489 309 544 c 1,17,18
 321 555 321 555 335 555 c 0,19,20
 359 555 359 555 359 531 c 0,21,22
 359 523.5 359 523.5 356 516 c 1,23,24
 320.969432314 473.462882096 320.969432314 473.462882096 290.984716157 421.231441048 c 0,25,26
 226.125 308.25 226.125 308.25 207 270 c 1,27,-1
 203 101 l 2,28,29
 203 72 203 72 206 37 c 1,30,31
 203 23 203 23 192.5 12.5 c 128,-1,32
 182 2 182 2 171 2 c 0,33,34
 146 2 146 2 146 62.5 c 2,35,-1
 146 93 l 1,0,-1
EndSplineSet
Substitution2: "'c2sc' Capitals to Small Capitals in Latin lookup 1 subtable" Y.smcp
EndChar

StartChar: Z
Encoding: 90 90 35
Width: 423
Flags: HW
HStem: -2 63<107 386.75> 260 63<306 360.409> 296 59<81.1528 125.86> 491 63<38.0071 286.065>
LayerCount: 2
Fore
SplineSet
136 -2 m 1,0,-1
 64 -3 l 2,1,2
 49 -3 49 -3 43 3 c 128,-1,3
 37 9 37 9 37 24 c 1,4,5
 49.0978670013 94.5708908407 49.0978670013 94.5708908407 70.5489335006 127.78544542 c 128,-1,6
 92 161 92 161 103.5 176 c 128,-1,7
 115 191 115 191 140 219.5 c 128,-1,8
 165 248 165 248 180 266 c 1,9,10
 127 274 127 274 87 296 c 1,11,12
 77 306 77 306 77 319 c 128,-1,13
 77 332 77 332 89.5 343.5 c 128,-1,14
 102 355 102 355 118 355 c 1,15,-1
 126 354 l 1,16,17
 156 338 156 338 233 330 c 1,18,19
 307 425 307 425 331 469 c 1,20,21
 233 491 233 491 59 491 c 0,22,23
 31 491 31 491 31 512 c 0,24,25
 31 525 31 525 42.5 538.5 c 128,-1,26
 54 552 54 552 69 554 c 1,27,28
 145 554 145 554 244 545.5 c 128,-1,29
 343 537 343 537 391 520 c 1,30,31
 406 510 406 510 406 495 c 2,32,-1
 406 489 l 1,33,34
 368 405 368 405 306 323 c 1,35,36
 329 323 329 323 341 324 c 1,37,38
 365 320 365 320 365 300.1 c 128,-1,39
 365 280.2 365 280.2 354 273.6 c 128,-1,40
 343 267 343 267 336 264.5 c 128,-1,41
 329 262 329 262 316 261 c 128,-1,42
 303 260 303 260 296 259.5 c 128,-1,43
 289 259 289 259 274.5 259.5 c 128,-1,44
 260 260 260 260 256 260 c 1,45,46
 236 237 236 237 198 201.5 c 128,-1,47
 160 166 160 166 141 138.5 c 128,-1,48
 122 111 122 111 107 63 c 1,49,-1
 251 61 l 1,50,51
 324 61 324 61 373 67 c 1,52,53
 397 63 397 63 397 41.2916666667 c 0,54,55
 397 -3 397 -3 291 -3 c 1,56,-1
 233 -2 l 1,57,-1
 136 -2 l 1,0,-1
EndSplineSet
Substitution2: "'c2sc' Capitals to Small Capitals in Latin lookup 1 subtable" Z.smcp
EndChar

StartChar: a
Encoding: 97 97 36
Width: 383
Flags: HW
HStem: 0 62<133.075 222.897> 313 73<142.835 245.423>
VStem: 47 64<85.1907 276.827> 260 66<101.886 299.438>
LayerCount: 2
Fore
SplineSet
244 113 m 0,0,1
 260 159 260 159 260 211.5 c 128,-1,2
 260 264 260 264 247.5 288.5 c 128,-1,3
 235 313 235 313 203 313 c 0,4,5
 190 313 190 313 168.5 310.5 c 128,-1,6
 147 308 147 308 129 273 c 128,-1,7
 111 238 111 238 111 214 c 2,8,-1
 111 181 l 2,9,10
 111 62 111 62 172 62 c 0,11,12
 193 62 193 62 214.5 77 c 128,-1,13
 236 92 236 92 244 113 c 0,0,1
339 11 m 1,14,15
 334 -9 334 -9 303.318181818 -9 c 0,16,17
 272.636363636 -9 272.636363636 -9 268 16.5 c 0,18,19
 266 27.5 266 27.5 266 41 c 1,20,21
 227 0 227 0 165 0 c 0,22,23
 47 0 47 0 47 182 c 0,24,25
 47 256.266666667 47 256.266666667 75 316 c 0,26,27
 90 348 90 348 120.5 367 c 128,-1,28
 151 386 151 386 189 386 c 128,-1,29
 227 386 227 386 260 374 c 1,30,31
 270 389 270 389 289.866666667 389 c 0,32,33
 309.733333333 389 309.733333333 389 314.866666667 378 c 128,-1,34
 320 367 320 367 322.5 360.5 c 128,-1,35
 325 354 325 354 325.5 341.5 c 128,-1,36
 326 329 326 329 326.5 322 c 128,-1,37
 327 315 327 315 326.5 301 c 128,-1,38
 326 287 326 287 326 254 c 128,-1,39
 326 221 326 221 320 170 c 1,40,41
 325 81 325 81 339 11 c 1,14,15
EndSplineSet
Substitution2: "'smcp' Lowercase to Small Capitals in Latin lookup 0 subtable" A.smcp
EndChar

StartChar: b
Encoding: 98 98 37
Width: 344
Flags: HW
HStem: -1 70<127.447 219.449> 315 76<116 216.419>
VStem: 47 60<391.042 591.005> 56 71<69.4803 277.781> 262 61<115.054 269.78>
LayerCount: 2
Fore
SplineSet
179 311 m 1,0,1
 157 315 157 315 143 315 c 128,-1,2
 129 315 129 315 116 310 c 1,3,4
 120 259 120 259 127 74 c 1,5,6
 142 69 142 69 159 69 c 0,7,8
 205 69 205 69 233.5 104.5 c 128,-1,9
 262 140 262 140 262 188.5 c 0,10,11
 262 291.238095238 262 291.238095238 179 311 c 1,0,1
111 573 m 1,12,-1
 107 456 l 2,13,14
 107 438 107 438 110 386 c 1,15,16
 127 391 127 391 154 391 c 0,17,18
 230 391 230 391 276.5 336 c 128,-1,19
 323 281 323 281 323 200 c 128,-1,20
 323 119 323 119 274 59 c 128,-1,21
 225 -1 225 -1 140.5 -1 c 128,-1,22
 56 -1 56 -1 56 46 c 0,23,24
 56 119 56 119 51.5 251.5 c 128,-1,25
 47 384 47 384 47 563 c 1,26,27
 51 577 51 577 63 587 c 128,-1,28
 75 597 75 597 88 597 c 0,29,30
 107 597 107 597 111 573 c 1,12,-1
EndSplineSet
Substitution2: "'smcp' Lowercase to Small Capitals in Latin lookup 0 subtable" B.smcp
EndChar

StartChar: c
Encoding: 99 99 38
Width: 324
Flags: HW
HStem: 0 74<118.745 241.305> 319 70<144.609 291.158>
VStem: 21 72<100.555 268.004>
LayerCount: 2
Fore
SplineSet
82.5 335.5 m 128,-1,1
 144 389 144 389 227.5 389 c 128,-1,2
 311 389 311 389 311 353.5 c 0,3,4
 311 340 311 340 301 320 c 128,-1,5
 291 300 291 300 279.5 300 c 128,-1,6
 268 300 268 300 244 309.5 c 128,-1,7
 220 319 220 319 210 319 c 0,8,9
 163 319 163 319 128 284.5 c 128,-1,10
 93 250 93 250 93 192 c 128,-1,11
 93 134 93 134 111 104 c 128,-1,12
 129 74 129 74 177 74 c 0,13,14
 202 74 202 74 242 95.5 c 128,-1,15
 282 117 282 117 294 117 c 128,-1,16
 306 117 306 117 312.5 110 c 128,-1,17
 319 103 319 103 319 93 c 0,18,19
 319 62 319 62 265.5 31 c 128,-1,20
 212 0 212 0 163 0 c 0,21,22
 96 0 96 0 58.5 53 c 128,-1,23
 21 106 21 106 21 194 c 128,-1,0
 21 282 21 282 82.5 335.5 c 128,-1,1
EndSplineSet
Substitution2: "'smcp' Lowercase to Small Capitals in Latin lookup 0 subtable" C.smcp
EndChar

StartChar: d
Encoding: 100 100 39
Width: 357
Flags: HW
HStem: 1 68<129.492 240.43> 316 75<132.483 234.513>
VStem: 29 68<102.429 269.523> 238 63<390 594.674> 250 68<80.3664 299.798> 257 60<-4.67188 29>
LayerCount: 2
Fore
SplineSet
250 180 m 2,0,-1
 250 196 l 2,1,2
 250 241 250 241 240 278.5 c 128,-1,3
 230 316 230 316 213 316 c 0,4,5
 141 316 141 316 124 293 c 0,6,7
 97 258 97 258 97 177 c 0,8,9
 97 136 97 136 118.5 102.5 c 128,-1,10
 140 69 140 69 185 69 c 0,11,12
 203 69 203 69 222 77.5 c 128,-1,13
 241 86 241 86 245.5 99 c 128,-1,14
 250 112 250 112 250 180 c 2,0,-1
318 66 m 1,15,-1
 317 19 l 1,16,17
 313 -6 313 -6 279 -6 c 0,18,19
 261 -6 261 -6 257 16 c 1,20,-1
 254 29 l 1,21,22
 219 1 219 1 169 1 c 0,23,24
 104 1 104 1 66.5 49 c 128,-1,25
 29 97 29 97 29 154 c 128,-1,26
 29 211 29 211 46 261 c 128,-1,27
 63 311 63 311 107.5 351 c 128,-1,28
 152 391 152 391 216 391 c 0,29,30
 231 391 231 391 239 390 c 1,31,-1
 238 457 l 1,32,-1
 239 510 l 1,33,-1
 238 551 l 2,34,35
 238 574 238 574 244.5 585 c 128,-1,36
 251 596 251 596 271 596 c 128,-1,37
 291 596 291 596 296 579.5 c 128,-1,38
 301 563 301 563 301 526 c 1,39,-1
 307 307 l 2,40,41
 307 273 307 273 312.5 194.5 c 128,-1,42
 318 116 318 116 318 66 c 1,15,-1
EndSplineSet
Substitution2: "'smcp' Lowercase to Small Capitals in Latin lookup 0 subtable" D.smcp
EndChar

StartChar: e
Encoding: 101 101 40
Width: 333
Flags: HW
HStem: -3 73<136.612 235.503> 177 59<111 208.503> 328 58<137.131 223.908>
VStem: 227 73<255.876 324.294>
LayerCount: 2
Fore
SplineSet
185 328 m 0,0,1
 148.766666667 328 148.766666667 328 128.5 296 c 0,2,3
 119 281 119 281 116.5 270.5 c 128,-1,4
 114 260 114 260 110 236 c 1,5,6
 227 236 227 236 227 293 c 0,7,8
 227 310 227 310 215 319 c 128,-1,9
 203 328 203 328 185 328 c 0,0,1
266.5 229 m 128,-1,11
 233 196 233 196 199.5 186.5 c 128,-1,12
 166 177 166 177 111 177 c 1,13,14
 123.689419795 94.5187713311 123.689419795 94.5187713311 149.5 78 c 0,15,16
 162 70 162 70 184 70 c 128,-1,17
 206 70 206 70 230.5 87.5 c 128,-1,18
 255 105 255 105 274.5 122.5 c 128,-1,19
 294 140 294 140 304.5 140 c 128,-1,20
 315 140 315 140 327 125.5 c 128,-1,21
 339 111 339 111 339 100 c 0,22,23
 339 80 339 80 282.5 38.5 c 128,-1,24
 226 -3 226 -3 166 -3 c 128,-1,25
 106 -3 106 -3 73.5 63.5 c 128,-1,26
 41 130 41 130 41 205.5 c 128,-1,27
 41 281 41 281 72 333.5 c 128,-1,28
 103 386 103 386 167 386 c 0,29,30
 217 386 217 386 258.5 361 c 128,-1,31
 300 336 300 336 300 299 c 128,-1,10
 300 262 300 262 266.5 229 c 128,-1,11
EndSplineSet
Substitution2: "'smcp' Lowercase to Small Capitals in Latin lookup 0 subtable" E.smcp
EndChar

StartChar: f
Encoding: 102 102 41
Width: 297
Flags: HW
HStem: -1 21G<127 141> 324 64<8.22211 97 161 251.493> 533 63<165.247 262.562>
VStem: 97 61<97.6449 321 386 525.834> 111 63<5.43359 255.058>
LayerCount: 2
Fore
SplineSet
254 354 m 0,0,1
 254 316.714285714 254 316.714285714 174.5 320.5 c 0,2,3
 164 321 164 321 161 321 c 1,4,5
 163 276 163 276 168.5 198.214285714 c 0,6,7
 174 120.428571429 174 120.428571429 174 36 c 1,8,9
 172 22 172 22 159 10.5 c 128,-1,10
 146 -1 146 -1 133 -1 c 0,11,12
 111 -1 111 -1 111 26 c 0,13,14
 111 95 111 95 105 174.5 c 128,-1,15
 99 254 99 254 97 321 c 1,16,17
 82 322 82 322 71.5 322 c 2,18,-1
 53.5 322 l 2,19,20
 23.8333333333 322 23.8333333333 322 13.9166666667 332.5 c 128,-1,21
 4 343 4 343 4 351 c 0,22,23
 4 388 4 388 74 388 c 1,24,-1
 97 386 l 1,25,26
 99 517 99 517 113 556.5 c 128,-1,27
 127 596 127 596 174.5 596 c 128,-1,28
 222 596 222 596 245 588.5 c 128,-1,29
 268 581 268 581 273 571.5 c 128,-1,30
 278 562 278 562 278 548 c 128,-1,31
 278 534 278 534 272 525 c 128,-1,32
 266 516 266 516 256 516 c 128,-1,33
 246 516 246 516 228 524.5 c 128,-1,34
 210 533 210 533 191.5 533 c 128,-1,35
 173 533 173 533 165.5 514.5 c 128,-1,36
 158 496 158 496 158 455 c 2,37,-1
 159 383 l 1,38,-1
 200.5 384 l 2,39,40
 225.5 384 225.5 384 231.75 381.5 c 128,-1,41
 238 379 238 379 246 374.636363636 c 0,42,43
 254 370.272727273 254 370.272727273 254 354 c 0,0,1
EndSplineSet
Substitution2: "'smcp' Lowercase to Small Capitals in Latin lookup 0 subtable" F.smcp
EndChar

StartChar: g
Encoding: 103 103 42
Width: 371
Flags: HW
HStem: -260 60<142.119 258.458> 0 79<142.846 259.034> 320 67<146.053 237.524>
VStem: 46 65<111.849 280.686> 271 61<-55.5768 34 90.3216 280.984> 274 65<-184.5 201.288>
LayerCount: 2
Fore
SplineSet
201 79 m 0,0,1
 248.5 79 248.5 79 259.25 100.5 c 128,-1,2
 270 122 270 122 270 163 c 0,3,4
 270 320 270 320 193 320 c 0,5,6
 157 320 157 320 134 285 c 128,-1,7
 111 250 111 250 111 207 c 0,8,9
 111 79 111 79 201 79 c 0,0,1
339 -58 m 2,10,-1
 340 -119 l 2,11,12
 340 -161.6 340 -161.6 333 -179.8 c 0,13,14
 316.114754098 -223.701639344 316.114754098 -223.701639344 290 -238.5 c 0,15,16
 252.058823529 -260 252.058823529 -260 195.529411765 -260 c 128,-1,17
 139 -260 139 -260 89 -231 c 1,18,19
 63 -218 63 -218 63 -199.5 c 128,-1,20
 63 -181 63 -181 73.5 -172 c 128,-1,21
 84 -163 84 -163 97.5 -163 c 128,-1,22
 111 -163 111 -163 149 -181.5 c 128,-1,23
 187 -200 187 -200 214 -200 c 0,24,25
 274 -200 274 -200 274 -104 c 128,-1,26
 274 -8 274 -8 271 34 c 1,27,28
 241 0 241 0 199 0 c 0,29,30
 128 0 128 0 87 56.5 c 128,-1,31
 46 113 46 113 46 193.5 c 128,-1,32
 46 274 46 274 91.5 330.5 c 128,-1,33
 137 387 137 387 210.869565217 387 c 128,-1,34
 284.739130435 387 284.739130435 387 309.5 320 c 0,35,36
 325.991793669 275.375146542 325.991793669 275.375146542 328.995896835 229.562573271 c 128,-1,37
 332 183.75 332 183.75 332 127.875 c 128,-1,38
 332 72 332 72 335.5 16.5 c 128,-1,39
 339 -39 339 -39 339 -58 c 2,10,-1
EndSplineSet
Substitution2: "'smcp' Lowercase to Small Capitals in Latin lookup 0 subtable" G.smcp
EndChar

StartChar: h
Encoding: 104 104 43
Width: 350
Flags: HW
HStem: -1 22G<77 91.5 270.5 286.5> 323 68<130.225 241.327>
VStem: 33 77<373.121 588.503> 57 70<34 251.581> 256 65<6.7687 177.617> 261 70<13.8412 303.172>
LayerCount: 2
Fore
SplineSet
326 260 m 128,-1,1
 331 226 331 226 331 187.5 c 128,-1,2
 331 149 331 149 320.5 37 c 0,3,4
 319 21 319 21 305.5 10.5 c 128,-1,5
 292 0 292 0 276 0 c 0,6,7
 256 0 256 0 256 22 c 2,8,-1
 256 27 l 1,9,-1
 261 174 l 1,10,-1
 261 217 l 2,11,12
 261 266 261 266 247 294.5 c 128,-1,13
 233 323 233 323 189 323 c 0,14,15
 121 323 121 323 121 270 c 0,16,17
 121 209 121 209 124 166.5 c 128,-1,18
 127 124 127 124 127 92.5 c 128,-1,19
 127 61 127 61 126 34 c 1,20,-1
 124 31 l 1,21,22
 120 18 120 18 108 8.5 c 128,-1,23
 96 -1 96 -1 84 -1 c 0,24,25
 60 -1 60 -1 59 21 c 1,26,-1
 57 21 l 1,27,28
 57 145 57 145 46 294 c 128,-1,29
 35 443 35 443 33 563 c 1,30,31
 36 576 36 576 47.5 586.5 c 128,-1,32
 59 597 59 597 71 597 c 128,-1,33
 83 597 83 597 91 586.5 c 0,34,35
 104.161981258 569.224899598 104.161981258 569.224899598 105.850221398 488.189372876 c 128,-1,36
 107.538461538 407.153846154 107.538461538 407.153846154 110 369 c 1,37,38
 151 391 151 391 195 391 c 128,-1,39
 239 391 239 391 266.5 374.5 c 128,-1,40
 294 358 294 358 307.5 326 c 128,-1,0
 321 294 321 294 326 260 c 128,-1,1
EndSplineSet
Substitution2: "'smcp' Lowercase to Small Capitals in Latin lookup 0 subtable" H.smcp
EndChar

StartChar: i
Encoding: 105 105 44
Width: 201
Flags: HW
HStem: 374 20G<80.5 118> 450 106<69.6504 132.011>
VStem: 57 87<460.837 542.572> 63 72<49.9749 387.145> 73 61<-0.214844 240.129>
LayerCount: 2
Fore
SplineSet
135 277 m 1,0,-1
 133 90 l 2,1,2
 133 51 133 51 134 33 c 1,3,4
 132 18 132 18 121 6.5 c 128,-1,5
 110 -5 110 -5 95.5 -5 c 128,-1,6
 81 -5 81 -5 73 16 c 1,7,8
 63 273 63 273 63 305 c 128,-1,9
 63 337 63 337 66 379 c 0,10,11
 67 394 67 394 86 394 c 0,12,13
 137 394 137 394 137 328 c 1,14,-1
 135 277 l 1,0,-1
69.5 466.5 m 128,-1,16
 57 483 57 483 57 508.5 c 128,-1,17
 57 534 57 534 67.5 542.5 c 128,-1,18
 78 551 78 551 97 556 c 1,19,20
 114 553 114 553 122 550 c 128,-1,21
 130 547 130 547 137 536.5 c 128,-1,22
 144 526 144 526 144 507 c 128,-1,23
 144 488 144 488 130 469 c 128,-1,24
 116 450 116 450 99 450 c 128,-1,15
 82 450 82 450 69.5 466.5 c 128,-1,16
EndSplineSet
Substitution2: "'smcp' Lowercase to Small Capitals in Latin lookup 0 subtable" I.smcp
EndChar

StartChar: j
Encoding: 106 106 45
Width: 196
Flags: HW
HStem: -217 67<-19.4299 36.0951> 370 20G<83.5 98.5> 453 100<44.5785 124.875>
VStem: 36 95<460.887 545.955> 60 64<-124.916 151.64 182.281 388.518> 66 69<-54.8604 366.642>
LayerCount: 2
Fore
SplineSet
57 359 m 1,0,1
 58 373 58 373 68.5 381.5 c 128,-1,2
 79 390 79 390 96.5 390 c 128,-1,3
 114 390 114 390 126 369 c 1,4,5
 135 294 135 294 134 135 c 128,-1,6
 133 -24 133 -24 124 -77 c 0,7,8
 124 -82 124 -82 120 -98 c 2,9,-1
 112.5 -128 l 2,10,11
 109 -142 109 -142 106 -147.5 c 128,-1,12
 103 -153 103 -153 97.5 -164.5 c 128,-1,13
 92 -176 92 -176 86.5 -181.5 c 2,14,-1
 72.5 -195.5 l 2,15,16
 51 -217 51 -217 7.5 -217 c 128,-1,17
 -36 -217 -36 -217 -58.5 -203 c 128,-1,18
 -81 -189 -81 -189 -93 -150 c 0,19,20
 -94 -148 -94 -148 -94 -137.5 c 128,-1,21
 -94 -127 -94 -127 -80.5 -114.5 c 128,-1,22
 -67 -102 -67 -102 -53 -102 c 128,-1,23
 -39 -102 -39 -102 -31.5 -109.5 c 128,-1,24
 -24 -117 -24 -117 -21.5 -126 c 128,-1,25
 -19 -135 -19 -135 -11 -142.5 c 128,-1,26
 -3 -150 -3 -150 10 -150 c 0,27,28
 29 -150 29 -150 43 -117 c 128,-1,29
 57 -84 57 -84 60 -46 c 0,30,31
 66 44 66 44 66 167.5 c 128,-1,32
 66 291 66 291 57 359 c 1,0,1
36 504 m 1,33,34
 38 518 38 518 40.5 526 c 128,-1,35
 43 534 43 534 54.5 543.5 c 128,-1,36
 66 553 66 553 86 553 c 128,-1,37
 106 553 106 553 117 541.5 c 128,-1,38
 128 530 128 530 129.5 519.5 c 128,-1,39
 131 509 131 509 131 493 c 128,-1,40
 131 477 131 477 117 465 c 128,-1,41
 103 453 103 453 82.5 453 c 128,-1,42
 62 453 62 453 49.5 468 c 128,-1,43
 37 483 37 483 36 504 c 1,33,34
EndSplineSet
Substitution2: "'smcp' Lowercase to Small Capitals in Latin lookup 0 subtable" J.smcp
EndChar

StartChar: k
Encoding: 107 107 46
Width: 346
Flags: HW
HStem: -1 22G<64.5 78 285 308.5> 369 20G<284.5 299>
VStem: 36 63<340.898 586.988> 49 62<5.5 140.78>
LayerCount: 2
Fore
SplineSet
110 120 m 1,0,-1
 111 37 l 1,1,2
 110 22 110 22 96.5 10.5 c 128,-1,3
 83 -1 83 -1 70 -1 c 0,4,5
 49 -1 49 -1 49 27 c 0,6,7
 49 115 49 115 42.5 273.5 c 128,-1,8
 36 432 36 432 36 451 c 2,9,-1
 36 559 l 1,10,11
 39 572 39 572 51.5 582.5 c 128,-1,12
 64 593 64 593 76 593 c 0,13,14
 95 593 95 593 99 569 c 1,15,16
 99 410 99 410 109 217 c 1,17,18
 148.117647059 243.078431373 148.117647059 243.078431373 234 349 c 0,19,20
 243 359 243 359 262.5 374 c 128,-1,21
 282 389 282 389 290 389 c 0,22,23
 322 389 322 389 322 368 c 0,24,25
 322 367 322 367 310.5 347 c 0,26,27
 276 287 276 287 230 237 c 1,28,29
 262 201 262 201 294 131.5 c 128,-1,30
 326 62 326 62 329.5 56 c 128,-1,31
 333 50 333 50 333 37 c 128,-1,32
 333 24 333 24 323 12 c 128,-1,33
 313 0 313 0 298 0 c 0,34,35
 288 0 288 0 274 34 c 128,-1,36
 260 68 260 68 237.5 117.5 c 128,-1,37
 215 167 215 167 187 193 c 1,38,-1
 110 120 l 1,0,-1
EndSplineSet
Substitution2: "'smcp' Lowercase to Small Capitals in Latin lookup 0 subtable" K.smcp
EndChar

StartChar: l
Encoding: 108 108 47
Width: 237
Flags: HW
HStem: 570 20G<83 99.5>
VStem: 53 65<105.444 494.719>
LayerCount: 2
Fore
SplineSet
215 124 m 0,0,1
 246 124 246 124 246 74.5 c 0,2,3
 246 49 246 49 218 22.5 c 128,-1,4
 190 -4 190 -4 160.5 -4 c 128,-1,5
 131 -4 131 -4 114 7.5 c 128,-1,6
 97 19 97 19 87 42 c 128,-1,7
 77 65 77 65 70.5 89 c 128,-1,8
 64 113 64 113 61 149 c 128,-1,9
 58 185 58 185 57 211 c 128,-1,10
 56 237 56 237 55.5 275.5 c 128,-1,11
 55 314 55 314 54 333.5 c 128,-1,12
 53 353 53 353 53 440.5 c 128,-1,13
 53 528 53 528 54.5 551 c 0,14,15
 57.0434782609 590 57.0434782609 590 92 590 c 0,16,17
 120 590 120 590 126 561 c 1,18,19
 118 483 118 483 118 265 c 0,20,21
 118 98 118 98 154 69 c 1,22,23
 166 72 166 72 183.5 98 c 128,-1,24
 201 124 201 124 215 124 c 0,0,1
EndSplineSet
Substitution2: "'smcp' Lowercase to Small Capitals in Latin lookup 0 subtable" L.smcp
EndChar

StartChar: m
Encoding: 109 109 48
Width: 567
Flags: HW
HStem: -1 21G<73 98.5 264.5 278 485 516> 321 69<128.355 227.518 332.195 421.322>
VStem: 53 65<3.75928 249.492> 248 64<31 300.809> 472 62<4.29988 268.044>
LayerCount: 2
Fore
SplineSet
390 387 m 0,0,1
 534 387 534 387 534 138 c 2,2,-1
 534 63 l 2,3,4
 534 52 534 52 532.5 45.5 c 128,-1,5
 531 39 531 39 529.5 30.5 c 0,6,7
 527.357142857 18.3571428571 527.357142857 18.3571428571 517.678571429 8.67857142857 c 128,-1,8
 508 -1 508 -1 491 -1 c 0,9,10
 469 -1 469 -1 469 27 c 2,11,-1
 472 131 l 1,12,13
 472 234 472 234 450 269 c 0,14,15
 437 290 437 290 415.5 304 c 128,-1,16
 394 318 394 318 372 318 c 0,17,18
 338 318 338 318 325 284.5 c 128,-1,19
 312 251 312 251 312 152 c 2,20,-1
 313 31 l 1,21,-1
 311 31 l 1,22,23
 307 17 307 17 294.5 8 c 128,-1,24
 282 -1 282 -1 270 -1 c 0,25,26
 250 -1 250 -1 249 23 c 1,27,-1
 247 23 l 1,28,-1
 248 150 l 1,29,-1
 248.75 192.875 l 1,30,31
 248.75 250.361111111 248.75 250.361111111 242.875 266.680555556 c 128,-1,32
 237 283 237 283 230 295.5 c 0,33,34
 215.72 321 215.72 321 178.36 321 c 128,-1,35
 141 321 141 321 127 297.5 c 128,-1,36
 113 274 113 274 113 226 c 1,37,-1
 118 71 l 1,38,39
 118 -1 118 -1 79 -1 c 0,40,41
 57 -1 57 -1 53 23 c 1,42,43
 53 192 53 192 33 323 c 1,44,45
 33 340 33 340 45.5 353.5 c 128,-1,46
 58 367 58 367 73 367 c 128,-1,47
 88 367 88 367 96 349 c 1,48,49
 126 390 126 390 178 390 c 0,50,51
 243 390 243 390 280 327 c 1,52,53
 321 387 321 387 390 387 c 0,0,1
EndSplineSet
Substitution2: "'smcp' Lowercase to Small Capitals in Latin lookup 0 subtable" M.smcp
EndChar

StartChar: n
Encoding: 110 110 49
Width: 376
Flags: HW
HStem: -1 22G<77.5 94 290 322> 307 83<161.684 245.496>
VStem: 54 67<331 395.526> 63 64<3.69583 253.38> 276 61<4.85687 252.589>
LayerCount: 2
Fore
SplineSet
63 26 m 2,0,-1
 54 364 l 1,1,2
 58 378 58 378 68 389 c 128,-1,3
 78 400 78 400 86.5 400 c 128,-1,4
 95 400 95 400 99.5 399 c 0,5,6
 115.903225806 395.35483871 115.903225806 395.35483871 117.5 373 c 0,7,8
 118 366 118 366 118.5 361.5 c 128,-1,9
 119 357 119 357 119.5 347 c 128,-1,10
 120 337 120 337 121 331 c 1,11,12
 166 390 166 390 233.205882353 390 c 128,-1,13
 300.411764706 390 300.411764706 390 321 302.5 c 0,14,15
 337 234.5 337 234.5 337 123 c 1,16,-1
 338 75.5 l 2,17,18
 338 42.6666666667 338 42.6666666667 334.5 33.3333333333 c 128,-1,19
 331 24 331 24 326.5 16 c 0,20,21
 317.5 0 317.5 0 296.75 0 c 128,-1,22
 276 0 276 0 276 27 c 2,23,-1
 276.530100484 76.3796742481 l 2,24,25
 276.530100484 90.39213622 276.530100484 90.39213622 275.765050242 112.19606811 c 128,-1,26
 275 134 275 134 274 162.5 c 0,27,28
 271.974930362 220.21448468 271.974930362 220.21448468 256.787465181 263.60724234 c 128,-1,29
 241.6 307 241.6 307 211.8 307 c 0,30,31
 154.333333333 307 154.333333333 307 140 242.5 c 0,32,33
 129 193 129 193 129 126 c 1,34,-1
 127 36 l 2,35,36
 127 19 127 19 114 9 c 128,-1,37
 101 -1 101 -1 84 -1 c 0,38,39
 63 -1 63 -1 63 26 c 2,0,-1
EndSplineSet
Substitution2: "'smcp' Lowercase to Small Capitals in Latin lookup 0 subtable" N.smcp
EndChar

StartChar: o
Encoding: 111 111 50
Width: 336
Flags: HW
HStem: 0 59<149.338 223.962> 369 20G<135 228.5>
VStem: 21 63<134.255 272.862> 250 67<90.2791 270.135>
LayerCount: 2
Fore
SplineSet
201 59 m 1,0,1
 250 86 250 86 250 167 c 0,2,3
 250 222 250 222 230.5 267.5 c 128,-1,4
 211 313 211 313 169 321 c 1,5,6
 133 315 133 315 108.5 278.5 c 128,-1,7
 84 242 84 242 84 204 c 128,-1,8
 84 166 84 166 118.5 112.5 c 128,-1,9
 153 59 153 59 201 59 c 1,0,1
67.5 326 m 128,-1,11
 114 389 114 389 180 389 c 128,-1,12
 246 389 246 389 281.5 326 c 128,-1,13
 317 263 317 263 317 187 c 0,14,15
 317 150 317 150 303.5 108.5 c 128,-1,16
 290 67 290 67 258.5 33.5 c 128,-1,17
 227 0 227 0 182.5 0 c 128,-1,18
 138 0 138 0 98.5 33.5 c 128,-1,19
 59 67 59 67 40 109 c 128,-1,20
 21 151 21 151 21 187 c 0,21,10
 21 263 21 263 67.5 326 c 128,-1,11
EndSplineSet
Substitution2: "'smcp' Lowercase to Small Capitals in Latin lookup 0 subtable" O.smcp
EndChar

StartChar: p
Encoding: 112 112 51
Width: 357
Flags: HW
HStem: -260 21G<50 65> 1 65<111.953 241.221> 323 66<127.052 242.702>
VStem: 36 64<-251.824 29 79.875 296.044 344 388.549> 279 67<103.626 283.86>
LayerCount: 2
Fore
SplineSet
174 323 m 1,0,1
 142 319 142 319 121 295 c 128,-1,2
 100 271 100 271 100 251 c 2,3,-1
 100 96 l 1,4,5
 103 95 103 95 112 87 c 0,6,7
 135.625 66 135.625 66 164 66 c 0,8,9
 279 66 279 66 279 184 c 0,10,11
 279 248 279 248 257 285.5 c 128,-1,12
 235 323 235 323 174 323 c 1,0,1
100 29 m 2,13,-1
 99 -221 l 1,14,15
 95 -237 95 -237 82.5 -248.5 c 128,-1,16
 70 -260 70 -260 56 -260 c 0,17,18
 34 -260 34 -260 34 -231 c 2,19,-1
 36 56 l 1,20,-1
 36 350 l 1,21,22
 43 390 43 390 67 390 c 0,23,24
 84 390 84 390 89.5 382.5 c 128,-1,25
 95 375 95 375 100 344 c 1,26,27
 103 359 103 359 125 374 c 128,-1,28
 147 389 147 389 189.5 389 c 0,29,30
 274.583333333 389 274.583333333 389 310.291666667 327.785714286 c 128,-1,31
 346 266.571428571 346 266.571428571 346 182.785714286 c 128,-1,32
 346 99 346 99 297.5 50 c 128,-1,33
 249 1 249 1 163 1 c 0,34,35
 133.941176471 1 133.941176471 1 111 20.5 c 0,36,37
 101 29 101 29 100 29 c 2,13,-1
EndSplineSet
Substitution2: "'smcp' Lowercase to Small Capitals in Latin lookup 0 subtable" P.smcp
EndChar

StartChar: q
Encoding: 113 113 52
Width: 386
Flags: HW
HStem: -260 21G<313 328> 0 62<134.653 242.2> 321 66<114.771 237.592>
VStem: 25 67<111.15 296.843> 289 68<112.272 263.193> 296 67<-252.682 51.6101>
LayerCount: 2
Fore
SplineSet
230.5 307 m 0,0,1
 205 321 205 321 166 321 c 128,-1,2
 127 321 127 321 109.5 293.65625 c 128,-1,3
 92 266.3125 92 266.3125 92 200.15625 c 128,-1,4
 92 134 92 134 120 98 c 128,-1,5
 148 62 148 62 183.5 62 c 128,-1,6
 219 62 219 62 246.5 87 c 128,-1,7
 274 112 274 112 289 161 c 1,8,9
 285.490634441 276.809063444 285.490634441 276.809063444 230.5 307 c 0,0,1
364 -118 m 2,10,-1
 363 -221 l 1,11,12
 360 -238 360 -238 346.5 -249 c 128,-1,13
 333 -260 333 -260 319 -260 c 0,14,15
 295 -260 295 -260 296 -231 c 2,16,-1
 299 -99 l 2,17,18
 299 -82 299 -82 291 54 c 1,19,20
 278 29 278 29 247.5 14.5 c 128,-1,21
 217 0 217 0 180 0 c 0,22,23
 108 0 108 0 66.5 56 c 128,-1,24
 25 112 25 112 25 196.5 c 128,-1,25
 25 281 25 281 66.5 334 c 128,-1,26
 108 387 108 387 183 387 c 0,27,28
 232 387 232 387 266 370 c 128,-1,29
 300 353 300 353 317.5 330 c 128,-1,30
 335 307 335 307 344 270 c 0,31,32
 357 216.555555556 357 216.555555556 357 126 c 1,33,-1
 363 -47 l 2,34,35
 364 -86 364 -86 364 -118 c 2,10,-1
EndSplineSet
Substitution2: "'smcp' Lowercase to Small Capitals in Latin lookup 0 subtable" Q.smcp
EndChar

StartChar: r
Encoding: 114 114 53
Width: 321
Flags: HW
HStem: 319 71<189.421 304.297>
VStem: 69 70<36 252.918>
LayerCount: 2
Fore
SplineSet
69.4615384615 103.828402367 m 2,0,-1
 69.6666666667 143.222222222 l 2,1,2
 69.6666666667 169.666666667 69.6666666667 169.666666667 69 177 c 0,3,4
 57 292 57 292 37 360 c 0,5,6
 36 362 36 362 36 370 c 128,-1,7
 36 378 36 378 46.5 386 c 128,-1,8
 57 394 57 394 71.5 394 c 128,-1,9
 86 394 86 394 94.5 383.5 c 128,-1,10
 103 373 103 373 105 361.5 c 128,-1,11
 107 350 107 350 108.5 331 c 128,-1,12
 110 312 110 312 111 307 c 1,13,14
 146 390 146 390 240 390 c 0,15,16
 308 390 308 390 308 355 c 0,17,18
 308 341 308 341 296 329 c 128,-1,19
 284 317 284 317 268 317 c 1,20,-1
 244 319 l 1,21,22
 139 319 139 319 139 112 c 1,23,-1
 140 36 l 1,24,-1
 139 34 l 1,25,26
 136 20 136 20 124 8 c 128,-1,27
 112 -4 112 -4 99 -4 c 0,28,29
 81 -4 81 -4 75.2307692308 25.8076923077 c 128,-1,30
 69.4615384615 55.6153846154 69.4615384615 55.6153846154 69.4615384615 103.828402367 c 2,0,-1
EndSplineSet
Substitution2: "'smcp' Lowercase to Small Capitals in Latin lookup 0 subtable" R.smcp
EndChar

StartChar: s
Encoding: 115 115 54
Width: 321
Flags: HW
HStem: 4 60<112.408 211.087> 330 61<114.31 228.99>
VStem: 46 61<245.716 319.878> 231 63<82.3651 154.653>
LayerCount: 2
Fore
SplineSet
81.5 362.5 m 128,-1,1
 117 391 117 391 161.5 391 c 128,-1,2
 206 391 206 391 249.5 375 c 128,-1,3
 293 359 293 359 293 330 c 0,4,5
 293 316 293 316 281 307.5 c 128,-1,6
 269 299 269 299 253 299 c 0,7,8
 250 299 250 299 216 314.5 c 128,-1,9
 182 330 182 330 162 330 c 128,-1,10
 142 330 142 330 124.5 318 c 128,-1,11
 107 306 107 306 107 283.5 c 128,-1,12
 107 261 107 261 126.5 246.5 c 128,-1,13
 146 232 146 232 173 227 c 128,-1,14
 200 222 200 222 227.5 216 c 128,-1,15
 255 210 255 210 274.5 191.5 c 128,-1,16
 294 173 294 173 294 140 c 0,17,18
 294 83 294 83 254.5 43.5 c 128,-1,19
 215 4 215 4 169 4 c 128,-1,20
 123 4 123 4 84.5 19.5 c 128,-1,21
 46 35 46 35 46 64 c 128,-1,22
 46 93 46 93 81 93 c 0,23,24
 97 93 97 93 127.5 78.5 c 128,-1,25
 158 64 158 64 177.5 64 c 128,-1,26
 197 64 197 64 214 88.5 c 128,-1,27
 231 113 231 113 231 136 c 0,28,29
 231 141 231 141 229 149 c 1,30,31
 203.680851064 174.319148936 203.680851064 174.319148936 116.5 187 c 0,32,33
 89 191 89 191 67.5 214.5 c 128,-1,34
 46 238 46 238 46 286 c 128,-1,0
 46 334 46 334 81.5 362.5 c 128,-1,1
EndSplineSet
Substitution2: "'smcp' Lowercase to Small Capitals in Latin lookup 0 subtable" S.smcp
EndChar

StartChar: t
Encoding: 116 116 55
Width: 287
Flags: HW
HStem: -1 21G<154.5 168> 318 71<9.79688 110 176 287.597>
VStem: 107 63<390 585.969>
LayerCount: 2
Fore
SplineSet
227.5 319 m 1,0,-1
 176 320 l 1,1,2
 187 116 187 116 200 39 c 1,3,4
 197 23 197 23 184.5 11 c 128,-1,5
 172 -1 172 -1 157.5 -1 c 128,-1,6
 143 -1 143 -1 136 19 c 1,7,8
 122.697247706 92.1651376147 122.697247706 92.1651376147 118.348623853 195.082568807 c 128,-1,9
 114 298 114 298 113 319 c 1,10,11
 102 318 102 318 73 318 c 128,-1,12
 44 318 44 318 26 323 c 1,13,14
 6 327 6 327 6 350 c 0,15,16
 6 389 6 389 54 389 c 1,17,-1
 94 388 l 2,18,19
 104 388 104 388 110 389 c 1,20,21
 107 443 107 443 107 455.5 c 2,22,-1
 107 473 l 2,23,24
 107 479 107 479 107.5 486.5 c 128,-1,25
 108 494 108 494 108.5 514 c 128,-1,26
 109 534 109 534 110 560 c 1,27,28
 114 574 114 574 126 584 c 128,-1,29
 138 594 138 594 151 594 c 0,30,31
 170 594 170 594 174 570 c 1,32,-1
 170 469 l 2,33,34
 170 459 170 459 173 390 c 1,35,36
 223 390 223 390 271 393 c 1,37,38
 296 387 296 387 296 366 c 0,39,40
 296 319 296 319 227.5 319 c 1,0,-1
EndSplineSet
Substitution2: "'smcp' Lowercase to Small Capitals in Latin lookup 0 subtable" T.smcp
EndChar

StartChar: u
Encoding: 117 117 56
Width: 334
Flags: HW
HStem: -1 21G<88 147> 370 20G<59.5 73 253 267>
VStem: 23 66<98.2446 360.078> 226 64<179.989 385.187> 254 63<-4.62006 53.75>
LayerCount: 2
Fore
SplineSet
30 357 m 1,0,1
 34 372 34 372 44.5 381 c 128,-1,2
 55 390 55 390 67 390 c 0,3,4
 89 390 89 390 94 367 c 1,5,6
 89 310 89 310 89 256.5 c 128,-1,7
 89 203 89 203 90.5 180 c 0,8,9
 94.3251833741 121.347188264 94.3251833741 121.347188264 131 59 c 1,10,11
 164 67 164 67 192.5 89.5 c 128,-1,12
 221 112 221 112 236 141 c 1,13,14
 226 261 226 261 226 347 c 0,15,16
 226 364 226 364 237 376.5 c 128,-1,17
 248 389 248 389 264 389 c 128,-1,18
 280 389 280 389 290 367 c 1,19,20
 290 326 290 326 297 177 c 0,21,22
 298 156 298 156 307.5 99.5 c 128,-1,23
 317 43 317 43 317 29.5 c 128,-1,24
 317 16 317 16 304.5 3 c 128,-1,25
 292 -10 292 -10 276.5 -10 c 128,-1,26
 261 -10 261 -10 254 10 c 1,27,-1
 246 60 l 1,28,29
 187 -1 187 -1 129 -1 c 0,30,31
 100 -1 100 -1 78 20.5 c 128,-1,32
 56 42 56 42 45 76.5 c 0,33,34
 23 145.5 23 145.5 23 209.25 c 128,-1,35
 23 273 23 273 30 357 c 1,0,1
EndSplineSet
Substitution2: "'smcp' Lowercase to Small Capitals in Latin lookup 0 subtable" U.smcp
EndChar

StartChar: v
Encoding: 118 118 57
Width: 334
Flags: HW
HStem: -2 21G<178.5 190.5> 369 20G<43.5 57 294.5 307>
VStem: 16 61<331.961 384.869> 264 60<360.141 389.572>
LayerCount: 2
Fore
SplineSet
324 368 m 1,0,-1
 323 360 l 1,1,2
 279 248 279 248 221 27 c 1,3,4
 208 -2 208 -2 186.5 -2 c 128,-1,5
 165 -2 165 -2 160 17 c 1,6,7
 134.822202166 95.4954873646 134.822202166 95.4954873646 85.411101083 196.747743682 c 128,-1,8
 36 298 36 298 26 320 c 128,-1,9
 16 342 16 342 16 353.5 c 128,-1,10
 16 365 16 365 27.5 377 c 128,-1,11
 39 389 39 389 52.5 389 c 128,-1,12
 66 389 66 389 77 374 c 1,13,14
 88 350 88 350 129 270 c 128,-1,15
 170 190 170 190 189 139 c 1,16,17
 239 310 239 310 264 371 c 1,18,19
 278 393 278 393 301 393 c 128,-1,20
 324 393 324 393 324 368 c 1,0,-1
EndSplineSet
Substitution2: "'smcp' Lowercase to Small Capitals in Latin lookup 0 subtable" V.smcp
EndChar

StartChar: w
Encoding: 119 119 58
Width: 386
Flags: HW
HStem: 1 215<200 281> 369 20G<48.5 61 330 347.5>
VStem: 20 57<190.742 384.932> 306 55<109.375 387.848>
LayerCount: 2
Fore
SplineSet
306 233 m 1,0,-1
 301 360 l 1,1,2
 305 372 305 372 315.5 381 c 128,-1,3
 326 390 326 390 337 390 c 0,4,5
 361 390 361 390 361 296 c 2,6,-1
 361 250 l 2,7,8
 361 176 361 176 340 88.5 c 128,-1,9
 319 1 319 1 281 1 c 0,10,11
 265 1 265 1 251 22.5 c 128,-1,12
 237 44 237 44 221 80.5 c 128,-1,13
 205 117 205 117 196 131 c 1,14,15
 178 97 178 97 166 73 c 0,16,17
 130 1 130 1 101 1 c 0,18,19
 92 1 92 1 70 46 c 1,20,21
 20 195 20 195 20 359 c 1,22,23
 23 370 23 370 34 379.5 c 128,-1,24
 45 389 45 389 56 389 c 0,25,26
 73 389 73 389 77 367 c 1,27,28
 77 236 77 236 121 117 c 1,29,30
 130 132 130 132 145 163 c 128,-1,31
 160 194 160 194 171 205 c 128,-1,32
 182 216 182 216 200 216 c 0,33,34
 229 216 229 216 279.321651237 110.646011716 c 0,35,36
 281 108 281 108 281.5 106.5 c 128,-1,37
 282 105 282 105 283 103 c 1,38,39
 306 174 306 174 306 233 c 1,0,-1
EndSplineSet
Substitution2: "'smcp' Lowercase to Small Capitals in Latin lookup 0 subtable" W.smcp
EndChar

StartChar: x
Encoding: 120 120 59
Width: 374
Flags: HW
HStem: -1 21G<276.5 302> 368 20G<88 102 304 317>
VStem: 33 307
LayerCount: 2
Fore
SplineSet
282.5 373.5 m 128,-1,1
 293 388 293 388 307 388 c 128,-1,2
 321 388 321 388 330.5 379 c 128,-1,3
 340 370 340 370 340 358.5 c 128,-1,4
 340 347 340 347 305 293.5 c 128,-1,5
 270 240 270 240 230 191 c 1,6,7
 241 175 241 175 267.415384615 131.492307692 c 0,8,9
 293.830769231 87.9846153846 293.830769231 87.9846153846 320 56 c 1,10,11
 326 45.5 326 45.5 326 33.25 c 128,-1,12
 326 21 326 21 316 10 c 128,-1,13
 306 -1 306 -1 293 -1 c 0,14,15
 271 -1 271 -1 237 49 c 128,-1,16
 203 99 203 99 180 147 c 1,17,18
 144 97 144 97 126 68 c 128,-1,19
 108 39 108 39 94.8461538462 21 c 0,20,21
 81.6923076923 3 81.6923076923 3 65.8461538462 3 c 128,-1,22
 50 3 50 3 41.5 12.5 c 128,-1,23
 33 22 33 22 33 35 c 0,24,25
 33 67 33 67 150 199 c 1,26,27
 137 223 137 223 99 283.638297872 c 0,28,29
 61 344.276595745 61 344.276595745 61 357.138297872 c 128,-1,30
 61 370 61 370 72 380 c 128,-1,31
 83 390 83 390 100 390 c 128,-1,32
 117 390 117 390 126 374 c 2,33,-1
 194 254 l 1,34,35
 222.681318681 284.274725275 222.681318681 284.274725275 247.340659341 321.637362637 c 128,-1,0
 272 359 272 359 282.5 373.5 c 128,-1,1
EndSplineSet
Substitution2: "'smcp' Lowercase to Small Capitals in Latin lookup 0 subtable" X.smcp
EndChar

StartChar: y
Encoding: 121 121 60
Width: 353
Flags: HW
HStem: 368 20G<32.5 47 278.5 295>
VStem: 9 313<355 370>
LayerCount: 2
Fore
SplineSet
9 349 m 1,0,1
 9 365 9 365 18.5 376.5 c 128,-1,2
 28 388 28 388 43 388 c 128,-1,3
 58 388 58 388 69 371 c 1,4,5
 93.7058823529 293.352941176 93.7058823529 293.352941176 133.852941176 199.676470588 c 128,-1,6
 174 106 174 106 181 89 c 1,7,8
 196 141 196 141 219.5 236 c 128,-1,9
 243 331 243 331 253 370 c 0,10,11
 258 388 258 388 286 388 c 0,12,13
 301 388 301 388 311.5 380.5 c 128,-1,14
 322 373 322 373 322 364 c 128,-1,15
 322 355 322 355 320 347 c 0,16,17
 201 -74 201 -74 146 -231 c 0,18,19
 139 -253 139 -253 123 -253 c 128,-1,20
 107 -253 107 -253 97.5 -242.5 c 128,-1,21
 88 -232 88 -232 88 -214 c 128,-1,22
 88 -196 88 -196 100 -155.5 c 128,-1,23
 112 -115 112 -115 128.5 -67 c 128,-1,24
 145 -19 145 -19 150 -1 c 1,25,26
 130 32 130 32 83.5 148.5 c 128,-1,27
 37 265 37 265 9 349 c 1,0,1
EndSplineSet
Substitution2: "'smcp' Lowercase to Small Capitals in Latin lookup 0 subtable" Y.smcp
EndChar

StartChar: z
Encoding: 122 122 61
Width: 357
Flags: HW
HStem: -1 66<121.241 310.958> 322 61<44.8183 243.254>
VStem: 26 311
LayerCount: 2
Fore
SplineSet
61 310 m 1,0,1
 60 311 60 311 53 313 c 128,-1,2
 46 315 46 315 40.5 317.5 c 0,3,4
 26 324.090909091 26 324.090909091 26 342.045454545 c 128,-1,5
 26 360 26 360 31 368 c 128,-1,6
 36 376 36 376 55.25 379.5 c 0,7,8
 74.5 383 74.5 383 145 383 c 0,9,10
 324 383 324 383 324 313 c 0,11,12
 324 278 324 278 298 244 c 128,-1,13
 272 210 272 210 239.5 186.5 c 0,14,15
 145.827411168 118.76751269 145.827411168 118.76751269 120 74 c 1,16,17
 140 65 140 65 162.5 65 c 128,-1,18
 185 65 185 65 235.5 73 c 128,-1,19
 286 81 286 81 304.5 81 c 128,-1,20
 323 81 323 81 330 73 c 128,-1,21
 337 65 337 65 337 56 c 0,22,23
 337 -1 337 -1 167 -1 c 0,24,25
 107 -1 107 -1 75.5 11.5 c 128,-1,26
 44 24 44 24 44 58.5 c 128,-1,27
 44 93 44 93 72.5 129 c 128,-1,28
 101 165 101 165 136 190.5 c 0,29,30
 234.087248322 261.963566635 234.087248322 261.963566635 246 296 c 1,31,32
 236 322 236 322 182 322 c 0,33,34
 159 322 159 322 116.5 316 c 128,-1,35
 74 310 74 310 65 310 c 2,36,-1
 61 310 l 1,0,1
EndSplineSet
Substitution2: "'smcp' Lowercase to Small Capitals in Latin lookup 0 subtable" Z.smcp
EndChar

StartChar: zero.onum
Encoding: 65537 -1 62
Width: 317
Flags: HW
HStem: 0 63<125.887 192.744> 333 60<130.417 198.578>
VStem: 33 67<90.2838 298.424> 220 62<95.509 307.891>
LayerCount: 2
Fore
SplineSet
220 201 m 0,0,1
 220 333 220 333 167 333 c 0,2,3
 134 333 134 333 117 290.5 c 128,-1,4
 100 248 100 248 100 191.5 c 128,-1,5
 100 135 100 135 117 99 c 128,-1,6
 134 63 134 63 161 63 c 0,7,8
 191 63 191 63 205.5 111.5 c 128,-1,9
 220 160 220 160 220 201 c 0,0,1
170 393 m 0,10,11
 221 393 221 393 251.5 329.5 c 128,-1,12
 282 266 282 266 282 186.5 c 128,-1,13
 282 107 282 107 253 53.5 c 128,-1,14
 224 0 224 0 174.470588235 0 c 0,15,16
 124.941176471 0 124.941176471 0 83 31 c 0,17,18
 33 67.9565217391 33 67.9565217391 33 175.47826087 c 0,19,20
 33 393 33 393 170 393 c 0,10,11
EndSplineSet
Substitution2: "'lnum' Lining Figures in Latin lookup 4 subtable" zero
Substitution2: "'smcp' Lowercase to Small Capitals in Latin lookup 0 subtable" zero.smcp
EndChar

StartChar: one.onum
Encoding: 65538 -1 63
Width: 163
Flags: HW
HStem: -2 21G<77.5 91> 373 20G<79.5 91.5>
VStem: 56 57<-1.0376 391.682>
LayerCount: 2
Fore
SplineSet
56 27 m 1,0,-1
 57 367 l 1,1,2
 63 393 63 393 84.5 393 c 128,-1,3
 106 393 106 393 114 369 c 1,4,-1
 113 29 l 1,5,6
 110 -2 110 -2 84.5 -2 c 128,-1,7
 59 -2 59 -2 56 27 c 1,0,-1
EndSplineSet
Substitution2: "'lnum' Lining Figures in Latin lookup 4 subtable" one
Substitution2: "'smcp' Lowercase to Small Capitals in Latin lookup 0 subtable" one.smcp
EndChar

StartChar: two.onum
Encoding: 65539 -1 64
Width: 284
Flags: HW
HStem: 0 51<103.139 268.569> 322 67<82.0407 187>
VStem: 192 62<206.404 317.792>
LayerCount: 2
Fore
SplineSet
270 28.5 m 0,0,1
 270 -1.66666666667 270 -1.66666666667 197.055555556 -1.66666666667 c 1,2,-1
 136 0 l 2,3,4
 131 0 131 0 115.5 -0.5 c 128,-1,5
 100 -1 100 -1 92 -0.5 c 128,-1,6
 84 0 84 0 70 0.5 c 128,-1,7
 56 1 56 1 48 3 c 128,-1,8
 40 5 40 5 31.5 8.5 c 128,-1,9
 23 12 23 12 19 18.5 c 128,-1,10
 15 25 15 25 15 33 c 128,-1,11
 15 41 15 41 20 51 c 1,12,13
 57 106 57 106 149 181 c 0,14,15
 192 217 192 217 192 269.5 c 128,-1,16
 192 322 192 322 151 322 c 0,17,18
 120 322 120 322 74 296 c 0,19,20
 66 292 66 292 55 292 c 128,-1,21
 44 292 44 292 34.5 302 c 128,-1,22
 25 312 25 312 25 326 c 0,23,24
 25 353 25 353 68.5 371 c 128,-1,25
 112 389 112 389 153.5 389 c 128,-1,26
 195 389 195 389 224.5 365 c 128,-1,27
 254 341 254 341 254 297.5 c 128,-1,28
 254 254 254 254 241.5 218.5 c 128,-1,29
 229 183 229 183 200.5 149.5 c 128,-1,30
 172 116 172 116 155.5 100 c 128,-1,31
 139 84 139 84 101 51 c 1,32,33
 143 53 143 53 240 53 c 0,34,35
 254 53 254 53 262 46 c 128,-1,36
 270 39 270 39 270 28.5 c 0,0,1
EndSplineSet
Substitution2: "'lnum' Lining Figures in Latin lookup 4 subtable" two
Substitution2: "'smcp' Lowercase to Small Capitals in Latin lookup 0 subtable" two.smcp
EndChar

StartChar: three.onum
Encoding: 65540 -1 65
Width: 437
Flags: HW
HStem: -255 62<153.81 284.778> 40 66<207.042 276.536> 322 67<160.679 270.275>
VStem: 27 64<-124.747 -10.9287> 310 68<139.858 280.085> 347 65<-132.441 -17.7737>
LayerCount: 2
Fore
SplineSet
140 283 m 1,0,1
 129 276 129 276 116 276 c 128,-1,2
 103 276 103 276 93.5 285.5 c 128,-1,3
 84 295 84 295 84 307.5 c 128,-1,4
 84 320 84 320 91 331 c 1,5,6
 125 364 125 364 150 376.5 c 128,-1,7
 175 389 175 389 216 389 c 0,8,9
 288 389 288 389 333 345.5 c 128,-1,10
 378 302 378 302 378 235 c 128,-1,11
 378 168 378 168 351.5 128 c 128,-1,12
 325 88 325 88 280 74 c 1,13,14
 334 72 334 72 373 23 c 128,-1,15
 412 -26 412 -26 412 -90.5 c 128,-1,16
 412 -155 412 -155 358.5 -205 c 128,-1,17
 305 -255 305 -255 226.5 -255 c 128,-1,18
 148 -255 148 -255 87.5 -198 c 128,-1,19
 27 -141 27 -141 27 -44 c 0,20,21
 27 -28 27 -28 40 -17 c 128,-1,22
 53 -6 53 -6 67 -6 c 0,23,24
 91 -6 91 -6 91 -34 c 0,25,26
 91 -106 91 -106 129.5 -149.5 c 128,-1,27
 168 -193 168 -193 218.5 -193 c 128,-1,28
 269 -193 269 -193 308 -152.5 c 128,-1,29
 347 -112 347 -112 347 -73 c 128,-1,30
 347 -34 347 -34 312.5 -2.5 c 128,-1,31
 278 29 278 29 231 40 c 0,32,33
 205 46 205 46 205 72.5 c 128,-1,34
 205 99 205 99 234 106 c 0,35,36
 310 124 310 124 310 210 c 0,37,38
 310 253 310 253 283.5 287.5 c 128,-1,39
 257 322 257 322 218 322 c 128,-1,40
 179 322 179 322 140 283 c 1,0,1
EndSplineSet
Substitution2: "'lnum' Lining Figures in Latin lookup 4 subtable" three
Substitution2: "'smcp' Lowercase to Small Capitals in Latin lookup 0 subtable" three.smcp
EndChar

StartChar: four.onum
Encoding: 65541 -1 66
Width: 341
Flags: HW
HStem: -1 68<100.105 232.507> 6 64<153.266 233> 370 20G<107.5 123.5>
VStem: 28 71<70.2795 261.71> 231 72<-189.457 6 70 192.736>
LayerCount: 2
Fore
SplineSet
266 -254 m 0,0,1
 231 -254 231 -254 231 -154 c 2,2,-1
 231 -79 l 2,3,4
 231 -44 231 -44 233 6 c 1,5,6
 198 -1 198 -1 132.5 -1 c 128,-1,7
 67 -1 67 -1 47.5 22.5 c 128,-1,8
 28 46 28 46 28 108.5 c 128,-1,9
 28 171 28 171 41.5 241.5 c 128,-1,10
 55 312 55 312 73 356 c 0,11,12
 87 390 87 390 115 390 c 0,13,14
 128 390 128 390 138 381.5 c 128,-1,15
 148 373 148 373 148 365 c 128,-1,16
 148 357 148 357 146 349 c 0,17,18
 99 194.84 99 194.84 99 125 c 0,19,20
 99 84 99 84 100 71 c 1,21,22
 123 67 123 67 138 67 c 128,-1,23
 153 67 153 67 234 70 c 1,24,25
 235 86 235 86 236 115 c 0,26,27
 238.393939394 184.424242424 238.393939394 184.424242424 241.5 213 c 0,28,29
 246.826086957 262 246.826086957 262 269 262 c 0,30,31
 293 262 293 262 302.5 248.5 c 128,-1,32
 312 235 312 235 312 195.5 c 128,-1,33
 312 156 312 156 307.5 77 c 128,-1,34
 303 -2 303 -2 303 -10 c 2,35,-1
 309 -192 l 2,36,37
 309 -217 309 -217 298.5 -235.5 c 128,-1,38
 288 -254 288 -254 266 -254 c 0,0,1
EndSplineSet
Substitution2: "'lnum' Lining Figures in Latin lookup 4 subtable" four
Substitution2: "'smcp' Lowercase to Small Capitals in Latin lookup 0 subtable" four.smcp
EndChar

StartChar: five.onum
Encoding: 65542 -1 67
Width: 426
Flags: HW
HStem: -251 73<143.475 274.846> -1 21G<71 85> 49 74<143.804 293.587> 327 64<107 354.699>
VStem: 43 64<-142.575 -77.985 89 327> 319 68<-135.116 22.8899>
LayerCount: 2
Fore
SplineSet
81 391 m 1,0,-1
 336 390 l 1,1,2
 360 384 360 384 360 366 c 0,3,4
 360 354 360 354 350 342 c 128,-1,5
 340 330 340 330 326 326 c 1,6,-1
 163 328 l 1,7,-1
 107 327 l 1,8,-1
 107 301 l 2,9,10
 107 266 107 266 108.5 194 c 128,-1,11
 110 122 110 122 110 89 c 1,12,13
 184 123 184 123 235 123 c 0,14,15
 306 123 306 123 346.5 66.5 c 128,-1,16
 387 10 387 10 387 -75.5 c 128,-1,17
 387 -161 387 -161 338.5 -206 c 128,-1,18
 290 -251 290 -251 211.5 -251 c 128,-1,19
 133 -251 133 -251 88 -209.5 c 128,-1,20
 43 -168 43 -168 40 -116 c 0,21,22
 40 -99 40 -99 51.5 -87 c 128,-1,23
 63 -75 63 -75 80.5 -75 c 128,-1,24
 98 -75 98 -75 104 -97 c 0,25,26
 115 -137 115 -137 143 -157.5 c 128,-1,27
 171 -178 171 -178 210 -178 c 128,-1,28
 249 -178 249 -178 284 -149.5 c 128,-1,29
 319 -121 319 -121 319 -77 c 0,30,31
 319 -14 319 -14 301.5 17.5 c 128,-1,32
 284 49 284 49 237 49 c 0,33,34
 212 49 212 49 173.5 38 c 128,-1,35
 135 27 135 27 116 13 c 128,-1,36
 97 -1 97 -1 81.5 -1 c 128,-1,37
 66 -1 66 -1 56 7 c 128,-1,38
 46 15 46 15 46 29 c 2,39,-1
 43 356 l 1,40,41
 51 385 51 385 81 391 c 1,0,-1
EndSplineSet
Substitution2: "'lnum' Lining Figures in Latin lookup 4 subtable" five
Substitution2: "'smcp' Lowercase to Small Capitals in Latin lookup 0 subtable" five.smcp
EndChar

StartChar: six.onum
Encoding: 65543 -1 68
Width: 387
Flags: HW
HStem: 5 64<130.792 238.756> 321 70<127.866 258.373>
VStem: 25 68<112.25 297.785> 298 67<132.485 281.69>
LayerCount: 2
Fore
SplineSet
129.5 309 m 128,-1,1
 104 297 104 297 98.5 273.5 c 128,-1,2
 93 250 93 250 93 203 c 128,-1,3
 93 156 93 156 114 112.5 c 128,-1,4
 135 69 135 69 182 69 c 128,-1,5
 229 69 229 69 263.5 113 c 128,-1,6
 298 157 298 157 298 207.5 c 128,-1,7
 298 258 298 258 270.5 289.5 c 128,-1,8
 243 321 243 321 187 321 c 0,9,0
 155 321 155 321 129.5 309 c 128,-1,1
174 576 m 0,10,11
 187 598 187 598 216 598 c 128,-1,12
 245 598 245 598 245 575 c 0,13,14
 245 569 245 569 240 557 c 1,15,16
 230 540 230 540 186.5 479 c 128,-1,17
 143 418 143 418 127 377 c 1,18,19
 163 391 163 391 201 391 c 0,20,21
 281 391 281 391 323 339.5 c 128,-1,22
 365 288 365 288 365 200 c 128,-1,23
 365 112 365 112 309 58.5 c 128,-1,24
 253 5 253 5 177 5 c 0,25,26
 25 5 25 5 25 216 c 0,27,28
 25 301 25 301 77 424 c 0,29,30
 90 456 90 456 131.5 515 c 128,-1,31
 173 574 173 574 174 576 c 0,10,11
EndSplineSet
Substitution2: "'lnum' Lining Figures in Latin lookup 4 subtable" six
Substitution2: "'smcp' Lowercase to Small Capitals in Latin lookup 0 subtable" six.smcp
EndChar

StartChar: seven.onum
Encoding: 65544 -1 69
Width: 454
Flags: HW
HStem: -259 21G<271 293> 10 70<109.749 261> 14 73<333 430.473> 274 73<342.557 381.251> 320 70<25.9668 158.465>
VStem: 253 71<-252.2 -1.43608>
LayerCount: 2
Fore
SplineSet
333 87 m 1,0,-1
 410 89 l 1,1,2
 437 82 437 82 437 61 c 0,3,4
 437 24.2307692308 437 24.2307692308 402 17.5 c 0,5,6
 383.8 14 383.8 14 360.4 14 c 2,7,-1
 329 14 l 1,8,9
 324 -32 324 -32 324 -92.5 c 128,-1,10
 324 -153 324 -153 327 -216 c 1,11,12
 324 -232 324 -232 311 -245.5 c 128,-1,13
 298 -259 298 -259 283 -259 c 0,14,15
 253 -259 253 -259 253 -162 c 0,16,17
 253 -128 253 -128 257 -69.5 c 128,-1,18
 261 -11 261 -11 261 0 c 128,-1,19
 261 11 261 11 260 13 c 1,20,-1
 131 10 l 2,21,22
 118 10 118 10 109.5 17 c 128,-1,23
 101 24 101 24 101 36.5 c 128,-1,24
 101 49 101 49 114 63.5 c 128,-1,25
 127 78 127 78 143 80 c 1,26,-1
 264 84 l 1,27,28
 267 109 267 109 272 190.5 c 128,-1,29
 277 272 277 272 277 277 c 1,30,31
 234 284 234 284 153.5 299.5 c 128,-1,32
 73 315 73 315 43 320 c 1,33,34
 23 329 23 329 23 356 c 0,35,36
 23 368 23 368 34 379 c 128,-1,37
 45 390 45 390 59 390 c 2,38,-1
 64 390 l 1,39,40
 66 389 66 389 205.5 371 c 128,-1,41
 345 353 345 353 357 347 c 0,42,43
 384 334 384 334 384 316 c 0,44,45
 384 274 384 274 350 274 c 2,46,-1
 344 274 l 1,47,48
 336 185 336 185 333 87 c 1,0,-1
EndSplineSet
Substitution2: "'lnum' Lining Figures in Latin lookup 4 subtable" seven
Substitution2: "'smcp' Lowercase to Small Capitals in Latin lookup 0 subtable" seven.smcp
EndChar

StartChar: eight.onum
Encoding: 65545 -1 70
Width: 377
Flags: HW
HStem: 2 62<126.322 260.729> 544 49<128.734 254.584>
VStem: 29 69<91.6931 212.874> 50 60<420.691 524.277> 281 64<84.3422 204.959> 291 55<423.998 509.796>
LayerCount: 2
Fore
SplineSet
200 544 m 0,0,1
 110 544 110 544 110 472 c 0,2,3
 110 418 110 418 194 376 c 1,4,5
 230 392 230 392 260.5 416 c 128,-1,6
 291 440 291 440 291 466 c 128,-1,7
 291 492 291 492 261 518 c 128,-1,8
 231 544 231 544 200 544 c 0,0,1
281 130 m 1,9,10
 281 199 281 199 193 293 c 1,11,12
 158 270 158 270 128 227 c 128,-1,13
 98 184 98 184 98 147 c 128,-1,14
 98 110 98 110 123.5 87 c 128,-1,15
 149 64 149 64 190 64 c 128,-1,16
 231 64 231 64 255.5 80.5 c 128,-1,17
 280 97 280 97 281 130 c 1,9,10
93 565.5 m 128,-1,19
 136 593 136 593 200 593 c 128,-1,20
 264 593 264 593 305 556 c 128,-1,21
 346 519 346 519 346 468 c 0,22,23
 346 433 346 433 315.5 396 c 128,-1,24
 285 359 285 359 237 331 c 1,25,26
 249 315 249 315 262.5 301.5 c 128,-1,27
 276 288 276 288 287.5 274 c 128,-1,28
 299 260 299 260 303.5 253 c 128,-1,29
 308 246 308 246 316.5 233 c 128,-1,30
 325 220 325 220 328.5 210 c 128,-1,31
 332 200 332 200 338.5 183.1 c 0,32,33
 345 166.2 345 166.2 345 134 c 0,34,35
 345 70 345 70 302.5 36 c 128,-1,36
 260 2 260 2 194 2 c 128,-1,37
 128 2 128 2 78.5 37 c 128,-1,38
 29 72 29 72 29 127.5 c 128,-1,39
 29 183 29 183 63.5 237.5 c 128,-1,40
 98 292 98 292 149 333 c 1,41,42
 108 356 108 356 79 397 c 128,-1,43
 50 438 50 438 50 481 c 0,44,18
 50 538 50 538 93 565.5 c 128,-1,19
EndSplineSet
Substitution2: "'lnum' Lining Figures in Latin lookup 4 subtable" eight
Substitution2: "'smcp' Lowercase to Small Capitals in Latin lookup 0 subtable" eight.smcp
EndChar

StartChar: nine.onum
Encoding: 65546 -1 71
Width: 369
Flags: HW
HStem: -259 21G<263 291> 5 76<140.836 247.475> 331 63<152.889 248.966>
VStem: 54 55<119.105 281.263> 252 69<-252 -155> 266 61<106.015 315.555>
LayerCount: 2
Fore
SplineSet
260 107 m 1,0,-1
 266 220 l 1,1,2
 266 281 266 281 252 306 c 128,-1,3
 238 331 238 331 202 331 c 128,-1,4
 166 331 166 331 137.5 292 c 128,-1,5
 109 253 109 253 109 203 c 128,-1,6
 109 153 109 153 129.5 118.5 c 128,-1,7
 150 84 150 84 171 81 c 1,8,-1
 176 81 l 2,9,10
 196 81 196 81 223 88.5 c 128,-1,11
 250 96 250 96 260 107 c 1,0,-1
319 -155 m 1,12,-1
 321 -214 l 1,13,14
 319 -232 319 -232 307 -245.5 c 128,-1,15
 295 -259 295 -259 282 -259 c 0,16,17
 251 -259 251 -259 251 -190.5 c 1,18,-1
 252 -159 l 2,19,20
 252 -130 252 -130 254 -71.5 c 128,-1,21
 256 -13 256 -13 256 33 c 1,22,23
 222 5 222 5 181 5 c 0,24,25
 165 5 165 5 156 6 c 0,26,27
 107 9 107 9 80.5 71.5 c 128,-1,28
 54 134 54 134 54 213 c 0,29,30
 54 394 54 394 207 394 c 0,31,32
 273 394 273 394 300 346.5 c 128,-1,33
 327 299 327 299 327 231 c 0,34,35
 326.943758966 20.3321632631 326.943758966 20.3321632631 319 -155 c 1,12,-1
EndSplineSet
Substitution2: "'lnum' Lining Figures in Latin lookup 4 subtable" nine
Substitution2: "'smcp' Lowercase to Small Capitals in Latin lookup 0 subtable" nine.smcp
EndChar

StartChar: fraction
Encoding: 8260 8260 72
Width: 510
Flags: HW
LayerCount: 2
Fore
SplineSet
431 594 m 1,0,1
 446 609 446 609 463 609 c 0,2,3
 488 609 488 609 488 588 c 0,4,5
 488 579 488 579 480 566 c 1,6,7
 417 478 417 478 288.5 286 c 128,-1,8
 160 94 160 94 93 0 c 1,9,10
 81 -11 81 -11 65 -11 c 0,11,12
 41 -11 41 -11 41 10 c 0,13,14
 41 20 41 20 46 29 c 1,15,16
 116 125 116 125 242.5 316.5 c 128,-1,17
 369 508 369 508 431 594 c 1,0,1
EndSplineSet
EndChar

StartChar: AE
Encoding: 198 198 73
Width: 551
Flags: HW
HStem: 0 63<339 515.332> 239 68<143.749 264> 249 61<334 493.728> 467 67<330 525.211>
VStem: 30 60<1.75806 167.231> 267 72<63 238.864 430 468.866>
LayerCount: 2
Fore
SplineSet
188 307 m 2,0,-1
 264 310 l 1,1,2
 265 326 265 326 265 352 c 128,-1,3
 265 378 265 378 263 416 c 128,-1,4
 261 454 261 454 261 469 c 1,5,6
 227 446 227 446 195 401 c 128,-1,7
 163 356 163 356 143 311 c 1,8,9
 164 307 164 307 188 307 c 2,0,-1
310 536 m 2,10,-1
 501 534 l 1,11,12
 532 527 532 527 532 507 c 0,13,14
 532 467 532 467 440 467 c 2,15,-1
 415 467 l 2,16,17
 396 467 396 467 330 473 c 1,18,19
 330 351 330 351 333 310 c 1,20,-1
 466 307 l 1,21,22
 496 302 496 302 496 281 c 0,23,24
 496 270 496 270 486.5 259.5 c 128,-1,25
 477 249 477 249 463 246 c 1,26,-1
 356 249 l 1,27,-1
 334 249 l 1,28,-1
 339 85 l 1,29,-1
 339 63 l 1,30,-1
 496 66 l 1,31,32
 523 62 523 62 523 42 c 0,33,34
 523 30 523 30 512 17.5 c 128,-1,35
 501 5 501 5 486 1 c 1,36,-1
 317 0 l 2,37,38
 267 0 267 0 267 26 c 2,39,-1
 269 241 l 1,40,-1
 194 239 l 1,41,42
 154 239 154 239 127 247 c 1,43,44
 115 199 115 199 90 17 c 0,45,46
 87 1 87 1 58.5 1 c 128,-1,47
 30 1 30 1 30 25 c 0,48,49
 30 117.666666667 30 117.666666667 51.5 210.833333333 c 128,-1,50
 73 304 73 304 103 356 c 0,51,52
 164 462 164 462 208 499 c 128,-1,53
 252 536 252 536 310 536 c 2,10,-1
EndSplineSet
Substitution2: "'c2sc' Capitals to Small Capitals in Latin lookup 1 subtable" AE.smcp
EndChar

StartChar: ae
Encoding: 230 230 74
Width: 569
Flags: HW
HStem: -3 73<338.19 436.663> 0 58<115.197 205.019> 177 59<313 409.734> 320 63<135.437 233.139> 328 58<337.248 425.102>
VStem: 29 57<92.1249 171> 429 72<256.147 323.377>
LayerCount: 2
Fore
SplineSet
386 328 m 0,0,1
 351.333333333 328 351.333333333 328 330 296 c 0,2,3
 320 281 320 281 317.5 270.5 c 128,-1,4
 315 260 315 260 311 236 c 1,5,6
 429 236 429 236 429 293 c 0,7,8
 429 310 429 310 416.5 319 c 128,-1,9
 404 328 404 328 386 328 c 0,0,1
220 103 m 0,10,11
 247 176 247 176 247 236 c 0,12,13
 247 320 247 320 188 320 c 0,14,15
 105.546845268 320.064971981 105.546845268 320.064971981 86 171 c 1,16,17
 86 129 86 129 105.5 93.5 c 128,-1,18
 125 58 125 58 158 58 c 0,19,20
 178 58 178 58 195.5 70.5 c 128,-1,21
 213 83 213 83 220 103 c 0,10,11
468 229.5 m 128,-1,23
 435 197 435 197 401 187 c 128,-1,24
 367 177 367 177 313 177 c 1,25,26
 317 143 317 143 322.5 123 c 128,-1,27
 328 103 328 103 343 86.5 c 128,-1,28
 358 70 358 70 386 70 c 128,-1,29
 414 70 414 70 454.5 105 c 128,-1,30
 495 140 495 140 505.5 140 c 128,-1,31
 516 140 516 140 528 125 c 128,-1,32
 540 110 540 110 540 100 c 0,33,34
 540 80 540 80 484 38.5 c 128,-1,35
 428 -3 428 -3 369 -3 c 2,36,-1
 363 -3 l 1,37,38
 336.873239437 4.46478873239 336.873239437 4.46478873239 307.436619718 23.7323943662 c 128,-1,39
 278 43 278 43 261 67 c 1,40,41
 242 34 242 34 210 17 c 128,-1,42
 178 0 178 0 143 0 c 0,43,44
 29 0 29 0 29 147 c 0,45,46
 29 274.517241379 29 274.517241379 106.5 344 c 0,47,48
 150 383 150 383 208 383 c 128,-1,49
 266 383 266 383 283 353 c 1,50,51
 296 364 296 364 324 375 c 128,-1,52
 352 386 352 386 372 386 c 0,53,54
 420 386 420 386 460.5 361 c 128,-1,55
 501 336 501 336 501 299 c 128,-1,22
 501 262 501 262 468 229.5 c 128,-1,23
EndSplineSet
Substitution2: "'smcp' Lowercase to Small Capitals in Latin lookup 0 subtable" AE.smcp
EndChar

StartChar: Thorn
Encoding: 222 222 75
Width: 410
Flags: HW
HStem: 0 21G<66 81> 183 64<114 269.79> 428 65<114 254.067> 536 20G<76.5 89.5>
VStem: 50 64<6.562 184 248.611 427.969 490 553.416>
LayerCount: 2
Fore
SplineSet
309 329 m 1,0,1
 298 428 298 428 146 428 c 0,2,3
 124 428 124 428 114 427 c 1,4,-1
 114 250 l 1,5,6
 168 247 168 247 174 247 c 0,7,8
 292 247 292 247 309 329 c 1,0,1
50 527 m 1,9,10
 58 556 58 556 80 556 c 128,-1,11
 102 556 102 556 114 537 c 1,12,-1
 114 490 l 1,13,14
 136.5 493 136.5 493 168.75 493 c 128,-1,15
 201 493 201 493 236 485 c 128,-1,16
 271 477 271 477 302 459.5 c 128,-1,17
 333 442 333 442 351 410 c 128,-1,18
 369 378 369 378 369 335 c 0,19,20
 369 183 369 183 156 183 c 0,21,22
 128 183 128 183 114 184 c 1,23,-1
 114 39 l 1,24,25
 112 23 112 23 99 11.5 c 128,-1,26
 86 0 86 0 72 0 c 0,27,28
 50 0 50 0 50 29 c 2,29,-1
 50 527 l 1,9,10
EndSplineSet
Substitution2: "'c2sc' Capitals to Small Capitals in Latin lookup 1 subtable" Thorn.smcp
EndChar

StartChar: thorn
Encoding: 254 254 76
Width: 379
Flags: HW
HStem: 1 65<100.451 241.221> 323 66<127.344 242.702>
VStem: 36 64<-248.899 14 72.75 296.044 349 476.909> 279 67<103.626 284.082>
LayerCount: 2
Fore
SplineSet
174 323 m 1,0,1
 142 319 142 319 121 295 c 128,-1,2
 100 271 100 271 100 251 c 2,3,-1
 100 81 l 1,4,5
 102 81 102 81 117.833333333 73.5 c 0,6,7
 133.666666667 66 133.666666667 66 164 66 c 0,8,9
 279 66 279 66 279 184 c 0,10,11
 279 248 279 248 257 285.5 c 128,-1,12
 235 323 235 323 174 323 c 1,0,1
36 56 m 1,13,-1
 33 454 l 2,14,15
 33 479 33 479 63 479 c 128,-1,16
 93 479 93 479 100 456 c 1,17,-1
 100 349 l 1,18,19
 106 363 106 363 128 376 c 128,-1,20
 150 389 150 389 188 389 c 0,21,22
 272 389 272 389 309 330 c 128,-1,23
 346 271 346 271 346 185 c 128,-1,24
 346 99 346 99 297.5 50 c 128,-1,25
 249 1 249 1 163 1 c 0,26,27
 129 1 129 1 100 14 c 1,28,-1
 99 -219 l 1,29,30
 95 -235 95 -235 82.5 -246 c 128,-1,31
 70 -257 70 -257 56 -257 c 0,32,33
 34 -257 34 -257 34 -229 c 2,34,-1
 36 56 l 1,13,-1
EndSplineSet
Substitution2: "'smcp' Lowercase to Small Capitals in Latin lookup 0 subtable" Thorn.smcp
EndChar

StartChar: eth
Encoding: 240 240 77
Width: 386
Flags: HW
HStem: -2 66<143.275 238.968> 311 59<142.787 204.842> 393 21G<114.5 125.5> 535 20G<124.5 137 233 244>
VStem: 40 63<109.88 265.843> 279 64<108.323 268.298>
LayerCount: 2
Fore
SplineSet
233 80 m 1,0,1
 279 119 279 119 279 189 c 0,2,3
 279 232 279 232 256 271.5 c 128,-1,4
 233 311 233 311 191.5 311 c 128,-1,5
 150 311 150 311 126.5 274.5 c 128,-1,6
 103 238 103 238 103 190.5 c 128,-1,7
 103 143 103 143 128 103.5 c 128,-1,8
 153 64 153 64 194 64 c 0,9,10
 216 64 216 64 233 80 c 1,0,1
236 554 m 0,11,12
 261 554 261 554 261 527 c 0,13,14
 261 514 261 514 250 503 c 2,15,-1
 216 469 l 1,16,17
 248 428 248 428 258 415.5 c 128,-1,18
 268 403 268 403 290 370 c 128,-1,19
 312 337 312 337 319 316.5 c 0,20,21
 341.467505241 250.70230608 341.467505241 250.70230608 342.233752621 189.35115304 c 128,-1,22
 343 128 343 128 293.5 63 c 128,-1,23
 244 -2 244 -2 180 -2 c 128,-1,24
 116 -2 116 -2 78 53.5 c 128,-1,25
 40 109 40 109 40 177 c 128,-1,26
 40 245 40 245 85.5 307.5 c 128,-1,27
 131 370 131 370 206 370 c 1,28,-1
 164 423 l 1,29,-1
 146 401 l 1,30,31
 132 393 132 393 121.5 393 c 128,-1,32
 111 393 111 393 104 399.5 c 128,-1,33
 97 406 97 406 97 416.75 c 128,-1,34
 97 427.5 97 427.5 106 441 c 1,35,-1
 130 467 l 1,36,37
 105 492 105 492 105 499 c 1,38,-1
 106 499 l 1,39,40
 97 508 97 508 97 520.5 c 128,-1,41
 97 533 97 533 108.5 544 c 128,-1,42
 120 555 120 555 130.5 555 c 128,-1,43
 141 555 141 555 151 550 c 1,44,-1
 181 513 l 1,45,-1
 210 543 l 1,46,47
 224 554 224 554 236 554 c 0,11,12
EndSplineSet
Substitution2: "'smcp' Lowercase to Small Capitals in Latin lookup 0 subtable" Eth.smcp
EndChar

StartChar: germandbls
Encoding: 223 223 78
Width: 441
Flags: HW
HStem: -34 58<227.568 302.986> 254 49<148.424 198.533> 513 67<152.547 249.857>
VStem: 33 63<107.668 430.289> 38 71<-249.366 15.005> 144 66<41.4153 90.165> 267 61<362.291 495.653> 331 63<54.8626 225.091>
LayerCount: 2
Fore
SplineSet
41 137 m 1,0,-1
 33 329 l 1,1,2
 33 436 33 436 70 508 c 128,-1,3
 107 580 107 580 195 580 c 0,4,5
 252 580 252 580 290 539 c 128,-1,6
 328 498 328 498 328 447 c 0,7,8
 328 427.769230769 328 427.769230769 319 390.384615385 c 0,9,10
 300.932684509 315.335766423 300.932684509 315.335766423 250 297 c 1,11,12
 324 292 324 292 359 245.5 c 128,-1,13
 394 199 394 199 394 135 c 0,14,15
 394 -34 394 -34 253 -34 c 0,16,17
 159 -34 159 -34 144 50 c 1,18,19
 144 68 144 68 156.5 82 c 128,-1,20
 169 96 169 96 184.5 96 c 128,-1,21
 200 96 200 96 210 81 c 1,22,23
 228 24 228 24 262 24 c 128,-1,24
 296 24 296 24 313.5 60.5 c 128,-1,25
 331 97 331 97 331 154 c 128,-1,26
 331 211 331 211 304 233.5 c 128,-1,27
 277 256 277 256 199 256 c 0,28,29
 186 256 186 256 176 254 c 1,30,31
 163 255 163 255 155.5 262.5 c 128,-1,32
 148 270 148 270 148 280 c 0,33,34
 148 300 148 300 170 303 c 1,35,36
 267 340 267 340 267 441 c 0,37,38
 267 509 267 509 194 513 c 1,39,40
 150 513 150 513 123 445.5 c 128,-1,41
 96 378 96 378 96 298 c 0,42,43
 96 62 96 62 109 -216 c 1,44,45
 106 -232 106 -232 92.5 -245 c 128,-1,46
 79 -258 79 -258 67 -258 c 128,-1,47
 55 -258 55 -258 46.125 -247.759615385 c 0,48,49
 37.25 -237.519230769 37.25 -237.519230769 37.25 -184.75 c 2,50,-1
 38 -134 l 1,51,-1
 41 137 l 1,0,-1
EndSplineSet
Substitution2: "'smcp' Lowercase to Small Capitals in Latin lookup 0 subtable" germandbls.smcp
EndChar

StartChar: acute
Encoding: 180 180 79
Width: 206
Flags: HW
HStem: 600 141<73 139>
VStem: 43 126
LayerCount: 2
Fore
SplineSet
114 727 m 1,0,1
 122 741 122 741 136.5 741 c 128,-1,2
 151 741 151 741 160 731 c 128,-1,3
 169 721 169 721 169 704 c 1,4,5
 145.363636364 654.363636364 145.363636364 654.363636364 118.181818182 627.181818182 c 128,-1,6
 91 600 91 600 75 600 c 128,-1,7
 59 600 59 600 51 608.5 c 128,-1,8
 43 617 43 617 43 628 c 128,-1,9
 43 639 43 639 56 654 c 1,10,11
 89 672 89 672 114 727 c 1,0,1
EndSplineSet
EndChar

StartChar: grave
Encoding: 96 96 80
Width: 184
Flags: HW
HStem: 495 58<96.7773 162.406>
VStem: 18 146
LayerCount: 2
Fore
SplineSet
66 604 m 1,0,1
 107 559 107 559 143 553 c 1,2,3
 164 539 164 539 164 526 c 128,-1,4
 164 513 164 513 155 504 c 128,-1,5
 146 495 146 495 132 495 c 0,6,7
 100 495 100 495 59 530.5 c 128,-1,8
 18 566 18 566 18 581 c 128,-1,9
 18 596 18 596 26.5 604 c 128,-1,10
 35 612 35 612 45.5 612 c 128,-1,11
 56 612 56 612 66 604 c 1,0,1
EndSplineSet
EndChar

StartChar: circumflex
Encoding: 710 710 81
Width: 271
Flags: HW
HStem: 594 112
VStem: 30 204<610 643>
LayerCount: 2
Fore
SplineSet
131 649 m 1,0,1
 128 647 128 647 99.84375 620.5 c 0,2,3
 71.6875 594 71.6875 594 58.34375 594 c 128,-1,4
 45 594 45 594 37.5 604 c 128,-1,5
 30 614 30 614 30 627 c 128,-1,6
 30 640 30 640 72 673 c 128,-1,7
 114 706 114 706 132.5 706 c 128,-1,8
 151 706 151 706 192.5 675.5 c 128,-1,9
 234 645 234 645 234 624 c 0,10,11
 234 612 234 612 223.5 604 c 128,-1,12
 213 596 213 596 204 596 c 128,-1,13
 195 596 195 596 168 617 c 128,-1,14
 141 638 141 638 131 649 c 1,0,1
EndSplineSet
EndChar

StartChar: caron
Encoding: 711 711 82
Width: 326
Flags: HW
HStem: 534 132
VStem: 54 226
LayerCount: 2
Fore
SplineSet
280 643 m 1,0,-1
 279 637 l 1,1,2
 273 620 273 620 225.5 577 c 128,-1,3
 178 534 178 534 162 534 c 128,-1,4
 146 534 146 534 105 575 c 128,-1,5
 64 616 64 616 54 643 c 1,6,7
 57 666 57 666 78 666 c 0,8,9
 90 666 90 666 101.5 656 c 128,-1,10
 113 646 113 646 131 624 c 128,-1,11
 149 602 149 602 163 589 c 1,12,13
 203 619 203 619 229 650 c 0,14,15
 238 661 238 661 259 661 c 128,-1,16
 280 661 280 661 280 643 c 1,0,-1
EndSplineSet
EndChar

StartChar: hungarumlaut
Encoding: 733 733 83
Width: 256
Flags: HW
HStem: 505 150
VStem: 81 56<583.005 654.136> 187 56<579.4 650.778>
LayerCount: 2
Fore
SplineSet
187 634 m 1,0,1
 194 652 194 652 213 652 c 0,2,3
 239 652 239 652 243 621 c 1,4,5
 207 503 207 503 160 503 c 0,6,7
 146 503 146 503 138.5 511 c 128,-1,8
 131 519 131 519 131 530.5 c 128,-1,9
 131 542 131 542 140 554 c 1,10,11
 173 577 173 577 187 634 c 1,0,1
81 636 m 1,12,13
 92 655 92 655 106 655 c 128,-1,14
 120 655 120 655 128 646 c 128,-1,15
 136 637 136 637 137 623 c 1,16,17
 128 586 128 586 105.5 545.5 c 128,-1,18
 83 505 83 505 55 505 c 0,19,20
 40 505 40 505 33 513 c 128,-1,21
 26 521 26 521 26 532 c 128,-1,22
 26 543 26 543 34 556 c 1,23,24
 67 579 67 579 81 636 c 1,12,13
EndSplineSet
EndChar

StartChar: dieresis
Encoding: 168 168 84
Width: 337
Flags: HW
HStem: 446 77<65.2202 135.643 202.79 273.336>
VStem: 57 83<449.223 515.404> 199 82<453.133 519.606>
LayerCount: 2
Fore
SplineSet
71.5 509.5 m 128,-1,1
 86 524 86 524 102.5 524 c 128,-1,2
 119 524 119 524 129 512 c 128,-1,3
 139 500 139 500 140 481 c 1,4,5
 137 464 137 464 124 453.5 c 128,-1,6
 111 443 111 443 94 443 c 0,7,8
 63 443 63 443 57 476 c 1,9,0
 57 495 57 495 71.5 509.5 c 128,-1,1
244 523 m 0,10,11
 258 523 258 523 269 515 c 128,-1,12
 280 507 280 507 281 491 c 1,13,14
 278 469 278 469 265 457.5 c 128,-1,15
 252 446 252 446 236.5 446 c 128,-1,16
 221 446 221 446 210 456.5 c 128,-1,17
 199 467 199 467 199 486 c 0,18,19
 199 523 199 523 244 523 c 0,10,11
EndSplineSet
EndChar

StartChar: dotaccent
Encoding: 729 729 85
Width: 117
Flags: HW
HStem: 447 69<29.0691 87.6023>
VStem: 26 65<449.911 512.492>
LayerCount: 2
Fore
SplineSet
26 483 m 1,0,1
 29 499 29 499 35.5 505.5 c 128,-1,2
 42 512 42 512 59 516 c 1,3,4
 72 516 72 516 81.5 505.5 c 128,-1,5
 91 495 91 495 91 482.5 c 128,-1,6
 91 470 91 470 80.5 458.5 c 128,-1,7
 70 447 70 447 59 447 c 0,8,9
 30 447 30 447 26 483 c 1,0,1
EndSplineSet
EndChar

StartChar: tilde
Encoding: 732 732 86
Width: 391
Flags: HW
HStem: 419 47<197.152 270.472> 457 52<113.04 186.9>
VStem: 62 262<457.648 464.976>
LayerCount: 2
Fore
SplineSet
182.5 438 m 128,-1,1
 154 457 154 457 142 457 c 128,-1,2
 130 457 130 457 115.5 439 c 128,-1,3
 101 421 101 421 92 421 c 128,-1,4
 83 421 83 421 72.5 429 c 128,-1,5
 62 437 62 437 62 448 c 0,6,7
 62 468 62 468 90 488.5 c 128,-1,8
 118 509 118 509 139.5 509 c 128,-1,9
 161 509 161 509 193 490 c 128,-1,10
 225 471 225 471 239 466 c 1,11,12
 249 466 249 466 269 486 c 128,-1,13
 289 506 289 506 298 506 c 128,-1,14
 307 506 307 506 315.5 498.5 c 128,-1,15
 324 491 324 491 324 482 c 0,16,17
 324 462 324 462 292.5 440.5 c 128,-1,18
 261 419 261 419 236 419 c 128,-1,0
 211 419 211 419 182.5 438 c 128,-1,1
EndSplineSet
EndChar

StartChar: breve
Encoding: 728 728 87
Width: 250
Flags: HW
HStem: 390 54<88.2562 165.642>
VStem: 19 212<423.589 491>
LayerCount: 2
Fore
SplineSet
19 474 m 0,0,1
 19 487 19 487 28 497 c 128,-1,2
 37 507 37 507 49.5 507 c 128,-1,3
 62 507 62 507 70 497 c 128,-1,4
 78 487 78 487 82.5 475.5 c 128,-1,5
 87 464 87 464 98.5 454 c 128,-1,6
 110 444 110 444 131.5 444 c 128,-1,7
 153 444 153 444 171.5 473.5 c 128,-1,8
 190 503 190 503 202.5 503 c 128,-1,9
 215 503 215 503 223 494.5 c 128,-1,10
 231 486 231 486 231 473 c 0,11,12
 231 438 231 438 198 414 c 128,-1,13
 165 390 165 390 126 390 c 128,-1,14
 87 390 87 390 53 412 c 128,-1,15
 19 434 19 434 19 474 c 0,0,1
EndSplineSet
EndChar

StartChar: ring
Encoding: 730 730 88
Width: 169
Flags: HW
HStem: 409 44<59.3491 113.053> 509 35<62.4494 111.94>
VStem: 17 42<453.273 507.042> 114 40<454.079 508.154>
LayerCount: 2
Fore
SplineSet
107.5 501 m 128,-1,1
 101 509 101 509 89.5 509 c 128,-1,2
 78 509 78 509 68.5 500.5 c 128,-1,3
 59 492 59 492 59 479 c 0,4,5
 59 453 59 453 84 453 c 0,6,7
 114 453 114 453 114 482 c 0,8,0
 114 493 114 493 107.5 501 c 128,-1,1
133 428 m 128,-1,10
 114 410 114 410 85 409.5 c 128,-1,11
 56 409 56 409 36.5 431 c 128,-1,12
 17 453 17 453 17 479.5 c 128,-1,13
 17 506 17 506 39.5 525 c 128,-1,14
 62 544 62 544 92 544 c 128,-1,15
 122 544 122 544 138 525 c 128,-1,16
 154 506 154 506 154 471 c 1,17,9
 152 446 152 446 133 428 c 128,-1,10
EndSplineSet
EndChar

StartChar: cedilla
Encoding: 184 184 89
Width: 476
Flags: HW
HStem: -256 63<144.533 295.098> -121 130<182.858 239.94> -117 52<240.002 297.697>
VStem: 174 66<-64.3498 4.18394> 300 60<-187.699 -117.68>
LayerCount: 2
Fore
SplineSet
270 -117 m 1,0,-1
 226 -121 l 1,1,2
 174 -121 174 -121 174 -60 c 0,3,4
 174 -39 174 -39 180 -13 c 1,5,6
 187 9 187 9 214.5 9 c 128,-1,7
 242 9 242 9 242 -25 c 1,8,-1
 240 -50 l 1,9,10
 240 -65 240 -65 259 -65 c 0,11,12
 262 -65 262 -65 276 -63 c 1,13,14
 323 -63 323 -63 341.5 -77.5 c 128,-1,15
 360 -92 360 -92 360 -126 c 0,16,17
 360 -182 360 -182 324 -219 c 128,-1,18
 288 -256 288 -256 223 -256 c 0,19,20
 183 -256 183 -256 151 -243.5 c 128,-1,21
 119 -231 119 -231 119 -207 c 0,22,23
 119 -193 119 -193 128 -182 c 128,-1,24
 137 -171 137 -171 148 -171 c 128,-1,25
 159 -171 159 -171 186.5 -182 c 128,-1,26
 214 -193 214 -193 243 -193 c 128,-1,27
 272 -193 272 -193 286 -183.5 c 128,-1,28
 300 -174 300 -174 300 -140 c 0,29,30
 300 -117 300 -117 270 -117 c 1,0,-1
EndSplineSet
EndChar

StartChar: ogonek
Encoding: 731 731 90
Width: 714
Flags: HW
HStem: -253 66<144.111 285.263> -22 20G<166 178>
VStem: 79 63<-184.042 -101.813>
LayerCount: 2
Fore
SplineSet
189 -187 m 1,0,-1
 271 -177 l 1,1,2
 286 -181 286 -181 296.5 -193.5 c 128,-1,3
 307 -206 307 -206 307 -218 c 0,4,5
 307 -253 307 -253 201 -253 c 0,6,7
 139 -253 139 -253 109 -224 c 128,-1,8
 79 -195 79 -195 79 -148 c 128,-1,9
 79 -101 79 -101 101 -59.5 c 128,-1,10
 123 -18 123 -18 156 -4 c 0,11,12
 160 -2 160 -2 171.5 -2 c 128,-1,13
 183 -2 183 -2 195.5 -14.5 c 128,-1,14
 208 -27 208 -27 208 -39.5 c 128,-1,15
 208 -52 208 -52 191.5 -69 c 0,16,17
 142 -120 142 -120 142 -157 c 0,18,19
 142 -187 142 -187 189 -187 c 1,0,-1
EndSplineSet
EndChar

StartChar: question
Encoding: 63 63 91
Width: 307
Flags: HW
HStem: 26 84<126.665 195.266> 527 66<112.478 217.297>
VStem: 99 68<205.567 302.268> 119 80<31.5841 106> 232 64<431.317 510.96>
LayerCount: 2
Fore
SplineSet
210 511 m 128,-1,1
 188 527 188 527 163 527 c 128,-1,2
 138 527 138 527 118.5 510.5 c 128,-1,3
 99 494 99 494 86.5 477.5 c 128,-1,4
 74 461 74 461 60.5 461 c 128,-1,5
 47 461 47 461 38 471 c 128,-1,6
 29 481 29 481 29 496 c 0,7,8
 29 526 29 526 73 559.5 c 128,-1,9
 117 593 117 593 165 593 c 128,-1,10
 213 593 213 593 254.5 560 c 128,-1,11
 296 527 296 527 296 467 c 0,12,13
 296 437 296 437 276 404 c 128,-1,14
 256 371 256 371 231.5 348 c 0,15,16
 167 287.448979592 167 287.448979592 167 269.724489796 c 128,-1,17
 167 252 167 252 178 234 c 128,-1,18
 189 216 189 216 189 206.5 c 128,-1,19
 189 197 189 197 180 188 c 128,-1,20
 171 179 171 179 160 179 c 0,21,22
 138 179 138 179 118.5 204 c 128,-1,23
 99 229 99 229 99 268 c 128,-1,24
 99 307 99 307 127.5 342 c 128,-1,25
 156 377 156 377 194 413.298507463 c 0,26,27
 232 449.597014925 232 449.597014925 232 472.298507463 c 128,-1,0
 232 495 232 495 210 511 c 128,-1,1
129.5 97 m 128,-1,29
 140 110 140 110 159.5 110 c 128,-1,30
 179 110 179 110 189 103 c 128,-1,31
 199 96 199 96 199 70 c 0,32,33
 199 26 199 26 154 26 c 0,34,35
 143 26 143 26 131 41.5 c 128,-1,36
 119 57 119 57 119 70.5 c 128,-1,28
 119 84 119 84 129.5 97 c 128,-1,29
EndSplineSet
EndChar

StartChar: exclam
Encoding: 33 33 92
Width: 206
Flags: HW
HStem: 26 84<74.7248 143.314>
VStem: 64 73<337.754 590.571> 67 80<32.1708 106>
LayerCount: 2
Fore
SplineSet
147 69.5 m 0,0,1
 147 26 147 26 107 26 c 0,2,3
 91 26 91 26 79 41.5 c 128,-1,4
 67 57 67 57 67 70.5 c 128,-1,5
 67 84 67 84 77.5 97 c 128,-1,6
 88 110 88 110 107.5 110 c 128,-1,7
 127 110 127 110 137 103 c 128,-1,8
 147 96 147 96 147 69.5 c 0,0,1
137 573 m 1,9,-1
 129 289 l 1,10,11
 129 250 129 250 130 229 c 1,12,13
 127 218 127 218 117.5 210 c 128,-1,14
 108 202 108 202 96 202 c 128,-1,15
 84 202 84 202 77 220 c 1,16,17
 64 430 64 430 64 573 c 1,18,19
 67 582 67 582 79 588 c 128,-1,20
 91 594 91 594 105 594 c 0,21,22
 133 594 133 594 137 573 c 1,9,-1
EndSplineSet
EndChar

StartChar: questiondown
Encoding: 191 191 93
Width: 313
Flags: HW
HStem: -174 65<104.518 208.834> 309 84<126.686 195.275>
VStem: 26 63<-92.7206 -13.2502> 123 80<313 386.829> 154 69<115.888 212.228>
LayerCount: 2
Fore
SplineSet
111 -93 m 128,-1,1
 133 -109 133 -109 158 -109 c 128,-1,2
 183 -109 183 -109 202.5 -92.5 c 128,-1,3
 222 -76 222 -76 235 -59.5 c 128,-1,4
 248 -43 248 -43 261.5 -43 c 128,-1,5
 275 -43 275 -43 284 -52.5 c 128,-1,6
 293 -62 293 -62 293 -77 c 0,7,8
 293 -108 293 -108 249 -141 c 128,-1,9
 205 -174 205 -174 156.5 -174 c 128,-1,10
 108 -174 108 -174 67 -141.5 c 128,-1,11
 26 -109 26 -109 26 -49 c 0,12,13
 26 -11 26 -11 58 31 c 128,-1,14
 90 73 90 73 122 105 c 128,-1,15
 154 137 154 137 154 151.5 c 128,-1,16
 154 166 154 166 143 184.5 c 128,-1,17
 132 203 132 203 132 212 c 128,-1,18
 132 221 132 221 141 230 c 128,-1,19
 150 239 150 239 161 239 c 0,20,21
 183 239 183 239 203 214 c 128,-1,22
 223 189 223 189 223 154.5 c 128,-1,23
 223 120 223 120 205 90.5 c 128,-1,24
 187 61 187 61 164.5 41.5 c 0,25,26
 89 -23.9333333333 89 -23.9333333333 89 -57 c 0,27,0
 89 -77 89 -77 111 -93 c 128,-1,1
166 309 m 128,-1,29
 150 309 150 309 142 311 c 0,30,31
 123 315.75 123 315.75 123 345.875 c 128,-1,32
 123 376 123 376 135 384.5 c 128,-1,33
 147 393 147 393 163 393 c 128,-1,34
 179 393 179 393 191 377.5 c 128,-1,35
 203 362 203 362 203 348.5 c 128,-1,36
 203 335 203 335 192.5 322 c 128,-1,28
 182 309 182 309 166 309 c 128,-1,29
EndSplineSet
EndChar

StartChar: exclamdown
Encoding: 161 161 94
Width: 179
Flags: HW
HStem: 309 84<66.6652 135.266>
VStem: 56 73<-172.745 81.0293> 59 80<313 387.416>
LayerCount: 2
Fore
SplineSet
129.5 316 m 128,-1,1
 120 309 120 309 100 309 c 128,-1,2
 80 309 80 309 69.5 322 c 128,-1,3
 59 335 59 335 59 348.5 c 128,-1,4
 59 362 59 362 71 377.5 c 128,-1,5
 83 393 83 393 94 393 c 0,6,7
 139 393 139 393 139 349 c 0,8,0
 139 323 139 323 129.5 316 c 128,-1,1
120 133 m 1,9,-1
 129 -154 l 1,10,11
 124 -176 124 -176 93.5 -176 c 128,-1,12
 63 -176 63 -176 56 -154 c 1,13,14
 56 13 56 13 69 199 c 1,15,16
 75 216 75 216 87 216 c 128,-1,17
 99 216 99 216 108.5 208 c 128,-1,18
 118 200 118 200 121 190 c 1,19,20
 120 170 120 170 120 133 c 1,9,-1
EndSplineSet
EndChar

StartChar: asterisk
Encoding: 42 42 95
Width: 337
Flags: HW
HStem: 316 283<151.753 183.704> 531 20G<253 277.5>
VStem: 36 262
LayerCount: 2
Fore
SplineSet
47 509 m 1,0,1
 36 520 36 520 36 532 c 128,-1,2
 36 544 36 544 44 552.5 c 128,-1,3
 52 561 52 561 61.5 561 c 128,-1,4
 71 561 71 561 78.5 556.5 c 0,5,6
 95.2424242424 546.454545455 95.2424242424 546.454545455 114.121212121 526.227272727 c 128,-1,7
 133 506 133 506 143 496 c 1,8,9
 144 504 144 504 144.5 521 c 0,10,11
 145.491620112 554.715083799 145.491620112 554.715083799 150 573.5 c 0,12,13
 156.12 599 156.12 599 177.56 599 c 128,-1,14
 199 599 199 599 206 574 c 1,15,-1
 202 520 l 1,16,17
 232 538 232 538 264 551 c 1,18,-1
 268 551 l 2,19,20
 282 551 282 551 290 543 c 128,-1,21
 298 535 298 535 298 523.5 c 128,-1,22
 298 512 298 512 281.5 499 c 128,-1,23
 265 486 265 486 235 470 c 128,-1,24
 205 454 205 454 197 449 c 1,25,26
 210 439 210 439 236 427.5 c 128,-1,27
 262 416 262 416 277 406 c 128,-1,28
 292 396 292 396 292 384 c 128,-1,29
 292 372 292 372 284 364 c 128,-1,30
 276 356 276 356 262 356 c 0,31,32
 233 356 233 356 189 387 c 1,33,34
 189 376 189 376 188 367 c 128,-1,35
 187 358 187 358 186.5 351.5 c 128,-1,36
 186 345 186 345 185 341.5 c 128,-1,37
 184 338 184 338 182.5 333 c 0,38,39
 177.4 316 177.4 316 163.2 316 c 0,40,41
 134.285714286 316 134.285714286 316 130 346 c 1,42,43
 130 376 130 376 133 406 c 1,44,45
 89 374 89 374 74 374 c 128,-1,46
 59 374 59 374 50.5 382 c 128,-1,47
 42 390 42 390 42 400.5 c 128,-1,48
 42 411 42 411 52.2631578947 422.631578947 c 128,-1,49
 62.5263157895 434.263157895 62.5263157895 434.263157895 106 456 c 1,50,51
 67 493 67 493 47 509 c 1,0,1
EndSplineSet
EndChar

StartChar: comma
Encoding: 44 44 96
Width: 169
Flags: HW
HStem: -73 160<67.8815 98.5926>
VStem: 67 57<-21.6147 86.1431>
LayerCount: 2
Fore
SplineSet
67 61 m 1,0,1
 71 87 71 87 93.5 87 c 128,-1,2
 116 87 116 87 124 63 c 1,3,4
 124 -2.8275862069 124 -2.8275862069 101.5 -45.5 c 0,5,6
 87 -73 87 -73 66 -73 c 0,7,8
 38 -73 38 -73 38 -44 c 0,9,10
 38 -36 38 -36 41 -27 c 1,11,12
 67 2 67 2 67 61 c 1,0,1
EndSplineSet
EndChar

StartChar: hyphen
Encoding: 45 45 97
Width: 337
Flags: HW
HStem: 163 67<32.6094 303.426>
VStem: 30 277<168.907 224.983>
LayerCount: 2
Fore
SplineSet
269 163 m 1,0,-1
 57 163 l 2,1,2
 30 163 30 163 30 193.5 c 128,-1,3
 30 224 30 224 71 230 c 1,4,-1
 276 230 l 1,5,6
 307 221 307 221 307 199 c 0,7,8
 307 173 307 173 269 163 c 1,0,-1
EndSplineSet
EndChar

StartChar: period
Encoding: 46 46 98
Width: 179
Flags: HW
HStem: 1 99<58.2063 127.238>
VStem: 46 91<9.10536 89.7278>
LayerCount: 2
Fore
SplineSet
137 50 m 1,0,1
 137 32 137 32 123.5 16.5 c 128,-1,2
 110 1 110 1 93 1 c 128,-1,3
 76 1 76 1 61 10.5 c 128,-1,4
 46 20 46 20 46 38.5 c 128,-1,5
 46 57 46 57 58 78.5 c 128,-1,6
 70 100 70 100 93 100 c 0,7,8
 105 100 105 100 119.5 88 c 128,-1,9
 134 76 134 76 137 50 c 1,0,1
EndSplineSet
EndChar

StartChar: colon
Encoding: 58 58 99
Width: 194
Flags: HW
HStem: 1 93<59.7125 119.673> 250 99<61.0219 130.238>
VStem: 54 86<8.11914 88.3946 258.25 339.465>
LayerCount: 2
Fore
SplineSet
140 299 m 1,0,1
 140 281 140 281 126.5 265.5 c 128,-1,2
 113 250 113 250 96 250 c 128,-1,3
 79 250 79 250 64 259 c 128,-1,4
 49 268 49 268 49 287 c 128,-1,5
 49 306 49 306 60.5 327.5 c 128,-1,6
 72 349 72 349 96 349 c 0,7,8
 108 349 108 349 122.5 336.5 c 128,-1,9
 137 324 137 324 140 299 c 1,0,1
120 90 m 1,10,11
 125 86 125 86 132.5 72 c 128,-1,12
 140 58 140 58 140 42 c 128,-1,13
 140 26 140 26 126 13.5 c 128,-1,14
 112 1 112 1 94.5 1 c 128,-1,15
 77 1 77 1 65.5 14 c 128,-1,16
 54 27 54 27 54 47 c 0,17,18
 54 94 54 94 103 94 c 0,19,20
 111 94 111 94 120 90 c 1,10,11
EndSplineSet
EndChar

StartChar: semicolon
Encoding: 59 59 100
Width: 194
Flags: HW
HStem: 4 95<54.9498 92.4896> 249 98<61.0219 130.238>
VStem: 47 93<12.9778 92.2574 257.125 335.771>
LayerCount: 2
Fore
SplineSet
58 84 m 128,-1,1
 69 99 69 99 93 99 c 128,-1,2
 117 99 117 99 128.5 83.5 c 128,-1,3
 140 68 140 68 140 27.5 c 128,-1,4
 140 -13 140 -13 116 -42.5 c 128,-1,5
 92 -72 92 -72 73.5 -72 c 128,-1,6
 55 -72 55 -72 55 -60 c 0,7,8
 55 -53 55 -53 72.5 -32 c 128,-1,9
 90 -11 90 -11 93 4 c 1,10,11
 75 4 75 4 61 18 c 128,-1,12
 47 32 47 32 47 50.5 c 128,-1,0
 47 69 47 69 58 84 c 128,-1,1
140 297 m 1,13,14
 140 279 140 279 126.5 264 c 128,-1,15
 113 249 113 249 96 249 c 128,-1,16
 79 249 79 249 64 258 c 128,-1,17
 49 267 49 267 49 286 c 128,-1,18
 49 305 49 305 60.5 326 c 128,-1,19
 72 347 72 347 96 347 c 0,20,21
 108 347 108 347 122.5 335 c 128,-1,22
 137 323 137 323 140 297 c 1,13,14
EndSplineSet
EndChar

StartChar: numbersign
Encoding: 35 35 101
Width: 381
Flags: HW
HStem: 89 54<31.8687 71 267 320.414> 229 64<47.0356 118.25 317.062 360.948> 243 56<203.386 241> 367 20G<169 199 289.5 312.5>
VStem: 64 63<6.63674 82.1108>
LayerCount: 2
Fore
SplineSet
179 240 m 1,0,1
 171 224 171 224 140 139 c 1,2,3
 166 139 166 139 214 141 c 1,4,5
 219 158 219 158 227.5 191.5 c 128,-1,6
 236 225 236 225 241 243 c 1,7,8
 204 243 204 243 179 240 c 1,0,1
303.5 386 m 0,9,10
 331 386 331 386 331 351.5 c 0,11,12
 331 332 331 332 317 290 c 1,13,14
 353.513161464 283.153782225 353.513161464 283.153782225 358.138403539 276.460721402 c 128,-1,15
 362.763645613 269.767660579 362.763645613 269.767660579 363 261 c 0,16,17
 363 238 363 238 339 234 c 1,18,-1
 300 237 l 1,19,20
 287 208 287 208 279.5 181 c 128,-1,21
 272 154 272 154 267 143 c 1,22,-1
 299 143 l 1,23,24
 321 134 321 134 321 113 c 128,-1,25
 321 92 321 92 297 89 c 1,26,-1
 256 89 l 1,27,28
 255 83 255 83 253.5 65.5 c 0,29,30
 251.184971098 38.4913294798 251.184971098 38.4913294798 245.134152216 17.7456647399 c 128,-1,31
 239.083333333 -3 239.083333333 -3 218.541666667 -3 c 128,-1,32
 198 -3 198 -3 194 19 c 1,33,-1
 203 87 l 1,34,-1
 127 83 l 1,35,36
 126 79 126 79 121.5 51 c 128,-1,37
 117 23 117 23 110.5 12 c 128,-1,38
 104 1 104 1 92.5 1 c 128,-1,39
 81 1 81 1 73 8.5 c 128,-1,40
 65 16 65 16 64 29 c 1,41,42
 65 37 65 37 67.5 55 c 128,-1,43
 70 73 70 73 71 83 c 1,44,-1
 57 83 l 1,45,46
 44 85 44 85 36.5 93 c 128,-1,47
 29 101 29 101 29 110.5 c 128,-1,48
 29 120 29 120 37.5 128.5 c 128,-1,49
 46 137 46 137 59 137 c 2,50,-1
 86 137 l 1,51,52
 96 178 96 178 119 231 c 1,53,54
 87 229 87 229 71.5 229.5 c 128,-1,55
 56 230 56 230 48.5 238 c 128,-1,56
 41 246 41 246 41 255.5 c 128,-1,57
 41 265 41 265 47 271.5 c 128,-1,58
 53 278 53 278 65 281.5 c 128,-1,59
 77 285 77 285 88 286.5 c 128,-1,60
 99 288 99 288 116.5 289.5 c 128,-1,61
 134 291 134 291 143 293 c 1,62,63
 148 304 148 304 151.5 330.5 c 0,64,65
 158.962264151 387 158.962264151 387 186.5 387 c 0,66,67
 216 387 216 387 216 354.5 c 0,68,69
 216 338 216 338 203 299 c 1,70,71
 215 299 215 299 263 296 c 1,72,73
 266 304 266 304 271 331.5 c 0,74,75
 280.909090909 386 280.909090909 386 303.5 386 c 0,9,10
EndSplineSet
EndChar

StartChar: percent
Encoding: 37 37 102
Width: 536
Flags: HW
HStem: 6 57<339.207 428.422> 184 57<353.37 442.181> 290 64<100.304 190.269> 490 49<122.255 207.692>
VStem: 36 61<357.46 465.125> 214 63<377.579 485.911> 270 62<70.2155 163.344> 451 55<85.0934 178.083>
LayerCount: 2
Fore
SplineSet
332 118 m 0,0,1
 332 63 332 63 383.5 63 c 0,2,3
 406 63 406 63 428.5 84 c 128,-1,4
 451 105 451 105 451 121 c 0,5,6
 451 184 451 184 404 184 c 0,7,8
 382 184 382 184 357 166.5 c 128,-1,9
 332 149 332 149 332 118 c 0,0,1
214 429 m 0,10,11
 214 490 214 490 177 490 c 0,12,13
 137 490 137 490 117 464.5 c 128,-1,14
 97 439 97 439 97 406 c 128,-1,15
 97 373 97 373 106 363.5 c 128,-1,16
 115 354 115 354 140 354 c 128,-1,17
 165 354 165 354 189.5 375 c 128,-1,18
 214 396 214 396 214 429 c 0,10,11
312.5 201.5 m 128,-1,20
 355 241 355 241 402 241 c 128,-1,21
 449 241 449 241 477.5 207 c 128,-1,22
 506 173 506 173 506 122.5 c 128,-1,23
 506 72 506 72 468 39 c 128,-1,24
 430 6 430 6 380 6 c 128,-1,25
 330 6 330 6 300 31.5 c 128,-1,26
 270 57 270 57 270 109.5 c 128,-1,19
 270 162 270 162 312.5 201.5 c 128,-1,20
400 530 m 1,27,28
 416 541 416 541 431 541 c 0,29,30
 449 541 449 541 449 515 c 2,31,-1
 449 499 l 2,32,33
 449 488 449 488 394 406 c 1,34,35
 261 213 261 213 159 40 c 0,36,37
 139 6 139 6 113 6 c 0,38,39
 100 6 100 6 90.5 15 c 128,-1,40
 81 24 81 24 81 36 c 128,-1,41
 81 48 81 48 95 69 c 128,-1,42
 109 90 109 90 133 119 c 128,-1,43
 157 148 157 148 185.5 190.5 c 128,-1,44
 214 233 214 233 256 302.5 c 128,-1,45
 298 372 298 372 324.5 413 c 128,-1,46
 351 454 351 454 363.586956522 482.320652174 c 128,-1,47
 376.173913043 510.641304348 376.173913043 510.641304348 400 530 c 1,27,28
76 502 m 128,-1,49
 116 539 116 539 165.5 539 c 128,-1,50
 215 539 215 539 246 515 c 128,-1,51
 277 491 277 491 277 440.5 c 128,-1,52
 277 390 277 390 234 340 c 128,-1,53
 191 290 191 290 136 290 c 0,54,55
 97 290 97 290 66.5 320 c 128,-1,56
 36 350 36 350 36 407.5 c 128,-1,48
 36 465 36 465 76 502 c 128,-1,49
EndSplineSet
Substitution2: "'smcp' Lowercase to Small Capitals in Latin lookup 0 subtable" percent.smcp
EndChar

StartChar: ampersand
Encoding: 38 38 103
Width: 470
Flags: HW
HStem: 4 71<138.119 230.267> 490 63<188.782 243.124>
VStem: 56 59<99.7228 228.534> 122 57<350.422 483.296> 254 61<374.886 483.666> 329 61<184.875 261.365>
LayerCount: 2
Fore
SplineSet
179 420 m 1,0,1
 182 386 182 386 201 348 c 1,2,3
 254 385 254 385 254 419 c 128,-1,4
 254 453 254 453 242.5 471.5 c 128,-1,5
 231 490 231 490 216 490 c 128,-1,6
 201 490 201 490 190.5 472 c 128,-1,7
 180 454 180 454 179 420 c 1,0,1
179 75 m 0,8,9
 217 75 217 75 266 128 c 1,10,11
 257 145 257 145 229.5 189.5 c 128,-1,12
 202 234 202 234 189 260 c 2,13,-1
 183 272 l 1,14,15
 115 221 115 221 115 170 c 0,16,17
 115 129.193548387 115 129.193548387 139.5 96 c 0,18,19
 155 75 155 75 179 75 c 0,8,9
329 236 m 1,20,21
 335 263 335 263 361 263 c 0,22,23
 373 263 373 263 381.5 255.5 c 128,-1,24
 390 248 390 248 390 234 c 0,25,26
 390 202 390 202 332 123 c 1,27,28
 356 71 356 71 366 37 c 1,29,30
 364 23 364 23 355 14.5 c 128,-1,31
 346 6 346 6 336 6 c 128,-1,32
 326 6 326 6 319 13 c 128,-1,33
 312 20 312 20 308.5 28 c 128,-1,34
 305 36 305 36 300 51.5 c 128,-1,35
 295 67 295 67 292 74 c 1,36,37
 259 34 259 34 234.5 19 c 128,-1,38
 210 4 210 4 184 4 c 0,39,40
 131 4 131 4 93.5 58.5 c 128,-1,41
 56 113 56 113 56 168.5 c 128,-1,42
 56 224 56 224 82.5 257.5 c 128,-1,43
 109 291 109 291 157 321 c 1,44,45
 122 393 122 393 122 443.5 c 128,-1,46
 122 494 122 494 151 523.5 c 128,-1,47
 180 553 180 553 219.5 553 c 128,-1,48
 259 553 259 553 287 516 c 128,-1,49
 315 479 315 479 315 435 c 128,-1,50
 315 391 315 391 292 362.5 c 128,-1,51
 269 334 269 334 226 303 c 1,52,53
 235 288 235 288 254 260 c 128,-1,54
 273 232 273 232 280 219 c 2,55,-1
 303 177 l 1,56,57
 325 212 325 212 329 236 c 1,20,21
EndSplineSet
Substitution2: "'smcp' Lowercase to Small Capitals in Latin lookup 0 subtable" ampersand.smcp
EndChar

StartChar: at
Encoding: 64 64 104
Width: 459
Flags: HW
HStem: 2 62<136.213 305.179> 120 49<176.34 241.647> 236 46<189.058 249.856> 331 59<171.093 333.051>
VStem: 29 55<111.851 246.679> 122 54<169.834 222.623> 240 53<97.9453 121> 353 57<215.595 310.045>
LayerCount: 2
Fore
SplineSet
244 170 m 1,0,1
 250 203 250 203 250 223 c 0,2,3
 250 236 250 236 230.5 236 c 128,-1,4
 211 236 211 236 193.5 220.5 c 128,-1,5
 176 205 176 205 176 176 c 1,6,7
 188 169 188 169 212.5 169 c 128,-1,8
 237 169 237 169 244 170 c 1,0,1
134 144 m 0,9,10
 122 159 122 159 122 177 c 0,11,12
 122 214 122 214 157 248 c 128,-1,13
 192 282 192 282 232 282 c 0,14,15
 244 282 244 282 259 277 c 1,16,17
 259 288 259 288 284 288 c 128,-1,18
 309 288 309 288 309 274 c 0,19,20
 309 244 309 244 300 190 c 1,21,22
 353 219 353 219 353 271 c 0,23,24
 353 302 353 302 322 316.5 c 128,-1,25
 291 331 291 331 250 331 c 0,26,27
 178 331 178 331 131 282.5 c 128,-1,28
 84 234 84 234 84 181 c 128,-1,29
 84 128 84 128 119.5 96 c 128,-1,30
 155 64 155 64 223 64 c 0,31,32
 309 64 309 64 356 130 c 0,33,34
 367 147 367 147 381.5 147 c 0,35,36
 410 147 410 147 410 122 c 0,37,38
 410 117 410 117 409 114 c 0,39,40
 396 60 396 60 348 31 c 128,-1,41
 300 2 300 2 228 2 c 128,-1,42
 156 2 156 2 92.5 48.5 c 128,-1,43
 29 95 29 95 29 179.5 c 128,-1,44
 29 264 29 264 103.5 327 c 128,-1,45
 178 390 178 390 267 390 c 0,46,47
 321 390 321 390 365.5 360.5 c 128,-1,48
 410 331 410 331 410 267 c 0,49,50
 410 220 410 220 376 181 c 128,-1,51
 342 142 342 142 293 130 c 1,52,53
 290.8 97 290.8 97 261 97 c 0,54,55
 240 97 240 97 240 118 c 2,56,-1
 240 121 l 1,57,58
 232 120 232 120 214 120 c 0,59,60
 154 120 154 120 134 144 c 0,9,10
EndSplineSet
EndChar

StartChar: degree
Encoding: 176 176 105
Width: 194
Flags: HW
HStem: 459 44<67.6498 122.101> 559 35<70.8216 120.766>
VStem: 26 41<504.07 555.975> 123 40<504.151 558.153>
LayerCount: 2
Fore
SplineSet
116 551 m 128,-1,1
 109 559 109 559 98 559 c 128,-1,2
 87 559 87 559 77 550 c 128,-1,3
 67 541 67 541 67 529 c 0,4,5
 67 503 67 503 93 503 c 0,6,7
 123 503 123 503 123 531 c 0,8,0
 123 543 123 543 116 551 c 128,-1,1
142 478 m 128,-1,10
 123 460 123 460 93.5 459.5 c 128,-1,11
 64 459 64 459 45 480.5 c 128,-1,12
 26 502 26 502 26 529.5 c 128,-1,13
 26 557 26 557 48 575.5 c 128,-1,14
 70 594 70 594 100.5 594 c 128,-1,15
 131 594 131 594 147 575 c 128,-1,16
 163 556 163 556 163 521 c 1,17,9
 161 496 161 496 142 478 c 128,-1,10
EndSplineSet
EndChar

StartChar: mu
Encoding: 181 181 106
AltUni2: 0003bc.ffffffff.0
Width: 411
Flags: HW
HStem: 1 65<140.587 274.714> 371 20G<65 88.5 314 334>
VStem: 39 68<-242.446 20 98.0972 386.887> 290 73<191.899 386.891> 300 67<92.5336 358.762>
LayerCount: 2
Fore
SplineSet
363 364 m 1,0,-1
 367 189 l 1,1,2
 367 88 367 88 327.5 44.5 c 128,-1,3
 288 1 288 1 200 1 c 0,4,5
 146 1 146 1 107 20 c 1,6,7
 106 -70 106 -70 106 -206 c 1,8,9
 104 -222 104 -222 89 -239 c 128,-1,10
 74 -256 74 -256 61 -256 c 0,11,12
 40 -256 40 -256 40 -227 c 2,13,-1
 39 359 l 1,14,-1
 45 372.5 l 2,15,16
 47 377 47 377 56.5 384 c 128,-1,17
 66 391 66 391 80 391 c 0,18,19
 104 391 104 391 110 363 c 1,20,21
 110 259 110 259 107 121 c 1,22,23
 150 66 150 66 207.5 66 c 128,-1,24
 265 66 265 66 282.5 96 c 128,-1,25
 300 126 300 126 300 189 c 1,26,-1
 290 359 l 1,27,28
 297 389 297 389 326.5 389 c 128,-1,29
 356 389 356 389 363 364 c 1,0,-1
EndSplineSet
EndChar

StartChar: copyright
Encoding: 169 169 107
Width: 633
Flags: HW
HStem: -1 64<220.745 420.184> 113 67<262.114 356.181> 381 65<265.364 353.259> 497 59<241.625 420.721>
VStem: 37 64<180.502 363.69> 179 64<197.016 357.403> 517 64<161.971 398.1>
LayerCount: 2
Fore
SplineSet
316 446 m 0,0,1
 346 446 346 446 391 420.5 c 128,-1,2
 436 395 436 395 436 364 c 0,3,4
 436 349 436 349 424 339.5 c 128,-1,5
 412 330 412 330 399.5 330 c 128,-1,6
 387 330 387 330 358 355.5 c 128,-1,7
 329 381 329 381 302.5 381 c 128,-1,8
 276 381 276 381 259.5 351 c 128,-1,9
 243 321 243 321 243 280 c 0,10,11
 243 180 243 180 303 180 c 0,12,13
 306 180 306 180 345.5 197 c 128,-1,14
 385 214 385 214 405 214 c 0,15,16
 429 214 429 214 429 186 c 128,-1,17
 429 158 429 158 386 135.5 c 128,-1,18
 343 113 343 113 307 113 c 0,19,20
 254 113 254 113 216.5 156.5 c 128,-1,21
 179 200 179 200 179 265 c 128,-1,22
 179 330 179 330 215.5 388 c 128,-1,23
 252 446 252 446 316 446 c 0,0,1
316 497 m 1,24,25
 225 487 225 487 163 423 c 128,-1,26
 101 359 101 359 101 271 c 128,-1,27
 101 183 101 183 164 123 c 128,-1,28
 227 63 227 63 322 63 c 128,-1,29
 417 63 417 63 467 118.5 c 128,-1,30
 517 174 517 174 517 276 c 128,-1,31
 517 378 517 378 472.5 436.5 c 128,-1,32
 428 495 428 495 316 497 c 1,24,25
316 556 m 1,33,34
 362 554 362 554 385 551.5 c 128,-1,35
 408 549 408 549 445 536.5 c 128,-1,36
 482 524 482 524 506 501 c 0,37,38
 581 427 581 427 581 279 c 0,39,40
 581 153 581 153 516.5 78 c 128,-1,41
 452 3 452 3 329 -1 c 1,42,43
 252.394736842 -1 252.394736842 -1 182.5 31 c 0,44,45
 141 50 141 50 110 79 c 128,-1,46
 79 108 79 108 58 159.5 c 128,-1,47
 37 211 37 211 37 277 c 0,48,49
 37 387 37 387 120 467 c 128,-1,50
 203 547 203 547 316 556 c 1,33,34
EndSplineSet
EndChar

StartChar: registered
Encoding: 174 174 108
Width: 634
Flags: HW
HStem: 0 64<221.343 420.005> 247 53<269.391 330.944> 375 56<269.504 361.494> 497 57<242.065 420.857>
VStem: 39 64<180.799 363.403> 214 55<134.903 249 300.298 374.999> 371 52<136.254 199.386 310.647 361.165> 516 64<162.905 397.975>
LayerCount: 2
Fore
SplineSet
269 374 m 1,0,-1
 269 307 l 1,1,2
 277 300 277 300 301 300 c 128,-1,3
 325 300 325 300 348 310 c 128,-1,4
 371 320 371 320 371 337 c 128,-1,5
 371 354 371 354 344.5 364.5 c 128,-1,6
 318 375 318 375 297.5 375 c 128,-1,7
 277 375 277 375 269 374 c 1,0,-1
211 154 m 2,8,-1
 214 397 l 1,9,10
 219 410 219 410 227.5 417.5 c 128,-1,11
 236 425 236 425 254.5 428 c 128,-1,12
 273 431 273 431 278.5 431 c 2,13,-1
 309 431 l 2,14,15
 363 431 363 431 393 407.5 c 128,-1,16
 423 384 423 384 423 344 c 0,17,18
 423 290 423 290 376 263 c 1,19,20
 379 258 379 258 402.163090129 224.358369099 c 0,21,22
 425.326180258 190.716738197 425.326180258 190.716738197 428 172 c 1,23,24
 428 158 428 158 417 146.5 c 128,-1,25
 406 135 406 135 393.5 135 c 128,-1,26
 381 135 381 135 374 151 c 1,27,28
 368 171 368 171 346.5 203.5 c 128,-1,29
 325 236 325 236 320 247 c 1,30,31
 284 247 284 247 267 249 c 1,32,-1
 268 205 l 2,33,34
 268 173.2 268 173.2 265 163.6 c 128,-1,35
 262 154 262 154 258 146 c 0,36,37
 250 130 250 130 230.5 130 c 128,-1,38
 211 130 211 130 211 154 c 2,8,-1
317 497 m 1,39,40
 225 487 225 487 164 423 c 128,-1,41
 103 359 103 359 103 271 c 128,-1,42
 103 183 103 183 165.5 123.5 c 128,-1,43
 228 64 228 64 322.5 64 c 128,-1,44
 417 64 417 64 466.5 119.5 c 128,-1,45
 516 175 516 175 516 276.5 c 128,-1,46
 516 378 516 378 472 436.5 c 128,-1,47
 428 495 428 495 317 497 c 1,39,40
316 554 m 1,48,49
 358 553 358 553 384.5 550.5 c 128,-1,50
 411 548 411 548 446 536 c 128,-1,51
 481 524 481 524 504 501 c 0,52,53
 580 426 580 426 580 290 c 128,-1,54
 580 154 580 154 516 79 c 128,-1,55
 452 4 452 4 329 0 c 1,56,57
 252.810810811 0 252.810810811 0 183 31.5 c 0,58,59
 142 50 142 50 111 79.5 c 128,-1,60
 80 109 80 109 59.5 160 c 128,-1,61
 39 211 39 211 39 277 c 0,62,63
 39 387 39 387 121.5 466.5 c 128,-1,64
 204 546 204 546 316 554 c 1,48,49
EndSplineSet
EndChar

StartChar: section
Encoding: 167 167 109
Width: 320
Flags: HW
HStem: 0 64<51.8955 177.759> 488 68<133.319 241.851>
VStem: 36 55<234.214 313.24> 61 66<406.3 479.635> 179 62<66.8181 136.252> 227 54<224.061 316.555>
LayerCount: 2
Fore
SplineSet
227 274 m 128,-1,1
 227 296 227 296 206.5 316 c 128,-1,2
 186 336 186 336 163.5 336 c 128,-1,3
 141 336 141 336 116 316.5 c 128,-1,4
 91 297 91 297 91 276 c 128,-1,5
 91 255 91 255 108 238.5 c 128,-1,6
 125 222 125 222 137 215 c 128,-1,7
 149 208 149 208 173 196 c 1,8,9
 194 208 194 208 210.5 230 c 128,-1,0
 227 252 227 252 227 274 c 128,-1,1
75 70 m 1,10,-1
 137 64 l 1,11,12
 159 64 159 64 169 71 c 128,-1,13
 179 78 179 78 179 98 c 128,-1,14
 179 118 179 118 156.5 137.5 c 128,-1,15
 134 157 134 157 107.5 170.5 c 128,-1,16
 81 184 81 184 58.5 209.5 c 128,-1,17
 36 235 36 235 36 266 c 0,18,19
 36 330 36 330 106 376 c 1,20,21
 61 398 61 398 61 441 c 0,22,23
 61 508 61 508 111 536 c 1,24,25
 142 556 142 556 193.5 556 c 128,-1,26
 245 556 245 556 245 520 c 0,27,28
 245 506 245 506 236.5 495 c 128,-1,29
 228 484 228 484 217 484 c 1,30,-1
 183 488 l 1,31,32
 157 488 157 488 142 476 c 128,-1,33
 127 464 127 464 127 444 c 128,-1,34
 127 424 127 424 143 411 c 128,-1,35
 159 398 159 398 181.5 389 c 128,-1,36
 204 380 204 380 226.5 368.5 c 128,-1,37
 249 357 249 357 265 334 c 128,-1,38
 281 311 281 311 281 277 c 0,39,40
 281 210 281 210 221 157 c 1,41,42
 241 131 241 131 241 87 c 128,-1,43
 241 43 241 43 211 21.5 c 128,-1,44
 181 0 181 0 142 0 c 128,-1,45
 103 0 103 0 81 7 c 0,46,47
 43 19.0909090909 43 19.0909090909 43 38 c 0,48,49
 43 70 43 70 75 70 c 1,10,-1
EndSplineSet
EndChar

StartChar: paragraph
Encoding: 182 182 110
Width: 417
Flags: HW
HStem: 502 51<224 260 317 376.513>
VStem: 30 194<344.943 490.585> 160 59<2.34256 295.772> 253 59<-1.37811 496.374> 260 57<136.104 503>
LayerCount: 2
Fore
SplineSet
252 91.5 m 1,0,-1
 260 504 l 1,1,-1
 224 504 l 1,2,3
 219 430 219 430 219 34 c 0,4,5
 219 5 219 5 180 -3 c 1,6,7
 165.909090909 -0.181818181818 165.909090909 -0.181818181818 164.454545455 4.90909090909 c 128,-1,8
 163 10 163 10 162.5 11.5 c 0,9,10
 157 28 157 28 157 140.5 c 128,-1,11
 157 253 157 253 160 293 c 1,12,13
 101 299 101 299 65.5 330 c 128,-1,14
 30 361 30 361 30 422 c 128,-1,15
 30 483 30 483 78.5 518 c 128,-1,16
 127 553 127 553 221 553 c 1,17,-1
 287.5 554 l 1,18,19
 361.888888889 554 361.888888889 554 373 541.5 c 0,20,21
 377 537 377 537 377 525.5 c 0,22,23
 377 502 377 502 340 502 c 0,24,25
 326 502 326 502 317 503 c 1,26,27
 312 290 312 290 312 121 c 1,28,-1
 313 34 l 2,29,30
 313 17 313 17 304 6.5 c 128,-1,31
 295 -4 295 -4 284 -4 c 0,32,33
 252 -4 252 -4 252 91.5 c 1,0,-1
EndSplineSet
EndChar

StartChar: asciicircum
Encoding: 94 94 111
Width: 309
Flags: HW
HStem: 519 145
VStem: 30 247
LayerCount: 2
Fore
SplineSet
86 537 m 0,0,1
 75 524 75 524 52.5 524 c 128,-1,2
 30 524 30 524 30 543 c 0,3,4
 30 548 30 548 31 551 c 0,5,6
 37 569 37 569 88.5 616.5 c 128,-1,7
 140 664 140 664 158 664 c 128,-1,8
 176 664 176 664 221.5 619 c 128,-1,9
 267 574 267 574 277 544 c 1,10,11
 274 519 274 519 251 519 c 0,12,13
 237 519 237 519 225 530 c 128,-1,14
 213 541 213 541 193.5 565 c 128,-1,15
 174 589 174 589 157 604 c 1,16,17
 117 574 117 574 86 537 c 0,0,1
EndSplineSet
EndChar

StartChar: asciitilde
Encoding: 126 126 112
Width: 441
Flags: HW
HStem: 340 63<242.541 328.345> 391 70<112.647 204.354>
LayerCount: 2
Fore
SplineSet
210.5 365.5 m 128,-1,1
 168 391 168 391 152 391 c 128,-1,2
 136 391 136 391 108 365.5 c 128,-1,3
 80 340 80 340 65.5 340 c 128,-1,4
 51 340 51 340 36.5 348.5 c 128,-1,5
 22 357 22 357 22 371 c 0,6,7
 22 398 22 398 70 429.5 c 128,-1,8
 118 461 118 461 147 461 c 128,-1,9
 176 461 176 461 223.5 435 c 128,-1,10
 271 409 271 409 289 403 c 1,11,12
 303 403 303 403 335.5 430 c 128,-1,13
 368 457 368 457 381.5 457 c 128,-1,14
 395 457 395 457 405.5 448.5 c 128,-1,15
 416 440 416 440 416 428 c 0,16,17
 416 401 416 401 368 370.5 c 128,-1,18
 320 340 320 340 286.5 340 c 128,-1,0
 253 340 253 340 210.5 365.5 c 128,-1,1
EndSplineSet
EndChar

StartChar: underscore
Encoding: 95 95 113
Width: 476
Flags: HW
HStem: -50 49<26.2637 450.585>
LayerCount: 2
Fore
SplineSet
46 -50 m 2,0,1
 26 -50 26 -50 26 -27.5 c 128,-1,2
 26 -5 26 -5 56 -1 c 1,3,-1
 430 -1 l 1,4,5
 451 -9 451 -9 451 -24 c 0,6,7
 451 -43 451 -43 420 -50 c 1,8,-1
 46 -50 l 2,0,1
EndSplineSet
EndChar

StartChar: slash
Encoding: 47 47 114
Width: 353
Flags: HW
VStem: 37 53<-34.2015 29.205> 276 57<548.063 613.704>
LayerCount: 2
Fore
SplineSet
276 594 m 1,0,1
 288 616 288 616 310 616 c 0,2,3
 319 616 319 616 326 610 c 128,-1,4
 333 604 333 604 333 594.5 c 128,-1,5
 333 585 333 585 312.5 537 c 128,-1,6
 292 489 292 489 215.5 292.5 c 128,-1,7
 139 96 139 96 90 -17 c 1,8,9
 76 -36 76 -36 59 -36 c 0,10,11
 37 -36 37 -36 37 -12 c 0,12,13
 37 -8 37 -8 39 0 c 1,14,15
 86 108 86 108 160 302 c 128,-1,16
 234 496 234 496 276 594 c 1,0,1
EndSplineSet
EndChar

StartChar: backslash
Encoding: 92 92 115
Width: 350
Flags: HW
VStem: 21 53<554.929 618.01> 260 57<-29.7037 35.937>
LayerCount: 2
Fore
SplineSet
260 -10 m 1,0,1
 220 86 220 86 145 280 c 128,-1,2
 70 474 70 474 23 584 c 1,3,4
 21 592 21 592 21 596 c 0,5,6
 21 620 21 620 42 620 c 0,7,8
 60 620 60 620 74 601 c 1,9,10
 123 488 123 488 199.5 291.5 c 128,-1,11
 276 95 276 95 296.5 46.5 c 128,-1,12
 317 -2 317 -2 317 -10 c 0,13,14
 317 -32 317 -32 294.5 -32 c 128,-1,15
 272 -32 272 -32 260 -10 c 1,0,1
EndSplineSet
EndChar

StartChar: bar
Encoding: 124 124 116
Width: 147
Flags: HW
VStem: 43 64<-37.2718 607.901>
LayerCount: 2
Fore
SplineSet
43 -16 m 2,0,-1
 46 581 l 1,1,2
 50 595 50 595 61.5 605.5 c 128,-1,3
 73 616 73 616 86 616 c 0,4,5
 104 616 104 616 110 591 c 1,6,-1
 107 -6 l 1,7,8
 104 -22 104 -22 91 -33 c 128,-1,9
 78 -44 78 -44 65 -44 c 0,10,11
 43 -44 43 -44 43 -16 c 2,0,-1
EndSplineSet
EndChar

StartChar: dollar
Encoding: 36 36 117
Width: 423
Flags: HW
HStem: 3 48<239 315.703> 497 59<164.082 194 259 318.75>
VStem: 59 58<349.874 447.606> 179 57<-47.7607 3 60 237.048> 194 57<63.2315 240 553.03 602.057> 337 59<72.6078 190.115 427.345 477.947>
LayerCount: 2
Fore
SplineSet
200 390 m 1,0,-1
 202 465 l 2,1,2
 202 484 202 484 201 494 c 1,3,4
 164 485 164 485 140.5 450.5 c 128,-1,5
 117 416 117 416 117 383 c 1,6,7
 119 348 119 348 199 321 c 1,8,-1
 200 390 l 1,0,-1
337 110 m 128,-1,10
 337 162 337 162 315.5 190 c 128,-1,11
 294 218 294 218 247 240 c 1,12,13
 243 206 243 206 242 142.5 c 128,-1,14
 241 79 241 79 239 51 c 1,15,9
 337 58 337 58 337 110 c 128,-1,10
259 474 m 1,16,-1
 257 389 l 1,17,-1
 254 301 l 1,18,19
 396 248 396 248 396 119 c 0,20,21
 396 60 396 60 348 31.5 c 128,-1,22
 300 3 300 3 237 3 c 1,23,-1
 236 -17 l 2,24,25
 235 -31 235 -31 226.5 -40 c 128,-1,26
 218 -49 218 -49 207.5 -49 c 128,-1,27
 197 -49 197 -49 188.5 -41 c 128,-1,28
 180 -33 180 -33 179 -19 c 1,29,-1
 179 4 l 1,30,31
 135 16 135 16 92.5 45.5 c 128,-1,32
 50 75 50 75 50 107 c 0,33,34
 50 120 50 120 57.5 128 c 128,-1,35
 65 136 65 136 76.5 136 c 128,-1,36
 88 136 88 136 125 101.5 c 128,-1,37
 162 67 162 67 183 60 c 1,38,39
 186 92 186 92 187.5 159.5 c 128,-1,40
 189 227 189 227 193 263 c 1,41,42
 130 287 130 287 94.5 313.5 c 128,-1,43
 59 340 59 340 59 376 c 0,44,45
 59 437 59 437 96 489 c 128,-1,46
 133 541 133 541 194 553 c 1,47,-1
 194 577 l 1,48,49
 199 603 199 603 221 603 c 128,-1,50
 243 603 243 603 251 579 c 1,51,-1
 251 556 l 1,52,53
 303 551 303 551 343.5 525 c 128,-1,54
 384 499 384 499 397 457 c 1,55,56
 396 443 396 443 387 434.5 c 128,-1,57
 378 426 378 426 363.5 426 c 128,-1,58
 349 426 349 426 341 446 c 1,59,60
 330 490 330 490 259 497 c 1,61,-1
 259 474 l 1,16,-1
EndSplineSet
Substitution2: "'smcp' Lowercase to Small Capitals in Latin lookup 0 subtable" dollar.smcp
EndChar

StartChar: cent
Encoding: 162 162 118
Width: 354
Flags: HW
HStem: 0 74<119.693 166> 300 89<227.286 301.531>
VStem: 21 72<98.4186 268.046> 164 56<86 310> 177 54<387.233 463.698>
LayerCount: 2
Fore
SplineSet
167 310 m 1,0,1
 93 278.606060606 93 278.606060606 93 187 c 0,2,3
 93 137 93 137 108.5 107.5 c 128,-1,4
 124 78 124 78 166 74 c 1,5,6
 164 111 164 111 164 176.5 c 128,-1,7
 164 242 164 242 167 310 c 1,0,1
177 437 m 1,8,9
 183 465 183 465 207 465 c 128,-1,10
 231 465 231 465 231 438 c 2,11,-1
 231 433 l 1,12,-1
 227 389 l 1,13,14
 311 383 311 383 311 357 c 0,15,16
 311 340 311 340 301 320 c 128,-1,17
 291 300 291 300 279.75 300 c 0,18,19
 268.5 300 268.5 300 249.25 307 c 128,-1,20
 230 314 230 314 223 316 c 1,21,22
 220 238 220 238 220 196.5 c 128,-1,23
 220 155 220 155 220.5 127.5 c 128,-1,24
 221 100 221 100 221 86 c 1,25,26
 230 90 230 90 247 99 c 128,-1,27
 264 108 264 108 275 112.5 c 128,-1,28
 286 117 286 117 296 117 c 128,-1,29
 306 117 306 117 312.5 110 c 128,-1,30
 319 103 319 103 319 93 c 0,31,32
 319 71 319 71 291 48 c 128,-1,33
 263 25 263 25 224 11 c 1,34,-1
 229 -39 l 1,35,36
 228 -53 228 -53 219.5 -61.5 c 128,-1,37
 211 -70 211 -70 196 -70 c 0,38,39
 169 -70 169 -70 169 0 c 1,40,41
 98 0 98 0 59.5 52.5 c 128,-1,42
 21 105 21 105 21 186 c 128,-1,43
 21 267 21 267 64.5 316 c 128,-1,44
 108 365 108 365 170 381 c 1,45,46
 176 419 176 419 177 437 c 1,8,9
EndSplineSet
EndChar

StartChar: sterling
Encoding: 163 163 119
Width: 459
Flags: HW
HStem: -4 65<216.105 356.561> 223 69<33.247 119.694 187 299.483> 494 59<210.911 328.399>
VStem: 119 70<113.752 222.201 289.544 447.269>
LayerCount: 2
Fore
SplineSet
120 317 m 1,0,-1
 114.75 398.59375 l 2,1,2
 114.75 403.75 114.75 403.75 115 408 c 0,3,4
 115 478 115 478 156.5 515.5 c 128,-1,5
 198 553 198 553 258.75 553 c 0,6,7
 319.5 553 319.5 553 370.5 519 c 0,8,9
 399 500 399 500 399 474 c 1,10,11
 393 445 393 445 364 445 c 0,12,13
 348 445 348 445 340 459 c 0,14,15
 319 494 319 494 267.5 494 c 128,-1,16
 216 494 216 494 191 449 c 1,17,18
 184 384 184 384 184 341.5 c 128,-1,19
 184 299 184 299 186 287 c 1,20,21
 224 291 224 291 256 291 c 0,22,23
 304 291 304 291 304 262 c 0,24,25
 304 249 304 249 295 237.5 c 128,-1,26
 286 226 286 226 273 223 c 1,27,-1
 187 223 l 1,28,29
 189 189 189 189 189 163 c 128,-1,30
 189 137 189 137 186 113 c 1,31,32
 220 61 220 61 283 61 c 128,-1,33
 346 61 346 61 374 100 c 1,34,35
 388 112 388 112 403 112 c 0,36,37
 428 112 428 112 428 88 c 0,38,39
 428 81 428 81 423 69 c 1,40,41
 368 -4 368 -4 296 -4 c 0,42,43
 261 -4 261 -4 229 10 c 0,44,45
 227 11 227 11 210.5 17 c 128,-1,46
 194 23 194 23 178.166666667 29.3333333333 c 0,47,48
 162.333333333 35.6666666667 162.333333333 35.6666666667 149 49 c 1,49,-1
 146 49 l 2,50,51
 125 49 125 49 95.5 22.5 c 128,-1,52
 66 -4 66 -4 57 -4 c 128,-1,53
 48 -4 48 -4 40.5 5.5 c 128,-1,54
 33 15 33 15 33 30 c 128,-1,55
 33 45 33 45 52.5 65.5 c 128,-1,56
 72 86 72 86 94.5 101 c 128,-1,57
 117 116 117 116 119 120 c 1,58,-1
 119 188 l 1,59,-1
 120 206 l 2,60,61
 120 223 120 223 110 223 c 2,62,-1
 63 221 l 1,63,64
 31 225 31 225 31 261 c 0,65,66
 31 275 31 275 40 283.5 c 128,-1,67
 49 292 49 292 59.5 292 c 128,-1,68
 70 292 70 292 74 291 c 2,69,-1
 120 289 l 1,70,-1
 120 317 l 1,0,-1
EndSplineSet
Substitution2: "'smcp' Lowercase to Small Capitals in Latin lookup 0 subtable" sterling.smcp
EndChar

StartChar: currency
Encoding: 164 164 120
Width: 577
Flags: HW
HStem: 68 63<218.297 364.515> 409 65<205.82 352.854>
VStem: 86 64<200.181 350.749> 417 66<184.655 345.238>
LayerCount: 2
Fore
SplineSet
150 277 m 1,0,1
 154 208 154 208 196 169.5 c 128,-1,2
 238 131 238 131 291 131 c 128,-1,3
 344 131 344 131 380.5 166 c 128,-1,4
 417 201 417 201 417 266 c 128,-1,5
 417 331 417 331 375.5 370 c 128,-1,6
 334 409 334 409 280.5 409 c 128,-1,7
 227 409 227 409 190 375 c 128,-1,8
 153 341 153 341 150 277 c 1,0,1
493 76 m 1,9,10
 498 68 498 68 498 55 c 128,-1,11
 498 42 498 42 487 30.5 c 128,-1,12
 476 19 476 19 462.5 19 c 128,-1,13
 449 19 449 19 439 29 c 2,14,-1
 376 93 l 1,15,16
 330 68 330 68 277 68 c 128,-1,17
 224 68 224 68 183 90 c 1,18,19
 126.67539267 31.1151832461 126.67539267 31.1151832461 115.837696335 26.057591623 c 128,-1,20
 105 21 105 21 97 21 c 0,21,22
 73 21 73 21 73 45.5 c 128,-1,23
 73 70 73 70 134 129 c 1,24,25
 90 180 90 180 86 267 c 1,26,27
 88 352 88 352 139 409 c 1,28,29
 129 420 129 420 118.5 431.5 c 128,-1,30
 108 443 108 443 101.5 450.5 c 128,-1,31
 95 458 95 458 89.5 464 c 128,-1,32
 84 470 84 470 82 472.5 c 128,-1,33
 80 475 80 475 76 478.5 c 128,-1,34
 72 482 72 482 72 495.5 c 128,-1,35
 72 509 72 509 84 520.5 c 128,-1,36
 96 532 96 532 109.5 532 c 128,-1,37
 123 532 123 532 139.268292683 517.414634146 c 0,38,39
 155.536585366 502.829268293 155.536585366 502.829268293 197 451 c 1,40,41
 245 474 245 474 294 474 c 128,-1,42
 343 474 343 474 389 447 c 1,43,44
 395 453 395 453 415.5 480 c 0,45,46
 456.5 534 456.5 534 482 534 c 0,47,48
 493 534 493 534 500 527 c 128,-1,49
 507 520 507 520 507 509 c 128,-1,50
 507 498 507 498 500 487 c 1,51,52
 456 438 456 438 434 411 c 1,53,54
 483 355 483 355 483 273 c 128,-1,55
 483 191 483 191 431 136 c 1,56,-1
 493 76 l 1,9,10
EndSplineSet
EndChar

StartChar: yen
Encoding: 165 165 121
Width: 387
Flags: HW
HStem: 166 58<75.1711 147> 534 20G<42 61.5 316 342>
VStem: 147 59<6.60107 76 146 166 233 275.673>
LayerCount: 2
Fore
SplineSet
171 2 m 0,0,1
 147 2 147 2 147 49.5 c 2,2,-1
 147 76 l 1,3,4
 136 73 136 73 114.5 69 c 128,-1,5
 93 65 93 65 85 62.5 c 128,-1,6
 77 60 77 60 68.5 60 c 128,-1,7
 60 60 60 60 53.5 68.5 c 128,-1,8
 47 77 47 77 47 88 c 0,9,10
 47 116 47 116 71 119 c 1,11,-1
 147 136 l 1,12,-1
 147 166 l 1,13,14
 99 156 99 156 74 154 c 1,15,16
 45 158 45 158 45 183 c 0,17,18
 45 202.4 45 202.4 62 207.5 c 0,19,20
 70.3333333333 210 70.3333333333 210 81.6666666667 212 c 128,-1,21
 93 214 93 214 101 215.5 c 128,-1,22
 109 217 109 217 122 219.5 c 128,-1,23
 135 222 135 222 147 224 c 1,24,-1
 148 257 l 2,25,26
 148 269 148 269 147 276 c 1,27,28
 105 336 105 336 20 507 c 0,29,30
 17 513 17 513 17 523 c 128,-1,31
 17 533 17 533 27.5 543.5 c 128,-1,32
 38 554 38 554 49 554 c 128,-1,33
 60 554 60 554 75.5 532 c 128,-1,34
 91 510 91 510 113.5 468 c 128,-1,35
 136 426 136 426 139 421 c 128,-1,36
 142 416 142 416 158.5 384.5 c 128,-1,37
 175 353 175 353 181 344 c 1,38,-1
 227 425 l 2,39,40
 235 439 235 439 238 444.5 c 128,-1,41
 241 450 241 450 249.5 464.5 c 128,-1,42
 258 479 258 479 263.5 486.5 c 128,-1,43
 269 494 269 494 277.5 506.5 c 0,44,45
 289.4 524 289.4 524 305.933333333 539.5 c 128,-1,46
 322.466666667 555 322.466666667 555 335 555 c 0,47,48
 359 555 359 555 359 531 c 0,49,50
 359 523.5 359 523.5 356 516 c 1,51,52
 320.969432314 473.462882096 320.969432314 473.462882096 290.984716157 421.231441048 c 0,53,54
 226.125 308.25 226.125 308.25 207 270 c 1,55,-1
 207 233 l 1,56,-1
 280 244 l 1,57,58
 303 237 303 237 303 216 c 0,59,60
 303 186.709677419 303 186.709677419 228.5 179.5 c 0,61,62
 213 178 213 178 206 176 c 1,63,-1
 206 146 l 1,64,65
 258 157 258 157 273 157 c 128,-1,66
 288 157 288 157 296 149 c 128,-1,67
 304 141 304 141 304 130 c 0,68,69
 304 97 304 97 204 86 c 1,70,71
 204 54 204 54 206 37 c 1,72,73
 203 23 203 23 192.5 12.5 c 128,-1,74
 182 2 182 2 171 2 c 0,0,1
EndSplineSet
Substitution2: "'smcp' Lowercase to Small Capitals in Latin lookup 0 subtable" yen.smcp
EndChar

StartChar: quotesingle
Encoding: 39 39 122
Width: 137
Flags: HW
HStem: 546 180<44.0984 92.3455>
VStem: 37 57<547.147 663.396> 43 58<580.173 724.546>
LayerCount: 2
Fore
SplineSet
37 576 m 1,0,-1
 43 700 l 1,1,2
 48 726 48 726 71 726 c 0,3,4
 101 726 101 726 101 665 c 0,5,6
 101 651 101 651 98.5 633 c 128,-1,7
 96 615 96 615 94 577 c 0,8,9
 93 563 93 563 84.5 554.5 c 128,-1,10
 76 546 76 546 66 546 c 0,11,12
 42 546 42 546 37 576 c 1,0,-1
EndSplineSet
EndChar

StartChar: quotedbl
Encoding: 34 34 123
Width: 253
Flags: HW
HStem: 456 180<44.0984 92.3455>
VStem: 37 57<457.147 573.396> 43 58<490.173 634.546> 139 57<470.061 625.841>
LayerCount: 2
Fore
SplineSet
139 497 m 1,0,-1
 144 601 l 1,1,2
 149 629 149 629 173 629 c 0,3,4
 194 629 194 629 200 604 c 1,5,-1
 196 500 l 2,6,7
 196 485 196 485 187 477 c 128,-1,8
 178 469 178 469 167 469 c 0,9,10
 142 469 142 469 139 497 c 1,0,-1
37 486 m 1,11,-1
 43 610 l 1,12,13
 48 636 48 636 71 636 c 0,14,15
 101 636 101 636 101 575 c 0,16,17
 101 561 101 561 98.5 543 c 128,-1,18
 96 525 96 525 94 487 c 0,19,20
 93 473 93 473 84.5 464.5 c 128,-1,21
 76 456 76 456 66 456 c 0,22,23
 42 456 42 456 37 486 c 1,11,-1
EndSplineSet
EndChar

StartChar: quoteleft
Encoding: 8216 8216 124
Width: 159
Flags: HW
HStem: 473 160<58.0051 88.9008>
VStem: 33 57<524.022 632.057>
LayerCount: 2
Fore
SplineSet
90 607 m 1,0,1
 90 547 90 547 116 519 c 1,2,3
 119 510 119 510 119 502 c 0,4,5
 119 473 119 473 91 473 c 0,6,7
 70 473 70 473 55.5 500.5 c 0,8,9
 33 543.172413793 33 543.172413793 33 609 c 1,10,11
 43 633 43 633 61 633 c 0,12,13
 85 633 85 633 90 607 c 1,0,1
EndSplineSet
EndChar

StartChar: quoteright
Encoding: 8217 8217 125
Width: 184
Flags: HW
HStem: 473 160<67.0745 97.207>
VStem: 66 57<524.022 631.894>
LayerCount: 2
Fore
SplineSet
66 607 m 1,0,1
 71 633 71 633 94 633 c 0,2,3
 113 633 113 633 123 609 c 1,4,5
 123 566 123 566 109 519.5 c 128,-1,6
 95 473 95 473 64 473 c 0,7,8
 37 473 37 473 37 502 c 0,9,10
 37 510 37 510 40 519 c 1,11,12
 66 547 66 547 66 607 c 1,0,1
EndSplineSet
EndChar

StartChar: guillemotleft
Encoding: 171 171 126
Width: 399
Flags: HW
HStem: 64 292
VStem: 46 309
LayerCount: 2
Fore
SplineSet
304 343 m 1,0,1
 313 351 313 351 325.5 351 c 128,-1,2
 338 351 338 351 346.5 345 c 128,-1,3
 355 339 355 339 355 330 c 0,4,5
 355 302 355 302 259 199 c 1,6,7
 265 187 265 187 307.5 149 c 128,-1,8
 350 111 350 111 350 91 c 0,9,10
 350 79 350 79 342 71.5 c 128,-1,11
 334 64 334 64 323.5 64 c 128,-1,12
 313 64 313 64 304 69 c 128,-1,13
 295 74 295 74 291 78 c 128,-1,14
 287 82 287 82 277 94 c 128,-1,15
 267 106 267 106 265.5 107.5 c 128,-1,16
 264 109 264 109 251 121 c 128,-1,17
 238 133 238 133 228 143 c 0,18,19
 198.933333333 172.066666667 198.933333333 172.066666667 197 203 c 1,20,21
 197 223 197 223 304 343 c 1,0,1
112.5 299 m 128,-1,23
 142 324 142 324 150 334 c 128,-1,24
 158 344 158 344 172.5 350 c 128,-1,25
 187 356 187 356 193 356 c 0,26,27
 216 356 216 356 216 329.827586207 c 128,-1,28
 216 303.655172414 216 303.655172414 141 239 c 0,29,30
 112 214 112 214 106 206 c 1,31,32
 109 203 109 203 125 189 c 0,33,34
 194 128.625 194 128.625 194 98.8125 c 128,-1,35
 194 69 194 69 167 69 c 0,36,37
 162 69 162 69 145.5 80.5 c 128,-1,38
 129 92 129 92 119 106 c 128,-1,39
 109 120 109 120 87.5 139.5 c 128,-1,40
 66 159 66 159 56 171.5 c 128,-1,41
 46 184 46 184 46 206.5 c 128,-1,42
 46 229 46 229 64.5 251.5 c 128,-1,22
 83 274 83 274 112.5 299 c 128,-1,23
EndSplineSet
EndChar

StartChar: guillemotright
Encoding: 187 187 127
Width: 424
Flags: HW
HStem: 56 291
VStem: 50 310
LayerCount: 2
Fore
SplineSet
86 56 m 0,0,1
 56 56 56 56 56 86.5 c 0,2,3
 56 102 56 102 98 139.5 c 128,-1,4
 140 177 140 177 147 190 c 1,5,6
 50 291 50 291 50 321 c 0,7,8
 50 330 50 330 59 336.5 c 128,-1,9
 68 343 68 343 79 343 c 128,-1,10
 90 343 90 343 101 334 c 1,11,12
 128 307 128 307 168.5 258.5 c 128,-1,13
 209 210 209 210 209 194 c 1,14,15
 204.857142857 160.857142857 204.857142857 160.857142857 178 134 c 0,16,17
 168 124 168 124 155 112.5 c 128,-1,18
 142 101 142 101 140 99 c 128,-1,19
 138 97 138 97 128.5 85.5 c 128,-1,20
 119 74 119 74 110 65 c 128,-1,21
 101 56 101 56 86 56 c 0,0,1
233 341 m 128,-1,23
 247 335 247 335 255 325.5 c 128,-1,24
 263 316 263 316 293.5 291 c 128,-1,25
 324 266 324 266 342 243 c 128,-1,26
 360 220 360 220 360 198 c 128,-1,27
 360 176 360 176 349.5 163 c 128,-1,28
 339 150 339 150 317.5 131 c 128,-1,29
 296 112 296 112 286.5 97.5 c 128,-1,30
 277 83 277 83 260.5 71.5 c 128,-1,31
 244 60 244 60 235.5 60 c 128,-1,32
 227 60 227 60 219 68 c 128,-1,33
 211 76 211 76 211 88 c 0,34,35
 211 110.153846154 211 110.153846154 233.917475728 134.83420463 c 128,-1,36
 256.834951456 159.514563107 256.834951456 159.514563107 281 180.5 c 2,37,-1
 300 197 l 1,38,39
 294 204 294 204 265.5 228.5 c 0,40,41
 193.481056257 290.411021814 193.481056257 290.411021814 190 320 c 1,42,43
 190 347 190 347 213 347 c 0,44,22
 219 347 219 347 233 341 c 128,-1,23
EndSplineSet
EndChar

StartChar: parenleft
Encoding: 40 40 128
Width: 279
Flags: HW
VStem: 50 64<138.145 450.943>
LayerCount: 2
Fore
SplineSet
196 651 m 0,0,1
 203 655 203 655 213.5 655 c 128,-1,2
 224 655 224 655 234.5 646.5 c 128,-1,3
 245 638 245 638 245 632 c 128,-1,4
 245 626 245 626 225.5 597 c 128,-1,5
 206 568 206 568 183.5 536 c 128,-1,6
 161 504 161 504 149 482.5 c 128,-1,7
 137 461 137 461 126.5 417.5 c 128,-1,8
 116 374 116 374 115 348 c 128,-1,9
 114 322 114 322 114 272 c 128,-1,10
 114 222 114 222 132 150.5 c 128,-1,11
 150 79 150 79 173 54 c 0,12,13
 244 -23 244 -23 244 -42 c 128,-1,14
 244 -61 244 -61 206 -61 c 0,15,16
 192 -61 192 -61 181 -51 c 0,17,18
 103 27 103 27 76.5 101.5 c 128,-1,19
 50 176 50 176 50 274 c 0,20,21
 50 324 50 324 51.5 352.5 c 128,-1,22
 53 381 53 381 64 428.5 c 128,-1,23
 75 476 75 476 97 516 c 0,24,25
 159 628 159 628 196 651 c 0,0,1
EndSplineSet
EndChar

StartChar: parenright
Encoding: 41 41 129
Width: 304
Flags: HW
VStem: 183 63<148.667 460.891>
LayerCount: 2
Fore
SplineSet
145 -5.5 m 128,-1,1
 115 -46 115 -46 103.5 -54 c 128,-1,2
 92 -62 92 -62 80.5 -62 c 128,-1,3
 69 -62 69 -62 59 -53 c 128,-1,4
 49 -44 49 -44 49 -35 c 0,5,6
 49 -32.7777777778 49 -32.7777777778 91.5 28.6111111111 c 128,-1,7
 134 90 134 90 139 100 c 0,8,9
 159 135 159 135 169.5 178.5 c 128,-1,10
 180 222 180 222 181.5 249 c 128,-1,11
 183 276 183 276 183 326.5 c 128,-1,12
 183 377 183 377 164.5 449 c 128,-1,13
 146 521 146 521 123 546 c 0,14,15
 50 622 50 622 50 643 c 0,16,17
 50 661 50 661 90 661 c 0,18,19
 105 661 105 661 111 653 c 1,20,21
 191 574 191 574 218.5 498 c 128,-1,22
 246 422 246 422 246 323 c 0,23,24
 246 273 246 273 244.5 244 c 128,-1,25
 243 215 243 215 232 167 c 128,-1,26
 221 119 221 119 198 77 c 128,-1,0
 175 35 175 35 145 -5.5 c 128,-1,1
EndSplineSet
EndChar

StartChar: bracketleft
Encoding: 91 91 130
Width: 253
Flags: HW
HStem: -56 68<117.52 192.283> 566 67<117.471 211.334>
VStem: 51 68<11 566> 53 147<-45.5009 7.125>
LayerCount: 2
Fore
SplineSet
53 -24 m 2,0,-1
 51 260 l 1,1,-1
 51 331 l 1,2,-1
 53 584 l 2,3,4
 53 614 53 614 72 623.5 c 128,-1,5
 91 633 91 633 130 633 c 2,6,-1
 140.079849973 633.060355649 l 2,7,8
 214 633.060355649 214 633.060355649 214 603 c 0,9,10
 214 576.6 214 576.6 192 570 c 0,11,12
 176.090909091 565.227272727 176.090909091 565.227272727 153.045454545 566.113636364 c 128,-1,13
 130 567 130 567 117 566 c 1,14,15
 119 504 119 504 119 411.5 c 128,-1,16
 119 319 119 319 118 195.5 c 128,-1,17
 117 72 117 72 117 11 c 1,18,19
 122 12 122 12 138 12 c 0,20,21
 200 12 200 12 200 -12 c 0,22,23
 200 -56 200 -56 126.5 -56 c 128,-1,24
 53 -56 53 -56 53 -24 c 2,0,-1
EndSplineSet
EndChar

StartChar: bracketright
Encoding: 93 93 131
Width: 247
Flags: HW
HStem: -56 68<58.1785 133.483> 566 67<39.6094 133.554>
VStem: 51 148<-45.6016 7.34428> 133 67<11 566>
LayerCount: 2
Fore
SplineSet
111.025572368 633.056569914 m 2,0,-1
 121 633 l 2,1,2
 160 633 160 633 179.5 623.5 c 128,-1,3
 199 614 199 614 199 584 c 2,4,-1
 200 331 l 1,5,-1
 200 237 l 1,6,-1
 199 -24 l 2,7,8
 199 -56 199 -56 125 -56 c 128,-1,9
 51 -56 51 -56 51 -13 c 0,10,11
 51 12 51 12 113 12 c 0,12,13
 129 12 129 12 134 11 c 1,14,-1
 133 381 l 2,15,16
 133 504 133 504 134 566 c 1,17,18
 122 567 122 567 109 566.5 c 0,19,20
 81.7086092715 565.450331126 81.7086092715 565.450331126 59.3543046358 570.772784611 c 128,-1,21
 37 576.095238095 37 576.095238095 37 601 c 0,22,23
 37 633.056569914 37 633.056569914 111.025572368 633.056569914 c 2,0,-1
EndSplineSet
EndChar

StartChar: braceleft
Encoding: 123 123 132
Width: 283
Flags: HW
HStem: 552 65<181.56 257.444>
VStem: 96 65<22.8246 136.222> 110 69<458.053 569> 119 64<55.6538 223.494> 127 63<379.646 545.27>
LayerCount: 2
Fore
SplineSet
179 538 m 1,0,-1
 190 461 l 1,1,2
 190 411 190 411 176 376.5 c 128,-1,3
 162 342 162 342 123 303 c 1,4,5
 127 298 127 298 136.5 286.5 c 128,-1,6
 146 275 146 275 149 270.5 c 128,-1,7
 152 266 152 266 158.5 257 c 128,-1,8
 165 248 165 248 167.5 241.5 c 128,-1,9
 170 235 170 235 175.47826087 221.304347826 c 0,10,11
 180.956521739 207.608695652 180.956521739 207.608695652 183 179 c 0,12,13
 183 168 183 168 172 122 c 128,-1,14
 161 76 161 76 161 55 c 128,-1,15
 161 34 161 34 173.666666667 26.3095238095 c 128,-1,16
 186.333333333 18.619047619 186.333333333 18.619047619 194.345238095 18.619047619 c 128,-1,17
 202.357142857 18.619047619 202.357142857 18.619047619 212.178571429 19.8095238095 c 128,-1,18
 222 21 222 21 236 16 c 128,-1,19
 250 11 250 11 250 -2.5 c 128,-1,20
 250 -16 250 -16 239.5 -28.5 c 128,-1,21
 229 -41 229 -41 216 -44 c 1,22,23
 152 -44 152 -44 124 -19.5 c 128,-1,24
 96 5 96 5 96 41 c 0,25,26
 96 53 96 53 107.5 91.5 c 128,-1,27
 119 130 119 130 119 155.5 c 128,-1,28
 119 181 119 181 107.5 205 c 128,-1,29
 96 229 96 229 71.5 256.326923077 c 0,30,31
 47 283.653846154 47 283.653846154 47 298.826923077 c 128,-1,32
 47 314 47 314 59.5 329 c 128,-1,33
 72 344 72 344 87 357 c 128,-1,34
 102 370 102 370 114.5 395.5 c 128,-1,35
 127 421 127 421 127 445 c 128,-1,36
 127 469 127 469 118.5 510.5 c 128,-1,37
 110 552 110 552 110 554 c 0,38,39
 110 580 110 580 130.5 598.5 c 128,-1,40
 151 617 151 617 205.5 617 c 0,41,42
 260 617 260 617 260 589 c 0,43,44
 260 552 260 552 214 552 c 0,45,46
 205 552 205 552 189 554 c 1,47,48
 179 554 179 554 179 538 c 1,0,-1
EndSplineSet
EndChar

StartChar: braceright
Encoding: 125 125 133
Width: 274
Flags: HW
HStem: 554 63<38.9297 115.44>
VStem: 107 63<379.646 545.77> 114 65<50.0369 223.494> 118 69<458.076 569> 136 65<22.8246 164.871>
LayerCount: 2
Fore
SplineSet
110 554 m 2,0,-1
 84 552 l 1,1,2
 37 552 37 552 37 589 c 0,3,4
 37 617 37 617 97.4450960214 617 c 2,5,6
 101 617 l 2,7,8
 146 617 146 617 166.5 598.5 c 128,-1,9
 187 580 187 580 187 554 c 0,10,11
 187 552 187 552 178.5 510.5 c 128,-1,12
 170 469 170 469 170 445 c 128,-1,13
 170 421 170 421 182.5 395.5 c 128,-1,14
 195 370 195 370 210 357 c 0,15,16
 250 322.333333333 250 322.333333333 250 301.981481481 c 0,17,18
 250 281.62962963 250 281.62962963 214.5 243.5 c 0,19,20
 201 229 201 229 190 205 c 128,-1,21
 179 181 179 181 179 155.5 c 128,-1,22
 179 130 179 130 190 91.5 c 128,-1,23
 201 53 201 53 201 41 c 0,24,25
 201 5 201 5 173 -19.5 c 128,-1,26
 145 -44 145 -44 81 -44 c 1,27,28
 68 -41 68 -41 57.5 -28.5 c 128,-1,29
 47 -16 47 -16 47 -2.5 c 128,-1,30
 47 11 47 11 61 16 c 128,-1,31
 75 21 75 21 84.8214285714 19.8095238095 c 128,-1,32
 94.6428571429 18.619047619 94.6428571429 18.619047619 102.654761905 18.619047619 c 128,-1,33
 110.666666667 18.619047619 110.666666667 18.619047619 123.333333333 26.3095238095 c 128,-1,34
 136 34 136 34 136 55 c 128,-1,35
 136 76 136 76 125 122 c 128,-1,36
 114 168 114 168 114.5 181.5 c 128,-1,37
 115 195 115 195 118.5 208.5 c 128,-1,38
 122 222 122 222 124 230 c 128,-1,39
 126 238 126 238 134 250 c 128,-1,40
 142 262 142 262 144.5 265.5 c 128,-1,41
 147 269 147 269 159 284 c 128,-1,42
 171 299 171 299 174 303 c 1,43,44
 135 342 135 342 121 376.5 c 128,-1,45
 107 411 107 411 107 461 c 1,46,-1
 118 539 l 1,47,48
 118 554 118 554 110 554 c 2,0,-1
EndSplineSet
EndChar

StartChar: equal
Encoding: 61 61 134
Width: 477
Flags: HW
HStem: 170 56<93.275 392.013> 310 54<99.2396 392.314>
VStem: 91 304<173.179 225.633 310.413 360.6>
LayerCount: 2
Fore
SplineSet
373 173 m 1,0,-1
 110 170 l 2,1,2
 91 170 91 170 91 191 c 0,3,4
 91 203 91 203 97.5 213.5 c 128,-1,5
 104 224 104 224 114 226 c 1,6,7
 233 227 233 227 377 227 c 1,8,9
 395 226 395 226 395 206 c 0,10,11
 395 195 395 195 388.5 185 c 128,-1,12
 382 175 382 175 373 173 c 1,0,-1
275 307 m 2,13,-1
 117 310 l 2,14,15
 97 310 97 310 97 330 c 0,16,17
 97 341 97 341 104 352 c 128,-1,18
 111 363 111 363 121 364 c 1,19,-1
 279 361 l 2,20,21
 316 361 316 361 379 364 c 1,22,23
 395 361 395 361 395 347.5 c 128,-1,24
 395 334 395 334 388.5 323.5 c 128,-1,25
 382 313 382 313 373 310 c 1,26,27
 311 307 311 307 275 307 c 2,13,-1
EndSplineSet
EndChar

StartChar: plus
Encoding: 43 43 135
Width: 400
Flags: HW
HStem: 167 64<35.7282 169 234 357.005>
VStem: 167 66<17 167 231 372.198>
LayerCount: 2
Fore
SplineSet
232.5 148.375 m 2,0,-1
 233.5 107.875 l 1,1,2
 233.5 39.8571428571 233.5 39.8571428571 215.5 21 c 0,3,4
 205 10 205 10 189 10 c 0,5,6
 167 10 167 10 167 39 c 0,7,8
 167 124 167 124 169 167 c 1,9,-1
 57 167 l 2,10,11
 29 167 29 167 29 189 c 0,12,13
 29 203 29 203 40 216 c 128,-1,14
 51 229 51 229 67 231 c 1,15,-1
 170 231 l 1,16,-1
 168.5 288.625 l 1,17,18
 168.5 353.875 168.5 353.875 186 370.5 c 0,19,20
 196 380 196 380 213 380 c 128,-1,21
 230 380 230 380 236 356 c 1,22,-1
 234 231 l 1,23,-1
 339 231 l 1,24,25
 363 227 363 227 363 208 c 0,26,27
 363 195 363 195 353 183 c 128,-1,28
 343 171 343 171 329 167 c 1,29,-1
 233 167 l 1,30,31
 232.5 158 232.5 158 232.5 148.375 c 2,0,-1
EndSplineSet
EndChar

StartChar: less
Encoding: 60 60 136
Width: 330
Flags: HW
HStem: 365 20G<262.5 274>
VStem: 22 274
LayerCount: 2
Fore
SplineSet
249 381 m 0,0,1
 257 385 257 385 267.5 385 c 128,-1,2
 278 385 278 385 287 375.5 c 128,-1,3
 296 366 296 366 296 354 c 128,-1,4
 296 342 296 342 289 334 c 1,5,6
 253 306 253 306 186.5 258.5 c 2,7,-1
 99 196 l 1,8,9
 127 175 127 175 192 131.5 c 128,-1,10
 257 88 257 88 291 61 c 1,11,12
 297 52 297 52 297 41 c 128,-1,13
 297 30 297 30 286.5 21 c 128,-1,14
 276 12 276 12 265 12 c 128,-1,15
 254 12 254 12 250 14 c 0,16,17
 215 42 215 42 142.5 92 c 128,-1,18
 70 142 70 142 34 171 c 1,19,20
 22 182 22 182 22 197 c 128,-1,21
 22 212 22 212 36 221 c 1,22,23
 155 320 155 320 249 381 c 0,0,1
EndSplineSet
EndChar

StartChar: greater
Encoding: 62 62 137
Width: 334
Flags: HW
HStem: 365 20G<50 59.5>
VStem: 36 276
LayerCount: 2
Fore
SplineSet
74 381 m 1,0,1
 109 351 109 351 185 300.5 c 128,-1,2
 261 250 261 250 296 221 c 0,3,4
 312 207 312 207 312 195 c 128,-1,5
 312 183 312 183 303 174 c 1,6,7
 268 145 268 145 193.5 94 c 128,-1,8
 119 43 119 43 84 14 c 1,9,10
 80 12 80 12 68.5 12 c 128,-1,11
 57 12 57 12 46.5 22 c 128,-1,12
 36 32 36 32 36 44 c 128,-1,13
 36 56 36 56 41 63 c 1,14,15
 68 83 68 83 136 129.5 c 128,-1,16
 204 176 204 176 239 203 c 1,17,18
 210 224 210 224 144.5 268 c 128,-1,19
 79 312 79 312 46 337 c 1,20,21
 35 351 35 351 35 363 c 0,22,23
 35 385 35 385 57 385 c 0,24,25
 65 385 65 385 74 381 c 1,0,1
EndSplineSet
EndChar

StartChar: divide
Encoding: 247 247 138
Width: 433
Flags: HW
HStem: 49 78<172.328 243.558> 190 61<39.7587 386.128> 311 79<174.916 243.844>
VStem: 168 83<55.9574 121.467 317.51 383.391>
LayerCount: 2
Fore
SplineSet
183.5 379.5 m 128,-1,1
 196 390 196 390 211 390 c 128,-1,2
 226 390 226 390 238 379 c 128,-1,3
 250 368 250 368 250 353 c 128,-1,4
 250 338 250 338 238 324.5 c 128,-1,5
 226 311 226 311 208.5 311 c 128,-1,6
 191 311 191 311 181 322.5 c 128,-1,7
 171 334 171 334 171 351.5 c 128,-1,0
 171 369 171 369 183.5 379.5 c 128,-1,1
220 127 m 1,8,9
 250 121 250 121 251 87 c 1,10,11
 239 49 239 49 204 49 c 0,12,13
 187 49 187 49 177.5 59 c 128,-1,14
 168 69 168 69 168 85 c 0,15,16
 168 127 168 127 220 127 c 1,8,9
363 196 m 1,17,-1
 159 190 l 1,18,19
 111 190 111 190 67 194 c 0,20,21
 53 196 53 196 45 204.5 c 128,-1,22
 37 213 37 213 37 223.5 c 128,-1,23
 37 234 37 234 46 242 c 128,-1,24
 55 250 55 250 69 251 c 1,25,26
 114 247 114 247 163 247 c 1,27,-1
 364 253 l 1,28,29
 389 244 389 244 389 222.5 c 128,-1,30
 389 201 389 201 363 196 c 1,17,-1
EndSplineSet
EndChar

StartChar: minus
Encoding: 8722 8722 139
Width: 394
Flags: HW
HStem: 167 65<35.1424 357.005>
LayerCount: 2
Fore
SplineSet
112.375 233.5 m 2,0,-1
 165 232 l 1,1,2
 249 232 249 232 339 231 c 1,3,4
 363 227 363 227 363 208 c 0,5,6
 363 195 363 195 353 183 c 128,-1,7
 343 171 343 171 329 167 c 1,8,-1
 57 167 l 2,9,10
 29 167 29 167 29 189 c 0,11,12
 29 221.868421053 29 221.868421053 65 228.5 c 0,13,14
 92.1428571429 233.5 92.1428571429 233.5 112.375 233.5 c 2,0,-1
EndSplineSet
EndChar

StartChar: logicalnot
Encoding: 172 172 140
Width: 404
Flags: HW
HStem: 167 65<35.1424 304>
VStem: 304 57<31.2378 167>
LayerCount: 2
Fore
SplineSet
361 197 m 2,0,-1
 360 61 l 2,1,2
 359 47 359 47 350.5 38.5 c 128,-1,3
 342 30 342 30 332 30 c 0,4,5
 308 30 308 30 303 60 c 1,6,7
 303 131 303 131 304 167 c 1,8,-1
 57 167 l 2,9,10
 29 167 29 167 29 189 c 0,11,12
 29 221.868421053 29 221.868421053 65 228.5 c 0,13,14
 92.1428571429 233.5 92.1428571429 233.5 112.375 233.5 c 2,15,-1
 165 232 l 1,16,17
 249 232 249 232 339 231 c 1,18,19
 354.357142857 227.928571429 354.357142857 227.928571429 356.678571429 220.964285714 c 0,20,21
 361 208 361 208 361 197 c 2,0,-1
EndSplineSet
EndChar

StartChar: plusminus
Encoding: 177 177 141
Width: 396
Flags: HW
HStem: -100 63<32.6094 354.922> 167 64<35.7282 169 234 357.005>
VStem: 167 66<17 167 231 372.198>
LayerCount: 2
Fore
SplineSet
323 -100 m 1,0,-1
 61 -100 l 2,1,2
 46 -100 46 -100 38 -92 c 128,-1,3
 30 -84 30 -84 30 -73 c 0,4,5
 30 -43 30 -43 71 -37 c 1,6,-1
 326 -37 l 1,7,8
 357 -46 357 -46 357 -69 c 0,9,10
 357 -83 357 -83 349.5 -89 c 128,-1,11
 342 -95 342 -95 323 -100 c 1,0,-1
232.5 148.375 m 2,12,-1
 233.5 107.875 l 1,13,14
 233.5 39.8571428571 233.5 39.8571428571 215.5 21 c 0,15,16
 205 10 205 10 189 10 c 0,17,18
 167 10 167 10 167 39 c 0,19,20
 167 124 167 124 169 167 c 1,21,-1
 57 167 l 2,22,23
 29 167 29 167 29 189 c 0,24,25
 29 203 29 203 40 216 c 128,-1,26
 51 229 51 229 67 231 c 1,27,-1
 170 231 l 1,28,-1
 168.5 288.625 l 1,29,30
 168.5 353.875 168.5 353.875 186 370.5 c 0,31,32
 196 380 196 380 213 380 c 128,-1,33
 230 380 230 380 236 356 c 1,34,-1
 234 231 l 1,35,-1
 339 231 l 1,36,37
 363 227 363 227 363 208 c 0,38,39
 363 195 363 195 353 183 c 128,-1,40
 343 171 343 171 329 167 c 1,41,-1
 233 167 l 1,42,43
 232.5 158 232.5 158 232.5 148.375 c 2,12,-1
EndSplineSet
EndChar

StartChar: multiply
Encoding: 215 215 142
Width: 409
Flags: HW
HStem: 70 314
VStem: 50 304
LayerCount: 2
Fore
SplineSet
314 70 m 0,0,1
 305.714285714 70 305.714285714 70 200 181 c 1,2,3
 112 71 112 71 84 71 c 0,4,5
 71 71 71 71 63.5 79 c 128,-1,6
 56 87 56 87 56 99.5 c 128,-1,7
 56 112 56 112 77 136.5 c 128,-1,8
 98 161 98 161 128 189.5 c 128,-1,9
 158 218 158 218 161 221 c 1,10,11
 50 330 50 330 50 354 c 0,12,13
 50 367 50 367 57.5 375 c 128,-1,14
 65 383 65 383 76.5 383 c 128,-1,15
 88 383 88 383 108.5 362.5 c 128,-1,16
 129 342 129 342 159.5 306.5 c 128,-1,17
 190 271 190 271 199 261 c 1,18,19
 276.142857143 346.714285714 276.142857143 346.714285714 300.571428571 365.357142857 c 128,-1,20
 325 384 325 384 336 384 c 0,21,22
 354 384 354 384 354 362 c 128,-1,23
 354 340 354 340 334.5 319 c 128,-1,24
 315 298 315 298 281.5 271 c 128,-1,25
 248 244 248 244 231 223 c 1,26,27
 245 209 245 209 271 186.5 c 128,-1,28
 297 164 297 164 303 158 c 128,-1,29
 309 152 309 152 331 134.258064516 c 0,30,31
 353 116.516129032 353 116.516129032 353 97.2580645161 c 128,-1,32
 353 78 353 78 343 74 c 128,-1,33
 333 70 333 70 314 70 c 0,0,1
EndSplineSet
EndChar

StartChar: onesuperior
Encoding: 185 185 143
Width: 200
Flags: HW
HStem: 386 210<95.8125 138.289>
LayerCount: 2
Fore
SplineSet
54 496 m 1,0,1
 30 496 30 496 30 521 c 0,2,3
 30 539 30 539 65 567.5 c 128,-1,4
 100 596 100 596 127 596 c 0,5,6
 157 596 157 596 157 554 c 0,7,8
 157 530 157 530 150.5 483.5 c 128,-1,9
 144 437 144 437 143 423 c 128,-1,10
 142 409 142 409 131 397.5 c 128,-1,11
 120 386 120 386 110 386 c 0,12,13
 86 386 86 386 81 416 c 1,14,15
 82 435 82 435 87.5 469.5 c 128,-1,16
 93 504 93 504 94 513 c 1,17,18
 91 509 91 509 54 496 c 1,0,1
EndSplineSet
EndChar

StartChar: twosuperior
Encoding: 178 178 144
Width: 197
Flags: HW
HStem: 390 54<96 152.157> 531 65<54.6115 98.9225>
VStem: 99 65<490.003 560.5>
LayerCount: 2
Fore
SplineSet
116.625 389.25 m 2,0,-1
 90 390 l 1,1,2
 24 390 24 390 24 421 c 0,3,4
 24 444 24 444 61.5 472.5 c 128,-1,5
 99 501 99 501 99 517 c 0,6,7
 99 524 99 524 96 531 c 1,8,-1
 54 519 l 1,9,10
 43 519 43 519 34.5 526.5 c 128,-1,11
 26 534 26 534 26 551 c 128,-1,12
 26 568 26 568 49.5 582 c 128,-1,13
 73 596 73 596 96 596 c 0,14,15
 164 596 164 596 164 537 c 0,16,17
 164 501 164 501 96 444 c 1,18,-1
 153 451 l 1,19,20
 165 451 165 451 171 442.5 c 128,-1,21
 177 434 177 434 177 424.5 c 128,-1,22
 177 415 177 415 174.5 409 c 128,-1,23
 172 403 172 403 166 399.5 c 128,-1,24
 160 396 160 396 155 393.5 c 128,-1,25
 150 391 150 391 140 390.5 c 128,-1,26
 130 390 130 390 125.5 389.625 c 128,-1,27
 121 389.25 121 389.25 116.625 389.25 c 2,0,-1
EndSplineSet
EndChar

StartChar: threesuperior
Encoding: 179 179 145
Width: 177
Flags: HW
HStem: 389 61<21.9951 99.8421> 538 58<28.4015 99.8067>
VStem: 64 90<499 554>
LayerCount: 2
Fore
SplineSet
46 456 m 1,0,-1
 77 450 l 1,1,2
 92 450 92 450 100 466 c 1,3,4
 94 468 94 468 88 471 c 2,5,-1
 78 476 l 2,6,7
 74 478 74 478 73 479.5 c 128,-1,8
 72 481 72 481 69.5 483 c 128,-1,9
 67 485 67 485 65.5 488.75 c 0,10,11
 64 492.5 64 492.5 64 500.25 c 128,-1,12
 64 508 64 508 68.5 511.5 c 128,-1,13
 73 515 73 515 100 529 c 1,14,15
 95 538 95 538 73 538 c 1,16,-1
 53 537 l 2,17,18
 42 537 42 537 34.5 544 c 128,-1,19
 27 551 27 551 27 563 c 0,20,21
 27 596 27 596 71 596 c 0,22,23
 154 596 154 596 154 554 c 128,-1,24
 154 512 154 512 127 497 c 1,25,26
 142 494 142 494 151 478 c 128,-1,27
 160 462 160 462 160 446.5 c 128,-1,28
 160 431 160 431 142.5 410 c 128,-1,29
 125 389 125 389 97.5 389 c 128,-1,30
 70 389 70 389 42 399 c 128,-1,31
 14 409 14 409 14 427 c 0,32,33
 14 438 14 438 22.5 446.5 c 128,-1,34
 31 455 31 455 46 456 c 1,0,-1
EndSplineSet
EndChar

StartChar: Aacute
Encoding: 193 193 146
Width: 407
Flags: HW
HStem: -1 21G<351 368> 203 63<140.88 269> 529 20G<168.5 227.5> 600 141<176 242>
VStem: 20 60<1.75806 130.833>
LayerCount: 2
Fore
SplineSet
217 727 m 1,0,1
 225 741 225 741 239.5 741 c 128,-1,2
 254 741 254 741 263 731 c 128,-1,3
 272 721 272 721 272 704 c 1,4,5
 248.363636364 654.363636364 248.363636364 654.363636364 221.181818182 627.181818182 c 128,-1,6
 194 600 194 600 178 600 c 128,-1,7
 162 600 162 600 154 608.5 c 128,-1,8
 146 617 146 617 146 628 c 128,-1,9
 146 639 146 639 159 654 c 1,10,11
 192 672 192 672 217 727 c 1,0,1
207 457 m 1,12,13
 165 378 165 378 139 284 c 1,14,15
 190 266 190 266 269 266 c 1,16,17
 235 390 235 390 207 457 c 1,12,13
80 17 m 0,18,19
 77 1 77 1 48.5 1 c 128,-1,20
 20 1 20 1 20 25 c 0,21,22
 20 72 20 72 48 194.5 c 128,-1,23
 76 317 76 317 124.5 433 c 128,-1,24
 173 549 173 549 216 549 c 0,25,26
 233 549 233 549 275.5 441.5 c 128,-1,27
 318 334 318 334 350 205 c 128,-1,28
 382 76 382 76 390 29 c 1,29,30
 390 -1 390 -1 359.5 -1 c 128,-1,31
 329 -1 329 -1 323 26 c 2,32,-1
 283 203 l 1,33,34
 176 203 176 203 121 219 c 1,35,36
 90 91 90 91 80 17 c 0,18,19
EndSplineSet
Substitution2: "'c2sc' Capitals to Small Capitals in Latin lookup 1 subtable" Aacute.smcp
EndChar

StartChar: aacute
Encoding: 225 225 147
Width: 373
Flags: HW
HStem: 0 62<133.075 222.897> 313 73<142.835 245.423> 421 141<160 226>
VStem: 47 64<85.1907 276.827> 260 66<101.886 299.438>
LayerCount: 2
Fore
SplineSet
201 548 m 1,0,1
 209 562 209 562 223.5 562 c 128,-1,2
 238 562 238 562 247 552 c 128,-1,3
 256 542 256 542 256 525 c 1,4,5
 232.363636364 475.363636364 232.363636364 475.363636364 205.181818182 448.181818182 c 128,-1,6
 178 421 178 421 162 421 c 128,-1,7
 146 421 146 421 138 429.5 c 128,-1,8
 130 438 130 438 130 449 c 128,-1,9
 130 460 130 460 143 475 c 1,10,11
 176 493 176 493 201 548 c 1,0,1
244 113 m 0,12,13
 260 159 260 159 260 211.5 c 128,-1,14
 260 264 260 264 247.5 288.5 c 128,-1,15
 235 313 235 313 203 313 c 0,16,17
 190 313 190 313 168.5 310.5 c 128,-1,18
 147 308 147 308 129 273 c 128,-1,19
 111 238 111 238 111 214 c 2,20,-1
 111 181 l 2,21,22
 111 62 111 62 172 62 c 0,23,24
 193 62 193 62 214.5 77 c 128,-1,25
 236 92 236 92 244 113 c 0,12,13
339 11 m 1,26,27
 334 -9 334 -9 303.318181818 -9 c 0,28,29
 272.636363636 -9 272.636363636 -9 268 16.5 c 0,30,31
 266 27.5 266 27.5 266 41 c 1,32,33
 227 0 227 0 165 0 c 0,34,35
 47 0 47 0 47 182 c 0,36,37
 47 256.266666667 47 256.266666667 75 316 c 0,38,39
 90 348 90 348 120.5 367 c 128,-1,40
 151 386 151 386 189 386 c 128,-1,41
 227 386 227 386 260 374 c 1,42,43
 270 389 270 389 289.866666667 389 c 0,44,45
 309.733333333 389 309.733333333 389 314.866666667 378 c 128,-1,46
 320 367 320 367 322.5 360.5 c 128,-1,47
 325 354 325 354 325.5 341.5 c 128,-1,48
 326 329 326 329 326.5 322 c 128,-1,49
 327 315 327 315 326.5 301 c 128,-1,50
 326 287 326 287 326 254 c 128,-1,51
 326 221 326 221 320 170 c 1,52,53
 325 81 325 81 339 11 c 1,26,27
EndSplineSet
Substitution2: "'smcp' Lowercase to Small Capitals in Latin lookup 0 subtable" Aacute.smcp
EndChar

StartChar: Acircumflex
Encoding: 194 194 148
Width: 407
Flags: HW
HStem: -1 21G<351 368> 203 63<140.88 269> 529 20G<168.5 227.5>
VStem: 20 60<1.75806 130.833>
LayerCount: 2
Fore
SplineSet
211 649 m 1,0,1
 208 647 208 647 179.84375 620.5 c 0,2,3
 151.6875 594 151.6875 594 138.34375 594 c 128,-1,4
 125 594 125 594 117.5 604 c 128,-1,5
 110 614 110 614 110 627 c 128,-1,6
 110 640 110 640 152 673 c 128,-1,7
 194 706 194 706 212.5 706 c 128,-1,8
 231 706 231 706 272.5 675.5 c 128,-1,9
 314 645 314 645 314 624 c 0,10,11
 314 612 314 612 303.5 604 c 128,-1,12
 293 596 293 596 284 596 c 128,-1,13
 275 596 275 596 248 617 c 128,-1,14
 221 638 221 638 211 649 c 1,0,1
207 457 m 1,15,16
 165 378 165 378 139 284 c 1,17,18
 190 266 190 266 269 266 c 1,19,20
 235 390 235 390 207 457 c 1,15,16
80 17 m 0,21,22
 77 1 77 1 48.5 1 c 128,-1,23
 20 1 20 1 20 25 c 0,24,25
 20 72 20 72 48 194.5 c 128,-1,26
 76 317 76 317 124.5 433 c 128,-1,27
 173 549 173 549 216 549 c 0,28,29
 233 549 233 549 275.5 441.5 c 128,-1,30
 318 334 318 334 350 205 c 128,-1,31
 382 76 382 76 390 29 c 1,32,33
 390 -1 390 -1 359.5 -1 c 128,-1,34
 329 -1 329 -1 323 26 c 2,35,-1
 283 203 l 1,36,37
 176 203 176 203 121 219 c 1,38,39
 90 91 90 91 80 17 c 0,21,22
EndSplineSet
Substitution2: "'c2sc' Capitals to Small Capitals in Latin lookup 1 subtable" Acircumflex.smcp
EndChar

StartChar: acircumflex
Encoding: 226 226 149
Width: 373
Flags: HW
HStem: 0 62<133.075 222.897> 313 73<142.835 245.423> 536 20G<179 202>
VStem: 47 64<85.1907 276.827> 260 66<101.886 299.438>
LayerCount: 2
Fore
SplineSet
190 499 m 1,0,1
 187 497 187 497 158.84375 470.5 c 0,2,3
 130.6875 444 130.6875 444 117.34375 444 c 128,-1,4
 104 444 104 444 96.5 454 c 128,-1,5
 89 464 89 464 89 477 c 128,-1,6
 89 490 89 490 131 523 c 128,-1,7
 173 556 173 556 191.5 556 c 128,-1,8
 210 556 210 556 251.5 525.5 c 128,-1,9
 293 495 293 495 293 474 c 0,10,11
 293 462 293 462 282.5 454 c 128,-1,12
 272 446 272 446 263 446 c 128,-1,13
 254 446 254 446 227 467 c 128,-1,14
 200 488 200 488 190 499 c 1,0,1
244 113 m 0,15,16
 260 159 260 159 260 211.5 c 128,-1,17
 260 264 260 264 247.5 288.5 c 128,-1,18
 235 313 235 313 203 313 c 0,19,20
 190 313 190 313 168.5 310.5 c 128,-1,21
 147 308 147 308 129 273 c 128,-1,22
 111 238 111 238 111 214 c 2,23,-1
 111 181 l 2,24,25
 111 62 111 62 172 62 c 0,26,27
 193 62 193 62 214.5 77 c 128,-1,28
 236 92 236 92 244 113 c 0,15,16
339 11 m 1,29,30
 334 -9 334 -9 303.318181818 -9 c 0,31,32
 272.636363636 -9 272.636363636 -9 268 16.5 c 0,33,34
 266 27.5 266 27.5 266 41 c 1,35,36
 227 0 227 0 165 0 c 0,37,38
 47 0 47 0 47 182 c 0,39,40
 47 256.266666667 47 256.266666667 75 316 c 0,41,42
 90 348 90 348 120.5 367 c 128,-1,43
 151 386 151 386 189 386 c 128,-1,44
 227 386 227 386 260 374 c 1,45,46
 270 389 270 389 289.866666667 389 c 0,47,48
 309.733333333 389 309.733333333 389 314.866666667 378 c 128,-1,49
 320 367 320 367 322.5 360.5 c 128,-1,50
 325 354 325 354 325.5 341.5 c 128,-1,51
 326 329 326 329 326.5 322 c 128,-1,52
 327 315 327 315 326.5 301 c 128,-1,53
 326 287 326 287 326 254 c 128,-1,54
 326 221 326 221 320 170 c 1,55,56
 325 81 325 81 339 11 c 1,29,30
EndSplineSet
Substitution2: "'smcp' Lowercase to Small Capitals in Latin lookup 0 subtable" Acircumflex.smcp
EndChar

StartChar: Adieresis
Encoding: 196 196 150
Width: 437
Flags: HW
HStem: -1 21G<371 388> 203 63<160.88 289> 529 20G<188.5 247.5> 600 77<129.22 199.643 266.79 337.336>
VStem: 40 60<1.75806 130.833> 121 83<603.223 669.404> 263 82<607.133 673.606>
LayerCount: 2
Fore
SplineSet
135.5 663.5 m 128,-1,1
 150 678 150 678 166.5 678 c 128,-1,2
 183 678 183 678 193 666 c 128,-1,3
 203 654 203 654 204 635 c 1,4,5
 201 618 201 618 188 607.5 c 128,-1,6
 175 597 175 597 158 597 c 0,7,8
 127 597 127 597 121 630 c 1,9,0
 121 649 121 649 135.5 663.5 c 128,-1,1
308 677 m 0,10,11
 322 677 322 677 333 669 c 128,-1,12
 344 661 344 661 345 645 c 1,13,14
 342 623 342 623 329 611.5 c 128,-1,15
 316 600 316 600 300.5 600 c 128,-1,16
 285 600 285 600 274 610.5 c 128,-1,17
 263 621 263 621 263 640 c 0,18,19
 263 677 263 677 308 677 c 0,10,11
227 457 m 1,20,21
 185 378 185 378 159 284 c 1,22,23
 210 266 210 266 289 266 c 1,24,25
 255 390 255 390 227 457 c 1,20,21
100 17 m 0,26,27
 97 1 97 1 68.5 1 c 128,-1,28
 40 1 40 1 40 25 c 0,29,30
 40 72 40 72 68 194.5 c 128,-1,31
 96 317 96 317 144.5 433 c 128,-1,32
 193 549 193 549 236 549 c 0,33,34
 253 549 253 549 295.5 441.5 c 128,-1,35
 338 334 338 334 370 205 c 128,-1,36
 402 76 402 76 410 29 c 1,37,38
 410 -1 410 -1 379.5 -1 c 128,-1,39
 349 -1 349 -1 343 26 c 2,40,-1
 303 203 l 1,41,42
 196 203 196 203 141 219 c 1,43,44
 110 91 110 91 100 17 c 0,26,27
EndSplineSet
Substitution2: "'c2sc' Capitals to Small Capitals in Latin lookup 1 subtable" Adieresis.smcp
EndChar

StartChar: adieresis
Encoding: 228 228 151
Width: 393
Flags: HW
HStem: 0 62<152.075 241.897> 313 73<161.835 264.423> 446 77<118.22 188.643 255.79 326.336>
VStem: 66 64<85.1907 276.827> 110 83<449.223 515.404> 252 82<453.133 519.606> 279 66<101.886 299.438>
LayerCount: 2
Fore
SplineSet
124.5 509.5 m 128,-1,1
 139 524 139 524 155.5 524 c 128,-1,2
 172 524 172 524 182 512 c 128,-1,3
 192 500 192 500 193 481 c 1,4,5
 190 464 190 464 177 453.5 c 128,-1,6
 164 443 164 443 147 443 c 0,7,8
 116 443 116 443 110 476 c 1,9,0
 110 495 110 495 124.5 509.5 c 128,-1,1
297 523 m 0,10,11
 311 523 311 523 322 515 c 128,-1,12
 333 507 333 507 334 491 c 1,13,14
 331 469 331 469 318 457.5 c 128,-1,15
 305 446 305 446 289.5 446 c 128,-1,16
 274 446 274 446 263 456.5 c 128,-1,17
 252 467 252 467 252 486 c 0,18,19
 252 523 252 523 297 523 c 0,10,11
263 113 m 0,20,21
 279 159 279 159 279 211.5 c 128,-1,22
 279 264 279 264 266.5 288.5 c 128,-1,23
 254 313 254 313 222 313 c 0,24,25
 209 313 209 313 187.5 310.5 c 128,-1,26
 166 308 166 308 148 273 c 128,-1,27
 130 238 130 238 130 214 c 2,28,-1
 130 181 l 2,29,30
 130 62 130 62 191 62 c 0,31,32
 212 62 212 62 233.5 77 c 128,-1,33
 255 92 255 92 263 113 c 0,20,21
358 11 m 1,34,35
 353 -9 353 -9 322.318181818 -9 c 0,36,37
 291.636363636 -9 291.636363636 -9 287 16.5 c 0,38,39
 285 27.5 285 27.5 285 41 c 1,40,41
 246 0 246 0 184 0 c 0,42,43
 66 0 66 0 66 182 c 0,44,45
 66 256.266666667 66 256.266666667 94 316 c 0,46,47
 109 348 109 348 139.5 367 c 128,-1,48
 170 386 170 386 208 386 c 128,-1,49
 246 386 246 386 279 374 c 1,50,51
 290 389 290 389 304.5 389 c 128,-1,52
 319 389 319 389 325.5 385.5 c 128,-1,53
 332 382 332 382 335.5 374.5 c 128,-1,54
 339 367 339 367 341.5 360.5 c 128,-1,55
 344 354 344 354 344.5 341.5 c 128,-1,56
 345 329 345 329 345.5 322 c 128,-1,57
 346 315 346 315 345.5 301 c 128,-1,58
 345 287 345 287 345 254 c 128,-1,59
 345 221 345 221 339 170 c 1,60,61
 344 81 344 81 358 11 c 1,34,35
EndSplineSet
Substitution2: "'smcp' Lowercase to Small Capitals in Latin lookup 0 subtable" Adieresis.smcp
EndChar

StartChar: Agrave
Encoding: 192 192 152
Width: 407
Flags: HW
HStem: -1 21G<351 368> 203 63<140.88 269> 529 20G<168.5 227.5> 598 58<219.777 285.406>
VStem: 20 60<1.75806 130.833>
LayerCount: 2
Fore
SplineSet
189 707 m 1,0,1
 230 662 230 662 266 656 c 1,2,3
 287 642 287 642 287 629 c 128,-1,4
 287 616 287 616 278 607 c 128,-1,5
 269 598 269 598 255 598 c 0,6,7
 223 598 223 598 182 633.5 c 128,-1,8
 141 669 141 669 141 684 c 128,-1,9
 141 699 141 699 149.5 707 c 128,-1,10
 158 715 158 715 168.5 715 c 128,-1,11
 179 715 179 715 189 707 c 1,0,1
207 457 m 1,12,13
 165 378 165 378 139 284 c 1,14,15
 190 266 190 266 269 266 c 1,16,17
 235 390 235 390 207 457 c 1,12,13
80 17 m 0,18,19
 77 1 77 1 48.5 1 c 128,-1,20
 20 1 20 1 20 25 c 0,21,22
 20 72 20 72 48 194.5 c 128,-1,23
 76 317 76 317 124.5 433 c 128,-1,24
 173 549 173 549 216 549 c 0,25,26
 233 549 233 549 275.5 441.5 c 128,-1,27
 318 334 318 334 350 205 c 128,-1,28
 382 76 382 76 390 29 c 1,29,30
 390 -1 390 -1 359.5 -1 c 128,-1,31
 329 -1 329 -1 323 26 c 2,32,-1
 283 203 l 1,33,34
 176 203 176 203 121 219 c 1,35,36
 90 91 90 91 80 17 c 0,18,19
EndSplineSet
Substitution2: "'c2sc' Capitals to Small Capitals in Latin lookup 1 subtable" Agrave.smcp
EndChar

StartChar: agrave
Encoding: 224 224 153
Width: 373
Flags: HW
HStem: 0 62<133.075 222.897> 313 73<142.835 245.423> 439 58<187.777 253.406> 536 20G<130.5 141>
VStem: 47 64<85.1907 276.827> 260 66<101.886 299.438>
LayerCount: 2
Fore
SplineSet
157 548 m 1,0,1
 198 503 198 503 234 497 c 1,2,3
 255 483 255 483 255 470 c 128,-1,4
 255 457 255 457 246 448 c 128,-1,5
 237 439 237 439 223 439 c 0,6,7
 191 439 191 439 150 474.5 c 128,-1,8
 109 510 109 510 109 525 c 128,-1,9
 109 540 109 540 117.5 548 c 128,-1,10
 126 556 126 556 136.5 556 c 128,-1,11
 147 556 147 556 157 548 c 1,0,1
244 113 m 0,12,13
 260 159 260 159 260 211.5 c 128,-1,14
 260 264 260 264 247.5 288.5 c 128,-1,15
 235 313 235 313 203 313 c 0,16,17
 190 313 190 313 168.5 310.5 c 128,-1,18
 147 308 147 308 129 273 c 128,-1,19
 111 238 111 238 111 214 c 2,20,-1
 111 181 l 2,21,22
 111 62 111 62 172 62 c 0,23,24
 193 62 193 62 214.5 77 c 128,-1,25
 236 92 236 92 244 113 c 0,12,13
339 11 m 1,26,27
 334 -9 334 -9 303.318181818 -9 c 0,28,29
 272.636363636 -9 272.636363636 -9 268 16.5 c 0,30,31
 266 27.5 266 27.5 266 41 c 1,32,33
 227 0 227 0 165 0 c 0,34,35
 47 0 47 0 47 182 c 0,36,37
 47 256.266666667 47 256.266666667 75 316 c 0,38,39
 90 348 90 348 120.5 367 c 128,-1,40
 151 386 151 386 189 386 c 128,-1,41
 227 386 227 386 260 374 c 1,42,43
 270 389 270 389 289.866666667 389 c 0,44,45
 309.733333333 389 309.733333333 389 314.866666667 378 c 128,-1,46
 320 367 320 367 322.5 360.5 c 128,-1,47
 325 354 325 354 325.5 341.5 c 128,-1,48
 326 329 326 329 326.5 322 c 128,-1,49
 327 315 327 315 326.5 301 c 128,-1,50
 326 287 326 287 326 254 c 128,-1,51
 326 221 326 221 320 170 c 1,52,53
 325 81 325 81 339 11 c 1,26,27
EndSplineSet
Substitution2: "'smcp' Lowercase to Small Capitals in Latin lookup 0 subtable" Agrave.smcp
EndChar

StartChar: Aring
Encoding: 197 197 154
Width: 414
Flags: HW
HStem: -1 21G<351 368> 203 63<140.88 269> 604 36<186.735 236.763>
VStem: 20 60<1.75806 130.148> 141 42<549.881 601.403> 239 40<550.424 603.433>
LayerCount: 2
Fore
SplineSet
232.5 596 m 128,-1,1
 226 604 226 604 214.5 604 c 128,-1,2
 203 604 203 604 193 595 c 128,-1,3
 183 586 183 586 183 575 c 0,4,5
 183 549 183 549 211 549 c 128,-1,6
 239 549 239 549 239 575 c 0,7,0
 239 588 239 588 232.5 596 c 128,-1,1
207 457 m 1,8,9
 165 378 165 378 139 284 c 1,10,11
 190 266 190 266 269 266 c 1,12,13
 235 390 235 390 207 457 c 1,8,9
80 17 m 0,14,15
 77 1 77 1 48.5 1 c 128,-1,16
 20 1 20 1 20 25 c 0,17,18
 20 97 20 97 69.5 264 c 128,-1,19
 119 431 119 431 183 504 c 1,20,21
 141 523 141 523 141 570 c 0,22,23
 141 602 141 602 163.5 621 c 128,-1,24
 186 640 186 640 216 640 c 128,-1,25
 246 640 246 640 262.5 620.5 c 128,-1,26
 279 601 279 601 279 567 c 1,27,28
 274 520 274 520 237 504 c 1,29,30
 289 449 289 449 344 229 c 0,31,32
 382 76 382 76 390 29 c 1,33,34
 390 -1 390 -1 359.5 -1 c 128,-1,35
 329 -1 329 -1 323 26 c 2,36,-1
 283 203 l 1,37,38
 176 203 176 203 121 219 c 1,39,40
 90 91 90 91 80 17 c 0,14,15
EndSplineSet
Substitution2: "'c2sc' Capitals to Small Capitals in Latin lookup 1 subtable" Aring.smcp
EndChar

StartChar: aring
Encoding: 229 229 155
Width: 373
Flags: HW
HStem: 0 62<133.075 222.897> 313 73<142.835 245.423> 428 57<174.027 239.23> 557 45<176.368 239.19>
VStem: 47 64<85.1907 276.827> 118 54<486.81 551.458> 242 51<487.585 555.556> 260 66<101.886 299.438>
LayerCount: 2
Fore
SplineSet
233.5 546.5 m 128,-1,1
 225 557 225 557 210.5 557 c 128,-1,2
 196 557 196 557 184 545.5 c 128,-1,3
 172 534 172 534 172 519.5 c 128,-1,4
 172 505 172 505 180 495 c 128,-1,5
 188 485 188 485 204 485 c 0,6,7
 242 485 242 485 242 522 c 0,8,0
 242 536 242 536 233.5 546.5 c 128,-1,1
266.5 452.5 m 128,-1,10
 243 429 243 429 205 428.5 c 128,-1,11
 167 428 167 428 142.5 456 c 128,-1,12
 118 484 118 484 118 519 c 128,-1,13
 118 554 118 554 146.5 578 c 128,-1,14
 175 602 175 602 213.5 602 c 128,-1,15
 252 602 252 602 272.5 578 c 128,-1,16
 293 554 293 554 293 508 c 1,17,9
 290 476 290 476 266.5 452.5 c 128,-1,10
244 113 m 0,18,19
 260 159 260 159 260 211.5 c 128,-1,20
 260 264 260 264 247.5 288.5 c 128,-1,21
 235 313 235 313 203 313 c 0,22,23
 190 313 190 313 168.5 310.5 c 128,-1,24
 147 308 147 308 129 273 c 128,-1,25
 111 238 111 238 111 214 c 2,26,-1
 111 181 l 2,27,28
 111 62 111 62 172 62 c 0,29,30
 193 62 193 62 214.5 77 c 128,-1,31
 236 92 236 92 244 113 c 0,18,19
339 11 m 1,32,33
 334 -9 334 -9 303.318181818 -9 c 0,34,35
 272.636363636 -9 272.636363636 -9 268 16.5 c 0,36,37
 266 27.5 266 27.5 266 41 c 1,38,39
 227 0 227 0 165 0 c 0,40,41
 47 0 47 0 47 182 c 0,42,43
 47 256.266666667 47 256.266666667 75 316 c 0,44,45
 90 348 90 348 120.5 367 c 128,-1,46
 151 386 151 386 189 386 c 128,-1,47
 227 386 227 386 260 374 c 1,48,49
 270 389 270 389 289.866666667 389 c 0,50,51
 309.733333333 389 309.733333333 389 314.866666667 378 c 128,-1,52
 320 367 320 367 322.5 360.5 c 128,-1,53
 325 354 325 354 325.5 341.5 c 128,-1,54
 326 329 326 329 326.5 322 c 128,-1,55
 327 315 327 315 326.5 301 c 128,-1,56
 326 287 326 287 326 254 c 128,-1,57
 326 221 326 221 320 170 c 1,58,59
 325 81 325 81 339 11 c 1,32,33
EndSplineSet
Substitution2: "'smcp' Lowercase to Small Capitals in Latin lookup 0 subtable" Aring.smcp
EndChar

StartChar: Atilde
Encoding: 195 195 156
Width: 407
Flags: HW
HStem: -1 21G<351 368> 203 63<140.88 269> 529 20G<168.5 227.5> 592 47<214.152 287.472> 630 52<130.04 203.9>
VStem: 20 60<1.75806 130.833>
LayerCount: 2
Fore
SplineSet
199.5 611 m 128,-1,1
 171 630 171 630 159 630 c 128,-1,2
 147 630 147 630 132.5 612 c 128,-1,3
 118 594 118 594 109 594 c 128,-1,4
 100 594 100 594 89.5 602 c 128,-1,5
 79 610 79 610 79 621 c 0,6,7
 79 641 79 641 107 661.5 c 128,-1,8
 135 682 135 682 156.5 682 c 128,-1,9
 178 682 178 682 210 663 c 128,-1,10
 242 644 242 644 256 639 c 1,11,12
 266 639 266 639 286 659 c 128,-1,13
 306 679 306 679 315 679 c 128,-1,14
 324 679 324 679 332.5 671.5 c 128,-1,15
 341 664 341 664 341 655 c 0,16,17
 341 635 341 635 309.5 613.5 c 128,-1,18
 278 592 278 592 253 592 c 128,-1,0
 228 592 228 592 199.5 611 c 128,-1,1
207 457 m 1,19,20
 165 378 165 378 139 284 c 1,21,22
 190 266 190 266 269 266 c 1,23,24
 235 390 235 390 207 457 c 1,19,20
80 17 m 0,25,26
 77 1 77 1 48.5 1 c 128,-1,27
 20 1 20 1 20 25 c 0,28,29
 20 72 20 72 48 194.5 c 128,-1,30
 76 317 76 317 124.5 433 c 128,-1,31
 173 549 173 549 216 549 c 0,32,33
 233 549 233 549 275.5 441.5 c 128,-1,34
 318 334 318 334 350 205 c 128,-1,35
 382 76 382 76 390 29 c 1,36,37
 390 -1 390 -1 359.5 -1 c 128,-1,38
 329 -1 329 -1 323 26 c 2,39,-1
 283 203 l 1,40,41
 176 203 176 203 121 219 c 1,42,43
 90 91 90 91 80 17 c 0,25,26
EndSplineSet
Substitution2: "'c2sc' Capitals to Small Capitals in Latin lookup 1 subtable" Atilde.smcp
EndChar

StartChar: atilde
Encoding: 227 227 157
Width: 373
Flags: HW
HStem: 0 62<133.075 222.897> 313 73<142.835 245.423> 443 47<201.152 274.472> 481 52<117.04 190.9>
VStem: 47 64<85.1907 276.827> 260 66<101.886 299.438>
LayerCount: 2
Fore
SplineSet
186.5 462 m 128,-1,1
 158 481 158 481 146 481 c 128,-1,2
 134 481 134 481 119.5 463 c 128,-1,3
 105 445 105 445 96 445 c 128,-1,4
 87 445 87 445 76.5 453 c 128,-1,5
 66 461 66 461 66 472 c 0,6,7
 66 492 66 492 94 512.5 c 128,-1,8
 122 533 122 533 143.5 533 c 128,-1,9
 165 533 165 533 197 514 c 128,-1,10
 229 495 229 495 243 490 c 1,11,12
 253 490 253 490 273 510 c 128,-1,13
 293 530 293 530 302 530 c 128,-1,14
 311 530 311 530 319.5 522.5 c 128,-1,15
 328 515 328 515 328 506 c 0,16,17
 328 486 328 486 296.5 464.5 c 128,-1,18
 265 443 265 443 240 443 c 128,-1,0
 215 443 215 443 186.5 462 c 128,-1,1
244 113 m 0,19,20
 260 159 260 159 260 211.5 c 128,-1,21
 260 264 260 264 247.5 288.5 c 128,-1,22
 235 313 235 313 203 313 c 0,23,24
 190 313 190 313 168.5 310.5 c 128,-1,25
 147 308 147 308 129 273 c 128,-1,26
 111 238 111 238 111 214 c 2,27,-1
 111 181 l 2,28,29
 111 62 111 62 172 62 c 0,30,31
 193 62 193 62 214.5 77 c 128,-1,32
 236 92 236 92 244 113 c 0,19,20
339 11 m 1,33,34
 334 -9 334 -9 303.318181818 -9 c 0,35,36
 272.636363636 -9 272.636363636 -9 268 16.5 c 0,37,38
 266 27.5 266 27.5 266 41 c 1,39,40
 227 0 227 0 165 0 c 0,41,42
 47 0 47 0 47 182 c 0,43,44
 47 256.266666667 47 256.266666667 75 316 c 0,45,46
 90 348 90 348 120.5 367 c 128,-1,47
 151 386 151 386 189 386 c 128,-1,48
 227 386 227 386 260 374 c 1,49,50
 270 389 270 389 289.866666667 389 c 0,51,52
 309.733333333 389 309.733333333 389 314.866666667 378 c 128,-1,53
 320 367 320 367 322.5 360.5 c 128,-1,54
 325 354 325 354 325.5 341.5 c 128,-1,55
 326 329 326 329 326.5 322 c 128,-1,56
 327 315 327 315 326.5 301 c 128,-1,57
 326 287 326 287 326 254 c 128,-1,58
 326 221 326 221 320 170 c 1,59,60
 325 81 325 81 339 11 c 1,33,34
EndSplineSet
Substitution2: "'smcp' Lowercase to Small Capitals in Latin lookup 0 subtable" Atilde.smcp
EndChar

StartChar: Ccedilla
Encoding: 199 199 158
Width: 451
Flags: HW
HStem: -256 63<144.533 295.098> -117 53<242.015 297.697> 474 71<201.516 386.452>
VStem: 35 77<150.284 374.591> 174 68<-62.9024 3.28382> 300 60<-187.699 -117.68>
LayerCount: 2
Fore
SplineSet
270 -117 m 1,0,-1
 226 -121 l 1,1,2
 174 -121 174 -121 174 -60 c 0,3,4
 174 -34 174 -34 184 4 c 1,5,6
 134 15 134 15 99 60 c 0,7,8
 35 142.285714286 35 142.285714286 35 273.642857143 c 128,-1,9
 35 405 35 405 105 475 c 128,-1,10
 175 545 175 545 280 545 c 0,11,12
 337 545 337 545 403 523 c 1,13,14
 418 512.5 418 512.5 418 498.25 c 128,-1,15
 418 484 418 484 404.5 473.5 c 128,-1,16
 391 463 391 463 373 463 c 1,17,18
 335 474 335 474 294 474 c 0,19,20
 206 474 206 474 159 418.5 c 128,-1,21
 112 363 112 363 112 258.5 c 0,22,23
 112 154 112 154 166 100 c 0,24,25
 195 71 195 71 242 71 c 128,-1,26
 289 71 289 71 373 119 c 0,27,28
 383 124 383 124 393 124 c 0,29,30
 415 124 415 124 415 99.5 c 128,-1,31
 415 75 415 75 360 44.5 c 128,-1,32
 305 14 305 14 246 3 c 1,33,-1
 242 -41 l 1,34,35
 242 -64 242 -64 266 -64 c 0,36,37
 272 -64 272 -64 276 -63 c 1,38,39
 323 -63 323 -63 341.5 -77.5 c 128,-1,40
 360 -92 360 -92 360 -126 c 0,41,42
 360 -182 360 -182 324 -219 c 128,-1,43
 288 -256 288 -256 223 -256 c 0,44,45
 183 -256 183 -256 151 -243.5 c 128,-1,46
 119 -231 119 -231 119 -207 c 0,47,48
 119 -193 119 -193 128 -182 c 128,-1,49
 137 -171 137 -171 148 -171 c 128,-1,50
 159 -171 159 -171 186.5 -182 c 128,-1,51
 214 -193 214 -193 243 -193 c 128,-1,52
 272 -193 272 -193 286 -183.5 c 128,-1,53
 300 -174 300 -174 300 -140 c 0,54,55
 300 -117 300 -117 270 -117 c 1,0,-1
EndSplineSet
Substitution2: "'c2sc' Capitals to Small Capitals in Latin lookup 1 subtable" Ccedilla.smcp
EndChar

StartChar: ccedilla
Encoding: 231 231 159
Width: 344
Flags: HW
HStem: -256 63<91.5333 242.098> -117 53<189.079 244.697> 319 70<144.609 291.158>
VStem: 21 72<100.41 268.004> 121 70<-62.9024 3.28382> 129 62<-59.2377 7.67482> 247 60<-187.699 -117.68>
LayerCount: 2
Fore
SplineSet
82.5 335.5 m 128,-1,1
 144 389 144 389 227.5 389 c 128,-1,2
 311 389 311 389 311 353.5 c 0,3,4
 311 340 311 340 301 320 c 128,-1,5
 291 300 291 300 279.5 300 c 128,-1,6
 268 300 268 300 244 309.5 c 128,-1,7
 220 319 220 319 210 319 c 0,8,9
 163 319 163 319 128 284.5 c 128,-1,10
 93 250 93 250 93 192 c 128,-1,11
 93 134 93 134 111 104 c 128,-1,12
 129 74 129 74 177 74 c 0,13,14
 202 74 202 74 242 95.5 c 128,-1,15
 282 117 282 117 294 117 c 128,-1,16
 306 117 306 117 312.5 110 c 128,-1,17
 319 103 319 103 319 93 c 0,18,19
 319 66 319 66 278.5 39 c 128,-1,20
 238 12 238 12 191 3 c 1,21,-1
 191 -2 l 1,22,-1
 189 -39 l 1,23,24
 189 -64 189 -64 213 -64 c 0,25,26
 219 -64 219 -64 223 -63 c 1,27,28
 270 -63 270 -63 288.5 -77.5 c 128,-1,29
 307 -92 307 -92 307 -126 c 0,30,31
 307 -182 307 -182 271 -219 c 128,-1,32
 235 -256 235 -256 170 -256 c 0,33,34
 130 -256 130 -256 98 -243.5 c 128,-1,35
 66 -231 66 -231 66 -207 c 0,36,37
 66 -193 66 -193 75.5 -182 c 128,-1,38
 85 -171 85 -171 95.5 -171 c 128,-1,39
 106 -171 106 -171 133.5 -182 c 128,-1,40
 161 -193 161 -193 190 -193 c 128,-1,41
 219 -193 219 -193 233 -183.5 c 128,-1,42
 247 -174 247 -174 247 -140 c 0,43,44
 247 -117 247 -117 217 -117 c 1,45,-1
 173 -121 l 1,46,47
 121 -121 121 -121 121 -60 c 0,48,49
 121 -36 121 -36 129 4 c 1,50,51
 78 17 78 17 49.5 67.5 c 128,-1,52
 21 118 21 118 21 200 c 128,-1,0
 21 282 21 282 82.5 335.5 c 128,-1,1
EndSplineSet
Substitution2: "'smcp' Lowercase to Small Capitals in Latin lookup 0 subtable" Ccedilla.smcp
EndChar

StartChar: dotlessi
Encoding: 305 305 160
Width: 187
Flags: HW
HStem: 374 20G<75.5 113.5>
VStem: 58 71<54.4531 388.269> 69 61<0.248718 243.535>
LayerCount: 2
Fore
SplineSet
131 277 m 2,0,-1
 129 90 l 2,1,2
 129 51 129 51 130 33 c 1,3,4
 127 18 127 18 116 6.5 c 128,-1,5
 105 -5 105 -5 90.5 -5 c 128,-1,6
 76 -5 76 -5 69 16 c 1,7,8
 58 230 58 230 58 284.25 c 128,-1,9
 58 338.5 58 338.5 61 379 c 0,10,11
 62 394 62 394 81 394 c 0,12,13
 132.583333333 394 132.583333333 394 132.583333333 331.805555556 c 1,14,-1
 131.5 301.5 l 2,15,16
 131 284 131 284 131 277 c 2,0,-1
EndSplineSet
Substitution2: "'smcp' Lowercase to Small Capitals in Latin lookup 0 subtable" I.smcp
EndChar

StartChar: Eacute
Encoding: 201 201 161
Width: 369
Flags: HW
HStem: 0 64<111 321.844> 278 62<110.328 306.204> 483 68<106 352.452> 600 141<172 238>
VStem: 46 65<64 131.875 135.113 278 340 483>
LayerCount: 2
Fore
SplineSet
213 727 m 1,0,1
 221 741 221 741 235.5 741 c 128,-1,2
 250 741 250 741 259 731 c 128,-1,3
 268 721 268 721 268 704 c 1,4,5
 244.363636364 654.363636364 244.363636364 654.363636364 217.181818182 627.181818182 c 128,-1,6
 190 600 190 600 174 600 c 128,-1,7
 158 600 158 600 150 608.5 c 128,-1,8
 142 617 142 617 142 628 c 128,-1,9
 142 639 142 639 155 654 c 1,10,11
 188 672 188 672 213 727 c 1,0,1
293 3 m 1,12,-1
 80 0 l 2,13,14
 61 0 61 0 53.5 7 c 128,-1,15
 46 14 46 14 46 31 c 1,16,17
 49 56 49 56 49 106 c 2,18,-1
 49 164 l 1,19,-1
 46 287 l 1,20,21
 34 294 34 294 34 309 c 128,-1,22
 34 324 34 324 43 334 c 1,23,24
 40 428 40 428 40 510 c 1,25,26
 45 530 45 530 55.5 539 c 128,-1,27
 66 548 66 548 86 551 c 1,28,29
 196 546 196 546 324 546 c 1,30,31
 356 539 356 539 356 518 c 0,32,33
 356 472.794117647 356 472.794117647 230 476.5 c 0,34,35
 213 477 213 477 193.5 477 c 128,-1,36
 174 477 174 477 106 483 c 1,37,38
 106 383 106 383 109 340 c 1,39,40
 176 339 176 339 279 339 c 1,41,42
 309 334 309 334 309 312 c 0,43,44
 309 300 309 300 299.5 289.5 c 128,-1,45
 290 279 290 279 276 276 c 1,46,-1
 132 278 l 2,47,48
 117 278 117 278 110 277 c 1,49,-1
 113 133 l 2,50,51
 113 85 113 85 111 64 c 1,52,-1
 304 67 l 1,53,54
 331 63 331 63 331 44 c 0,55,56
 331 31 331 31 319.5 19 c 128,-1,57
 308 7 308 7 293 3 c 1,12,-1
EndSplineSet
Substitution2: "'c2sc' Capitals to Small Capitals in Latin lookup 1 subtable" Eacute.smcp
EndChar

StartChar: eacute
Encoding: 233 233 162
Width: 337
Flags: HW
HStem: -3 73<126.612 225.503> 177 59<101 198.503> 328 58<127.131 213.908> 427 141<142 208>
VStem: 217 73<255.876 324.294>
LayerCount: 2
Fore
SplineSet
183 554 m 1,0,1
 191 568 191 568 205.5 568 c 128,-1,2
 220 568 220 568 229 558 c 128,-1,3
 238 548 238 548 238 531 c 1,4,5
 214.363636364 481.363636364 214.363636364 481.363636364 187.181818182 454.181818182 c 128,-1,6
 160 427 160 427 144 427 c 128,-1,7
 128 427 128 427 120 435.5 c 128,-1,8
 112 444 112 444 112 455 c 128,-1,9
 112 466 112 466 125 481 c 1,10,11
 158 499 158 499 183 554 c 1,0,1
175 328 m 0,12,13
 138.766666667 328 138.766666667 328 118.5 296 c 0,14,15
 109 281 109 281 106.5 270.5 c 128,-1,16
 104 260 104 260 100 236 c 1,17,18
 217 236 217 236 217 293 c 0,19,20
 217 310 217 310 205 319 c 128,-1,21
 193 328 193 328 175 328 c 0,12,13
256.5 229 m 128,-1,23
 223 196 223 196 189.5 186.5 c 128,-1,24
 156 177 156 177 101 177 c 1,25,26
 113.689419795 94.5187713311 113.689419795 94.5187713311 139.5 78 c 0,27,28
 152 70 152 70 174 70 c 128,-1,29
 196 70 196 70 220.5 87.5 c 128,-1,30
 245 105 245 105 264.5 122.5 c 128,-1,31
 284 140 284 140 294.5 140 c 128,-1,32
 305 140 305 140 317 125.5 c 128,-1,33
 329 111 329 111 329 100 c 0,34,35
 329 80 329 80 272.5 38.5 c 128,-1,36
 216 -3 216 -3 156 -3 c 128,-1,37
 96 -3 96 -3 63.5 63.5 c 128,-1,38
 31 130 31 130 31 205.5 c 128,-1,39
 31 281 31 281 62 333.5 c 128,-1,40
 93 386 93 386 157 386 c 0,41,42
 207 386 207 386 248.5 361 c 128,-1,43
 290 336 290 336 290 299 c 128,-1,22
 290 262 290 262 256.5 229 c 128,-1,23
EndSplineSet
Substitution2: "'smcp' Lowercase to Small Capitals in Latin lookup 0 subtable" Eacute.smcp
EndChar

StartChar: Ecircumflex
Encoding: 202 202 163
Width: 369
Flags: HW
HStem: 0 64<111 321.844> 278 62<110.328 306.204> 483 68<106 352.452>
VStem: 46 65<64 131.875 135.113 278 340 483>
LayerCount: 2
Fore
SplineSet
200 650 m 1,0,1
 197 648 197 648 168.84375 621.5 c 0,2,3
 140.6875 595 140.6875 595 127.34375 595 c 128,-1,4
 114 595 114 595 106.5 605 c 128,-1,5
 99 615 99 615 99 628 c 128,-1,6
 99 641 99 641 141 674 c 128,-1,7
 183 707 183 707 201.5 707 c 128,-1,8
 220 707 220 707 261.5 676.5 c 128,-1,9
 303 646 303 646 303 625 c 0,10,11
 303 613 303 613 292.5 605 c 128,-1,12
 282 597 282 597 273 597 c 128,-1,13
 264 597 264 597 237 618 c 128,-1,14
 210 639 210 639 200 650 c 1,0,1
293 3 m 1,15,-1
 80 0 l 2,16,17
 61 0 61 0 53.5 7 c 128,-1,18
 46 14 46 14 46 31 c 1,19,20
 49 56 49 56 49 106 c 2,21,-1
 49 164 l 1,22,-1
 46 287 l 1,23,24
 34 294 34 294 34 309 c 128,-1,25
 34 324 34 324 43 334 c 1,26,27
 40 428 40 428 40 510 c 1,28,29
 45 530 45 530 55.5 539 c 128,-1,30
 66 548 66 548 86 551 c 1,31,32
 196 546 196 546 324 546 c 1,33,34
 356 539 356 539 356 518 c 0,35,36
 356 472.794117647 356 472.794117647 230 476.5 c 0,37,38
 213 477 213 477 193.5 477 c 128,-1,39
 174 477 174 477 106 483 c 1,40,41
 106 383 106 383 109 340 c 1,42,43
 176 339 176 339 279 339 c 1,44,45
 309 334 309 334 309 312 c 0,46,47
 309 300 309 300 299.5 289.5 c 128,-1,48
 290 279 290 279 276 276 c 1,49,-1
 132 278 l 2,50,51
 117 278 117 278 110 277 c 1,52,-1
 113 133 l 2,53,54
 113 85 113 85 111 64 c 1,55,-1
 304 67 l 1,56,57
 331 63 331 63 331 44 c 0,58,59
 331 31 331 31 319.5 19 c 128,-1,60
 308 7 308 7 293 3 c 1,15,-1
EndSplineSet
Substitution2: "'c2sc' Capitals to Small Capitals in Latin lookup 1 subtable" Ecircumflex.smcp
EndChar

